<?xml version="1.0" encoding="utf-8"?>
<!-- Generator: Adobe Illustrator 16.0.3, SVG Export Plug-In . SVG Version: 6.00 Build 0)  -->
<!DOCTYPE svg PUBLIC "-//W3C//DTD SVG 1.1//EN" "http://www.w3.org/Graphics/SVG/1.1/DTD/svg11.dtd">
<svg version="1.1" id="Layer_1" xmlns="http://www.w3.org/2000/svg" xmlns:xlink="http://www.w3.org/1999/xlink" x="0px" y="0px"
	 width="200px" height="200px" viewBox="0 0 200 200" enable-background="new 0 0 200 200" xml:space="preserve">
<ellipse fill="none" stroke="#1E9F00" stroke-width="14.1732" stroke-miterlimit="10" cx="100" cy="166.75" rx="52" ry="22.25"/>
<g id="Layer_2">
	
		<rect x="76.167" y="124.5" transform="matrix(0.8906 -0.4547 0.4547 0.8906 -54.5587 54.8074)" fill="#FFFFFF" width="21.001" height="32.666"/>
	
		<rect x="99.167" y="128.167" transform="matrix(-0.8906 -0.4547 0.4547 -0.8906 141.6384 323.0635)" fill="#FFFFFF" width="21.001" height="32.666"/>
</g>
<g>
	<path fill="#1E9F00" d="M100.156,171.75c-0.16,0-0.32,0-0.48,0c-0.109-0.366-0.164-0.76-0.337-1.095
		c-7.643-14.694-15.284-29.393-22.952-44.075c-7.303-13.985-14.664-27.939-21.93-41.941c-1.63-3.142-3.272-6.332-4.392-9.668
		c-4.733-14.098-3.616-27.854,3.365-41.001c5.206-9.804,13.036-17.054,23.055-22.124C84.176,7.954,95.251,6,100.87,6
		c15.29,0.404,28.231,6.058,38.491,17.223c8.369,9.108,12.777,19.963,13.381,32.263c0.418,8.495-1.176,16.632-4.826,24.339
		c-1.266,2.67-2.826,5.203-4.193,7.829c-14.022,26.893-28.035,53.792-42.037,80.694C101.111,169.45,100.663,170.615,100.156,171.75z
		"/>
</g>
<g>
	<path fill="#C8C8C8" d="M100.069,102.77c22.83-0.012,41.242-19.079,41.257-42.72c0.016-23.739-18.366-42.802-41.275-42.806
		C77.11,17.24,58.669,36.27,58.673,59.943C58.676,83.72,77.102,102.781,100.069,102.77z"/>
	<path fill="#D4D2D2" d="M100.069,102.77c-22.968,0.012-41.393-19.048-41.396-42.826c-0.004-23.674,18.437-42.704,41.378-42.7
		c22.909,0.004,41.291,19.067,41.275,42.806C141.311,83.69,122.898,102.758,100.069,102.77z"/>
</g>
<polygon fill="#1E9F00" points="100,30.65 108.771,48.423 128.384,51.272 114.191,65.106 117.543,84.64 100,75.417 82.458,84.64 
	85.808,65.106 71.616,51.272 91.229,48.423 "/>
</svg>
