<?xml version="1.0" encoding="utf-8"?>
<!-- Generator: Adobe Illustrator 16.0.3, SVG Export Plug-In . SVG Version: 6.00 Build 0)  -->
<!DOCTYPE svg PUBLIC "-//W3C//DTD SVG 1.1//EN" "http://www.w3.org/Graphics/SVG/1.1/DTD/svg11.dtd">
<svg version="1.1" id="Layer_1" xmlns="http://www.w3.org/2000/svg" xmlns:xlink="http://www.w3.org/1999/xlink" x="0px" y="0px"
	 width="400px" height="146px" viewBox="0 0 400 146" enable-background="new 0 0 400 146" xml:space="preserve">
<g>
	<path fill-rule="evenodd" clip-rule="evenodd" fill="#FDFCFB" d="M7.125,67.708c-0.152,4.356-0.255,8.715-0.487,13.067
		c-0.063,1.198-0.513,2.378-0.785,3.569c0-7.229,0-14.457,0-21.685c0.395-0.238,0.764-0.204,1.11,0.104
		C8.149,64.373,8.792,66.003,7.125,67.708z"/>
	<path fill-rule="evenodd" clip-rule="evenodd" fill="#FDFCFB" d="M5.853,91.569c0.549-0.002,1.098-0.004,1.647-0.006
		c0.851,1.214,0.853,2.424-0.008,3.633c-0.546-0.004-1.092-0.009-1.639-0.011C5.853,93.981,5.853,92.775,5.853,91.569z"/>
	<path fill-rule="evenodd" clip-rule="evenodd" fill="#EDEDED" d="M5.853,59.77c0.29-0.001,0.58-0.002,0.869-0.002
		c0.734,0.979,0.69,1.939-0.07,2.884c-0.267,0.003-0.533,0.006-0.799,0.009C5.853,61.697,5.853,60.732,5.853,59.77z"/>
	<path fill-rule="evenodd" clip-rule="evenodd" fill="#FBC908" d="M163.577,124.344c-3.873,0.05-7.745,0.102-11.618,0.152
		c-0.51-0.35-0.777-0.854-0.921-1.435c-0.211-2.726-0.101-5.519-1.592-7.993c-0.894-0.862-2.244-0.831-3.364-1.79
		c-0.93-1.537-1.333-3.285-0.56-4.476c2.578-3.016,7.103,0.376,8.382-3.964c0.113-0.339,0.278-0.654,0.476-0.948
		c0.831-1.176,2.864-0.426,3.411-2.076c-0.272-1.64-1.821-1.229-2.745-1.786c-0.301-0.169-0.546-0.398-0.735-0.687
		c-1.069-2.251,0.161-4.063,1.509-6.169c-2.834-0.385-2.597-3.459-4.639-4.449c-1.384,2.604,0.55,5.819-1.564,8.269
		c-1.337,0.722-2.687,0.718-4.046,0.083c-1.497-1.238-1.087-2.983-1.19-4.588c-0.083-1.284,0.091-2.6-0.562-3.786
		c-0.337-0.71-0.864-1.065-1.686-0.866c-0.443,0.091-0.885,0.127-1.335,0.1c-0.478-0.055-0.911-0.215-1.274-0.539
		c-0.418-0.882,0.357-1.48,0.517-2.229c0.195-0.633,0.372-1.271,0.732-1.842c0.672-0.865,1.582-1.372,2.588-1.738
		c1.853-0.56,3.937-0.031,5.662-1.214c0.37-0.098,0.741-0.125,1.12-0.096c3.81,0.319,7.618,0.265,11.421,0.017
		c0.357-0.012,0.708,0.044,1.045,0.169c1.398,0.861,0.371,3.923,3.175,3.506c1.381-0.922,1.358-3.295,3.526-3.407
		c2.174-0.229,4.343-0.134,6.51-0.134c67.081-0.007,134.161,0.002,201.241-0.046c1.779-0.002,3.926,0.895,5.24-1.259
		c0.32-1.172,0.492-2.352,0.496-3.567c0.05-15.996-0.096-31.992-0.01-47.988c0.004-0.844,0.002-1.688-0.418-2.455
		c-0.493-0.796-1.247-1.082-2.137-1.13c-1.083-0.059-2.166-0.045-3.252-0.045c-115.031-0.001-230.064-0.004-345.097,0.019
		c-1.762,0-3.646-0.461-5.212,0.84c-0.404,0.56-0.847,1.08-1.439,1.448c-5.585,1.071-11.201,0.585-16.815,0.298
		c-0.441-0.159-0.804-0.425-1.091-0.795c0.063-0.841,0.03-1.701,0.204-2.518C10.202,10.618,13.034,9.041,24.316,8.44
		c11.75-0.626,23.559-0.14,35.641-0.14c0.238-2.131,0.417-3.731,0.611-5.471c21.922,0,43.686,0,65.501,0
		c2.026,1.622,4.08,3.267,6.397,5.122c20.54,0,41.367,0.008,62.193-0.001c58.287-0.022,116.572,0.002,174.86-0.13
		c9.201-0.021,16.581,3.403,22.505,10.176c1.01,1.154,1.749,2.979,1.766,4.503c0.261,25.399,1.041,50.811-1.072,76.179
		c-0.379,4.557-0.422,9.141-0.848,13.691c-0.61,6.508-6.087,11.844-12.553,11.908c-14.555,0.146-29.113,0.046-44.136,0.046
		c0.122-7.838-3.913-13.92-10.15-18.407c-3.422-2.463-7.823-2.812-12.047-2.577c-11.079,0.615-16.753,6.86-19.4,21.357
		c-0.985,0.058-2.033,0.178-3.079,0.175c-33.96-0.07-67.919-0.147-101.879-0.248c-1.183-0.004-2.366-0.254-3.55-0.387
		c-0.827-0.583-1.014-1.906-2.319-1.979c-1.474-0.223-1.786,1.201-2.608,1.928c-3.878,0.035-7.757,0.072-11.636,0.11
		c-0.794-0.418-1.31-1.313-2.31-1.336C164.974,122.773,164.369,123.733,163.577,124.344z"/>
	<path fill-rule="evenodd" clip-rule="evenodd" fill="#393837" d="M148.917,80.689c-0.536,0.512-1.009,1.355-1.62,1.47
		c-1.333,0.251-2.735,0.129-4.109,0.16c-0.708,0.331-1.828,0.056-1.9,1.309c-0.086,0.719-0.171,1.437-0.256,2.158
		c-2.625,1.58-5.728,0.399-8.433,1.467c-0.239,0.235-0.488,0.461-0.728,0.69c-1.098,2.562-1.477,5.102,0.209,7.576
		c0.919,0.157,1.833,0.284,2.729-0.098c0.929-0.493,0.985-1.506,1.377-2.322c0.234-0.462,0.569-0.827,0.996-1.115
		c0.752-0.399,1.542-0.485,2.361-0.286c0.289,0.066,0.45,0.369,0.749,0.437c0.21-0.09,0.325-0.255,0.343-0.513
		c0.108-0.282,0.244-0.537,0.401-0.787c0.774-1.086,0.314-2.652,1.423-3.595c0.483-0.006,0.965-0.012,1.448-0.019
		c1.163,2.876,0.677,5.86,0.582,8.813c-0.114,0.365-0.325,0.677-0.62,0.92c-1.27,0.904-3.019,0.214-4.279,1.243
		c-1.005,1.656,0.492,2.523,1.163,3.65c0.429,0.896,0.525,1.847,0.497,2.822c-0.053,1.044-0.121,2.084-1.133,2.73
		c-5.361-4.622-11.938-5.338-18.121-3.568c-10.304,2.946-15.571,10.397-15.049,21.621c-2.82,0-5.409,0-8.114,0
		c-0.405-2.093-0.825-4.264-1.247-6.436c-1.72-8.856-9.524-15.273-18.375-15.741c-11.261-0.595-18.712,5.864-21.667,15.486
		c-0.514,1.669-0.31,3.559-0.437,5.349c-0.262,0.584-0.659,1.03-1.278,1.245c-3.63,0.504-7.301-0.146-10.932,0.38
		c-1.696-0.002-3.391-0.004-5.087-0.006c-2.199-0.474-4.481,0.148-6.668-0.499c-0.667-0.097-1.333-0.192-1.999-0.286
		c-1.504-0.038-2.856-0.783-4.337-0.93c-0.388-0.099-0.777-0.194-1.164-0.293c-2.415-0.751-4.72-1.752-6.889-3.055
		c-0.144-0.136-0.308-0.238-0.491-0.307c-1.604-1.726-3.245-3.416-4.806-5.179c-3.895-4.394-5.772-9.524-5.63-15.42
		c0.037-1.518-0.216-3.044-0.336-4.566c0.003-1.209,0.006-2.421,0.008-3.633c-0.125-7.95-0.25-15.903-0.375-23.855
		c-0.158-1.686-0.316-3.372-0.473-5.057c0.023-0.962,0.046-1.923,0.07-2.884C6.67,56.151,6.62,52.536,6.569,48.92
		c0.008-2.642,0.017-5.285,0.025-7.927c0.108-1.947,0.216-3.895,0.323-5.842c0.051-1.185,0.101-2.368,0.151-3.553
		c0.646-1.55-0.502-3.587,1.31-4.823c5.687-0.269,11.376-0.689,17.049,0.223c1.073,1.176,1.011,2.643,1.008,4.078
		c-0.009,4.917,0.075,9.834-0.041,14.747c-0.055,0.628-0.129,1.256-0.351,1.852c-0.21,0.536-0.533,1.003-0.953,1.395
		c-2.402,1.488-4.285,3.33-4.282,6.432c-1.06,1.731-0.9,3.602-0.613,5.489c-0.22,1.302-1.556,1.773-2.163,2.944
		c-0.821,1.905-0.021,3.884,0.212,5.877c-2.536,7.687,8.143,18.353,17.333,18.666c6.071,0.206,11.355-1.411,15.871-5.51
		c0.836-0.761,1.483-2.014,2.982-1.541c1.559,1.921,0.077,4.512,1.429,6.472c0.222,0.229,0.44,0.469,0.667,0.691
		c1.744,1.055,3.566,0.699,5.384,0.306c0.366-0.196,0.738-0.385,1.088-0.59c0.555-0.507-0.04-0.981-0.062-1.479
		c-0.276-1.62-0.278-3.219,0.236-4.797c0.323-0.76,0.76-1.425,1.517-1.823c2.845-0.895,5.739-0.573,8.626-0.341
		c1.089,0.219,1.993,0.798,2.798,1.533c9.825,8.969,20.66,8.591,32.011,3.476c0.332-0.148,0.686-0.21,1.042-0.243
		c0.38,0.021,0.722,0.15,1.027,0.378c0.391,0.39,0.671,0.851,0.862,1.366c0.151,0.494,0.177,1.001,0.111,1.509
		c-0.11,0.714-0.364,1.468,0.56,1.878c0.954,0.216,1.857,0.252,2.611-0.509c0.652-0.9,0.404-2.045,0.821-3.009
		c0.146-0.316,0.354-0.578,0.618-0.8c0.445-0.271,0.933-0.414,1.444-0.485c0.885-0.154,1.836,0.064,2.665-0.455
		c0.938-0.772,0.599-1.887,0.755-2.87c0.033-0.353,0.113-0.694,0.225-1.031c0.143-0.339,0.354-0.624,0.622-0.873
		c0.682-0.376,1.378-0.384,2.084-0.079c0.614,0.374,0.986,0.968,1.388,1.533c0.662,0.86,1.41,1.534,2.279,1.353
		c1.459-0.42,1.512-1.795,2.483-2.272c0.853-0.356,1.691-0.338,2.513,0.088c0.87,0.573,1.039,1.903,2.26,2.1
		c1.945,0.294,2.156-2.02,3.648-2.427C141.78,79.637,145.436,78.769,148.917,80.689z"/>
	<path fill-rule="evenodd" clip-rule="evenodd" fill="#242424" d="M58.907,123.807c0.869-11.222,7.696-18.449,18.975-18.627
		c11.182-0.178,18.3,9.277,18.58,18.757c0.274,9.31-9.486,19.03-18.654,18.536C67.114,141.891,59.41,134.133,58.907,123.807z"/>
	<path fill-rule="evenodd" clip-rule="evenodd" fill="#242424" d="M127.439,105.088c11.068,0.224,18.227,8.991,18.708,18.744
		c0.452,9.166-9.257,18.953-18.556,18.627c-10.471-0.369-18.98-8.278-18.869-18.531C108.842,112.94,116.208,105.699,127.439,105.088
		z"/>
	<path fill-rule="evenodd" clip-rule="evenodd" fill="#242424" d="M316.737,143.17c-1.504-0.009-3.009-0.017-4.512-0.023
		c-6.028-1.025-10.637-4.064-13.938-9.296c-6.191-9.813-0.549-24.023,10.742-26.993c13-3.416,22.887,5.563,24.176,17.54
		c0.683,6.332-5.113,14.613-11.662,17.22C319.983,142.241,318.341,142.657,316.737,143.17z"/>
	<path fill-rule="evenodd" clip-rule="evenodd" fill="#393837" d="M154.753,104.564c0,1.16,0,2.318,0,3.858
		c-2.949,0-5.652,0-8.493,0c0,1.663,0,2.943,0,4.561c1.42,0.148,2.892,0.303,4.237,0.445c0.534,1.963,1.018,3.736,1.661,6.101
		c-0.078,0.799-0.228,2.318-0.377,3.839c-1.167,0.912-2.337,0.883-3.51,0.013c-0.014-0.95-0.028-1.898-0.042-2.849
		c-0.417-0.421-0.241-1.133-0.749-1.507c-0.419-1.477-0.839-2.95-1.259-4.425c0.102-0.265,0.022-0.429-0.267-0.474
		c-1.19-1.529-2.381-3.056-3.573-4.583c1.235-1.477,2.067-3.186,2.693-5.159C148.386,103.344,151.563,102.788,154.753,104.564z"/>
	<path fill-rule="evenodd" clip-rule="evenodd" fill="#EDBF07" d="M154.753,104.564c-3.073,0-6.144,0-9.349,0
		c-0.155,1.58-0.279,2.852-0.435,4.438c-0.823,0.172-1.706,0.355-2.589,0.541c-0.753-0.717-1.507-1.43-2.261-2.144
		c0.058-0.939,0.116-1.877,0.173-2.815c0.772-0.792,1.911-0.937,2.824-1.604c0.919-1.153,0.292-3.112,1.897-4.004
		c3.311-0.727,6.607-1.296,9.763,0.563l-0.054-0.052c1.037,1.324,1.213,2.675,0.141,4.072
		C154.826,103.895,154.79,104.23,154.753,104.564z"/>
	<path fill-rule="evenodd" clip-rule="evenodd" fill="#454132" d="M180.148,124.187c0-0.925,0-1.851,0-2.952
		c1.643,0,3.022,0,4.717,0c0.069,0.995,0.14,1.998,0.21,3.003C183.434,124.22,181.791,124.203,180.148,124.187z"/>
	<path fill-rule="evenodd" clip-rule="evenodd" fill="#ACACAC" d="M44.899,125.736c3.803-0.224,7.606-0.444,11.409-0.668
		c0.218-0.468,0.52-0.531,0.905-0.186c-0.34,0.404-0.684,1.164-1.02,1.16C52.428,126.01,48.664,125.857,44.899,125.736z"/>
	<path fill-rule="evenodd" clip-rule="evenodd" fill="#454132" d="M163.577,124.344c0.042-0.681,0.084-1.363,0.136-2.206
		c1.48,0,2.841,0,4.487,0c0.098,0.675,0.206,1.417,0.313,2.159C166.868,124.313,165.223,124.328,163.577,124.344z"/>
	<path fill-rule="evenodd" clip-rule="evenodd" fill="#ACACAC" d="M33.144,125.231c2.223,0.164,4.446,0.332,6.668,0.499
		C37.59,125.563,35.367,125.396,33.144,125.231z"/>
	<path fill-rule="evenodd" clip-rule="evenodd" fill="#ACACAC" d="M18.755,120.668c2.296,1.019,4.592,2.038,6.889,3.055
		C23.348,122.706,21.052,121.687,18.755,120.668z"/>
	<path fill-rule="evenodd" clip-rule="evenodd" fill="#ACACAC" d="M26.808,124.016c1.445,0.309,2.892,0.618,4.337,0.93
		C29.7,124.634,28.253,124.324,26.808,124.016z"/>
	<path fill-rule="evenodd" clip-rule="evenodd" fill="#454132" d="M148.271,123.381c1.17-0.004,2.34-0.009,3.51-0.013
		c0.06,0.376,0.118,0.752,0.178,1.128C150.631,124.447,148.77,126.167,148.271,123.381z"/>
	<path fill-rule="evenodd" clip-rule="evenodd" fill="#242424" d="M147.479,119.025c0.25,0.502,0.5,1.003,0.749,1.507
		C147.979,120.028,147.729,119.527,147.479,119.025z"/>
	<path fill-rule="evenodd" clip-rule="evenodd" fill="#675A2A" d="M145.953,114.127c0.15,0.083,0.299,0.164,0.449,0.246
		c-0.06,0.077-0.121,0.152-0.182,0.228C146.043,114.492,145.954,114.334,145.953,114.127z"/>
	<path fill-rule="evenodd" clip-rule="evenodd" fill="#242424" d="M57.213,124.883c-0.301,0.063-0.603,0.123-0.905,0.186
		c0.267-0.319,0.533-0.638,0.801-0.957C57.144,124.368,57.179,124.626,57.213,124.883z"/>
	<path fill-rule="evenodd" clip-rule="evenodd" fill="#060708" d="M132.312,80.689c-0.878-0.01-1.756-0.023-2.634-0.034
		c-1.675,0.39-3.353,0.467-5.034,0.032c-0.354-0.13-0.695-0.293-1.022-0.485c-0.687,0.013-1.375,0.023-2.062,0.035
		c-1.388,0.927-3.025,0.695-4.554,0.98c-1.29-0.071-1.857-0.777-1.799-2.039c0.321-1.403,1.211-2.288,2.524-2.793
		c5.479-0.838,10.997-0.209,16.494-0.404c1.654-0.059,3.352,0.195,5.21-0.734c0.97-5.572,0.143-11.316,0.509-17.004
		c-0.143-5.231-0.151-10.458-0.001-15.686c-0.313-4.828,0.314-9.684-0.395-14.492c-0.594-1.481-1.917-1.226-3.067-1.229
		c-12.195-0.03-24.39-0.028-36.585-0.004c-1.057,0.002-2.188-0.145-2.946,0.872c-0.495,1.338-0.401,2.733-0.444,4.116
		c-0.046,2.332,0.483,4.724-0.752,6.925c-1.626,1.072-2.966,0.415-4.231-0.699c-1.149-2.308-0.479-4.792-0.689-7.191
		c-0.064-1.06,0.146-2.162-0.934-3.845c-7.922-0.477-16.354,0.039-24.761-0.167c-3.023,0.129-6.046,0.117-9.065,0.006
		c-3.025,0.231-6.248-0.904-9.066,1.182c-0.938,3.626,0.102,7.295-0.714,10.826c-0.539,1.276-1.842,1.875-2.621,2.946
		c-0.335,0.214-0.702,0.311-1.1,0.295c-0.405-0.066-0.728-0.266-0.974-0.594c-0.42-0.696-0.533-1.47-0.57-2.261
		c-0.055-2.808,0.012-5.62-0.045-8.429c-0.022-1.146,0.199-2.385-0.901-3.231c-3.838-0.497-7.653-0.834-11.245,1.071
		c-0.073,0.355-0.146,0.698-0.189,1.056c-0.139,3.765-0.005,7.521-0.05,11.276c0.011,0.406-0.013,0.811-0.052,1.214
		c-0.014,0.614-0.024,1.229-0.053,1.845c-0.02,0.854-0.144,1.683-0.599,2.43c-0.875,0.782-1.741,1.313-2.518-0.112
		c-0.042-6.361-0.085-12.723-0.127-19.085c-0.32-0.501-0.319-0.992,0.042-1.474c0.015-0.542,0.029-1.083,0.044-1.625
		c1.337-0.776,2.814-0.537,4.243-0.538c116.581-0.011,233.163-0.012,349.742,0.006c1.532,0,3.158-0.364,4.536,0.714
		c-0.003,18.538-0.006,37.076-0.008,55.613c-1.606,1.223-3.481,0.73-5.241,0.732c-69.308,0.024-138.614,0.02-207.907,0.022
		c-0.376,0-0.767,0-1.139,0c-0.165,0.002-0.348,0.004-0.516,0.007c-0.46,0.016-0.924,0.075-1.312,0.38
		c-0.028,0.139-0.063,0.283-0.098,0.426c-0.439,1.164-0.879,2.33-1.318,3.495c-0.845-0.706-0.802-1.877-1.409-2.708
		c-0.601-0.726-1.596-0.892-2.223-1.579c-0.216-0.059-0.431-0.115-0.647-0.175c-1.27,0.225-2.552,0.125-3.83,0.149
		c-0.75,0.002-1.498,0.002-2.248,0.002c-2.112-0.051-4.227,0.115-6.333-0.128c-0.237,0.032-0.474,0.062-0.71,0.091
		c-3.825-0.004-7.65-0.008-11.475-0.014C135.734,81.271,134.023,81.232,132.312,80.689z"/>
	<path fill-rule="evenodd" clip-rule="evenodd" fill="#FEE006" d="M383.857,24.361c-1.428-0.121-2.855-0.348-4.283-0.348
		c-116.759-0.017-233.521-0.017-350.28-0.008c-1.319,0-2.638,0.113-3.958,0.174c0.502-0.418,0.947-1.048,1.521-1.203
		c0.786-0.213,1.671-0.069,2.513-0.069c116.757-0.001,233.515-0.006,350.271,0.051C381.07,22.959,383.167,21.804,383.857,24.361z"/>
	<path fill-rule="evenodd" clip-rule="evenodd" fill="#FEE006" d="M168.618,80.292c70.192,0,140.385,0.002,210.577-0.012
		c1.553,0,3.104-0.199,4.655-0.306c-0.554,0.488-1.044,1.256-1.678,1.403c-1.028,0.239-2.152,0.075-3.235,0.075
		c-68.747,0-137.497,0-206.245,0.005c-1.685,0-3.37,0.054-5.054,0.084l-0.213-0.03c0.081-0.281,0.157-0.563,0.227-0.848l0.038-0.04
		C168.017,80.565,168.226,80.174,168.618,80.292z"/>
	<path fill-rule="evenodd" clip-rule="evenodd" fill="#F7C607" d="M136.545,93.07c-0.106,1.025-0.213,2.051-0.373,3.586
		c-1.56,0-3.117,0-4.674,0c-0.952-3.152-0.953-6.306,0.002-9.458l0.081-0.081c2.668-0.892,5.326-1.048,7.967,0.109
		c0.36-0.007,0.72-0.016,1.08-0.023c1.79,1.209,1.019,2.799,0.646,4.331c-0.231,0.063-0.338,0.214-0.325,0.452
		c-0.085,0.18-0.17,0.361-0.255,0.54c-0.154-0.127-0.307-0.254-0.461-0.38c-0.921-0.004-1.844-0.008-2.765-0.012
		C137.221,92.508,136.907,92.813,136.545,93.07z"/>
	<path fill-rule="evenodd" clip-rule="evenodd" fill="#454132" d="M154.776,99.54c-3.221,0.021-6.442,0.039-9.662,0.061
		c-0.61,0.27-1.227,0.457-1.882,0.145c-0.899-0.919-0.937-1.922-0.289-2.988c0.315-0.038,0.631-0.078,0.947-0.117
		c0.436,0.213,0.89-0.182,1.327,0.037c1.539-0.006,3.078-0.014,4.617-0.023c1.032-1.794,0.438-3.755,0.565-5.641
		c0.089-1.307-0.099-2.654,0.723-3.818c1.821,0.435,1.821,0.435,2.082,4.217c1.054,0.2,2.165,0.41,4.049,0.767
		c-0.737,1.401-1.331,2.532-1.925,3.659c-0.126-0.064-0.252-0.128-0.379-0.191C154.892,96.944,154.834,98.241,154.776,99.54z"/>
	<path fill-rule="evenodd" clip-rule="evenodd" fill="#393837" d="M183.934,108.287c-1.697,0-3.088,0-4.537,0
		c0-1.603,0-3.001,0-4.583c1.546,0,2.932,0,4.537,0C183.934,105.24,183.934,106.622,183.934,108.287z"/>
	<path fill-rule="evenodd" clip-rule="evenodd" fill="#454132" d="M184.923,113.488c0,1.521,0,2.883,0,4.484
		c-1.458,0-2.822,0-4.49,0c0-1.354,0-2.796,0-4.484C181.773,113.488,183.135,113.488,184.923,113.488z"/>
	<path fill-rule="evenodd" clip-rule="evenodd" fill="#454132" d="M171.471,108.592c-0.054,1.157-0.107,2.315-0.17,3.637
		c-1.56,0-2.938,0-4.576,0c0-1.507,0-2.953,0-4.635c1.593-0.079,3.095-0.154,4.596-0.229
		C171.709,107.734,171.758,108.141,171.471,108.592z"/>
	<path fill-rule="evenodd" clip-rule="evenodd" fill="#454132" d="M174.125,120.943c-1.551,0-2.913,0-4.512,0
		c0-1.467,0-2.825,0-4.487c1.392,0,2.831,0,4.512,0C174.125,117.8,174.125,119.162,174.125,120.943z"/>
	<path fill-rule="evenodd" clip-rule="evenodd" fill="#22273B" d="M25.292,25.805c-0.014,0.491-0.028,0.982-0.042,1.474
		c-5.798-0.001-11.595-0.002-17.392-0.003c0.034-0.41,0.068-0.821,0.103-1.232C13.738,25.963,19.515,25.884,25.292,25.805z"/>
	<path fill-rule="evenodd" clip-rule="evenodd" fill="#393837" d="M177.485,94.979c1.619,0,2.988,0,4.5,0c0,1.563,0,2.926,0,4.489
		c-1.533,0-2.898,0-4.5,0C177.485,98.049,177.485,96.684,177.485,94.979z"/>
	<path fill-rule="evenodd" clip-rule="evenodd" fill="#454132" d="M159.633,82.433c0,1.519,0,2.812,0,4.411c-1.47,0-2.934,0-4.611,0
		c0-1.411,0-2.792,0-4.411C156.469,82.433,157.851,82.433,159.633,82.433z"/>
	<path fill-rule="evenodd" clip-rule="evenodd" fill="#454132" d="M154.863,103.561c-0.047-1.357-0.094-2.715-0.141-4.072
		c1.188,0.063,2.376,0.127,3.845,0.204c0,1.274,0,2.483,0,3.868C157.203,103.561,156.033,103.561,154.863,103.561z"/>
	<path fill-rule="evenodd" clip-rule="evenodd" fill="#22273B" d="M191.617,103.872c0,1.433,0,2.691,0,4.213
		c-1.363,0-2.705,0-4.285,0c0-1.329,0-2.67,0-4.213C188.763,103.872,190.108,103.872,191.617,103.872z"/>
	<path fill-rule="evenodd" clip-rule="evenodd" fill="#FEE006" d="M158.492,80.298c1.183,0.092,2.365,0.187,3.547,0.277
		c-4.137,0.01-8.275,0.018-12.412,0.023c2.145-0.101,4.291-0.2,6.436-0.301C156.873,80.395,157.682,80.392,158.492,80.298z"/>
	<path fill-rule="evenodd" clip-rule="evenodd" fill="#856B0A" d="M162.687,80.75c1.042,0.104,2.084,0.209,3.283,0.33
		c0.124,1.405,0.236,2.681,0.349,3.957c-1.122,0.053-2.243,0.104-3.632,0.168C162.687,83.486,162.687,82.117,162.687,80.75z"/>
	<path fill-rule="evenodd" clip-rule="evenodd" fill="#22273B" d="M145.217,96.677c-0.336,0.313-0.672,0.628-1.072,1.002
		c-0.092-0.376-0.174-0.707-0.255-1.039c0.005-3.14,0.012-6.281,0.018-9.418c0.401,0.692,1.097,1.364,1.149,2.082
		C145.233,91.753,145.182,94.217,145.217,96.677z"/>
	<path fill-rule="evenodd" clip-rule="evenodd" fill="#22273B" d="M151.123,87.194c0.008,2.336,0.13,4.679-0.037,7.001
		c-0.062,0.847-0.813,1.64-1.251,2.458c0.039-2.448-0.007-4.905,0.169-7.347C150.056,88.579,150.731,87.896,151.123,87.194z"/>
	<path fill-rule="evenodd" clip-rule="evenodd" fill="#22273B" d="M139.548,87.227c-2.655-0.036-5.312-0.073-7.967-0.109
		c0.815-0.444,1.606-1.202,2.451-1.268c2.321-0.177,4.665-0.063,7-0.063C140.538,86.266,140.042,86.746,139.548,87.227z"/>
	<path fill-rule="evenodd" clip-rule="evenodd" fill="#22273B" d="M141.273,91.534c-0.216-1.442-0.431-2.888-0.646-4.331
		c0.61,0.012,1.221,0.025,1.833,0.037C142.064,88.672,141.668,90.103,141.273,91.534z"/>
	<path fill-rule="evenodd" clip-rule="evenodd" fill="#D4AB0F" d="M141.288,83.628c0.633-0.437,1.267-0.871,1.9-1.309
		C142.555,82.757,141.921,83.191,141.288,83.628z"/>
	<path fill-rule="evenodd" clip-rule="evenodd" fill="#FAC807" d="M117.123,77.221c-0.497,0.71-0.994,1.422-1.491,2.134
		c-0.765,3.036-2.848,4.763-5.694,5.729c-8,4.532-16.586,5.664-25.173,2.741c-3.979-1.354-7.278-4.707-10.885-7.155
		c-1.309-0.927-2.008-2.341-2.886-3.615c-1.087-2.265-1.895-4.627-2.396-7.094c-0.059-1.283-0.336-2.529-0.653-3.771
		c-0.135-0.749-0.192-1.502-0.201-2.261c0.063-1.521-0.094-3.055,0.229-4.562c1.989-5.862,4.261-11.571,8.92-15.945
		c3.647-3.601,8.326-4.853,13.156-5.768c0.561-0.064,1.087,0.003,1.517,0.417c1.292,0.103,2.585,0.204,3.878,0.306
		c8.33-1.755,14.607,1.729,19.78,7.859c1.618,1.918,2.856,4.113,3.645,6.531c2.537,7.05,1.638,14.169,0.432,21.291
		C119.068,75.433,118.272,76.459,117.123,77.221z"/>
	<path fill-rule="evenodd" clip-rule="evenodd" fill="#F7C607" d="M63.569,82.225c0.004,1.9,0.008,3.799,0.012,5.699
		c0.237,0.19,0.303,0.359,0.198,0.505c-0.097,0.139-0.191,0.207-0.286,0.207c-0.193,0.182-0.386,0.366-0.579,0.547
		c-2.388,0.867-4.771,0.966-7.145-0.054c-0.002-0.249-0.122-0.411-0.358-0.489c-0.965-2.286,0.228-4.914-1.125-7.138
		c-4.327,4.354-9.112,7.512-15.621,7.771c-10.784,0.429-17.5-4.78-22.017-15.654c0.344-1.158,0.717-2.415,1.089-3.672
		c0.343-0.585,0.742-1.103,1.481-1.199c0.601-0.05,1.103,0.271,1.695,0.494c0.337-1.485-0.714-3.012,0.213-4.422
		c0.334-0.577,0.734-1.098,1.297-1.471c0.656-0.286,1.241-0.076,1.795,0.255c0.19,0.118,0.341,0.291,0.451,0.522
		c0.262-0.503,0.066-1.1,0.37-1.586c0.281-0.471,0.661-0.822,1.141-1.073c0.524-0.229,1.071-0.33,1.639-0.341
		c0.778,0.016,1.505,0.179,2.103,0.719c1.192,2.731,0.965,5.797,2.028,8.574c0.885,2.312,1.458,4.755,3.169,6.663
		c3.548,2.853,5.941,2.791,10.036-0.273c1.259-0.838,2.529-1.664,3.462-3.064c-1.514-0.512-2.943,0.198-4.297-0.274
		c-2.883-2.022-3.295-3.874-1.896-8.465c0.765-0.901,1.802-1.122,2.912-1.163c0.657-0.032,1.315-0.035,1.974-0.034
		c5.046,0.114,10.098-0.194,15.143,0.17c0.44,0.095,0.844,0.273,1.214,0.525c0.321,0.306,0.557,0.671,0.713,1.085
		c0.649,3.115,0.294,6.267,0.301,9.406c-0.029,0.573-0.125,1.144-0.261,1.702c-0.458,1.336-0.5,2.726-0.433,4.125
		C64.018,81.339,64.061,81.862,63.569,82.225z"/>
	<path fill-rule="evenodd" clip-rule="evenodd" fill="#D4AB0F" d="M21.021,55.528c-0.456-0.487-0.912-0.977-1.342-1.435
		c0.939-1.674,1.775-3.165,2.744-4.892c0.632,0.062,1.411,0.137,2.188,0.211c0.292-0.146,0.598-0.18,0.917-0.118
		c0.613,0.187,1.136,0.538,1.65,0.898c1.003,0.645,2.01-0.534,3.199,0.1c0.932,0.799,1.322,2.16,1.989,3.352
		c0.292,1.973-1.002,2.459-2.541,2.72c-0.688,0.078-1.375,0.22-2.075,0.137c-0.992-0.256-1.782-0.87-2.578-1.472
		c-0.455-0.363-0.835-0.833-1.437-0.981c-0.63-0.081-0.709,0.434-0.894,0.84C22.45,55.707,21.885,56.048,21.021,55.528z"/>
	<path fill-rule="evenodd" clip-rule="evenodd" fill="#0C0E0E" d="M63.617,80.727c-0.02-1.178-0.039-2.356-0.059-3.533
		c0.34-0.299,0.71-0.553,1.108-0.771c2.464-0.523,4.914-0.893,7.157,0.736c0.685,1.17,1.371,2.342,2.056,3.511
		c-3.163,0.014-6.325,0.025-9.487,0.039c-0.126,0.139-0.252,0.281-0.378,0.421C63.882,80.996,63.75,80.861,63.617,80.727z"/>
	<path fill-rule="evenodd" clip-rule="evenodd" fill="#D4AB0F" d="M22.568,63.502c-0.252,0.439-0.504,0.878-0.755,1.318
		c-1.621,0.881-1.339,3.112-2.876,4.053c-0.398,0.358-0.798,0.716-1.197,1.073c-0.462-2.35-0.925-4.7-1.388-7.051
		c0.275-0.007,0.55-0.015,0.825-0.021c0.852-0.803,1.705-1.606,2.558-2.408c0.379-0.385,0.818-0.392,1.289-0.209
		c0.841,0.749,0.87,1.917,1.444,2.806C22.502,63.209,22.535,63.354,22.568,63.502z"/>
	<path fill-rule="evenodd" clip-rule="evenodd" fill="#EDBF07" d="M113.889,95.95c1.543,0,3.086,0,4.815,0c0,1.517,0,2.905,0,4.856
		c-1.776-0.216-3.359-0.406-4.943-0.599C112.907,98.764,112.702,97.334,113.889,95.95z"/>
	<path fill-rule="evenodd" clip-rule="evenodd" fill="#FBC908" d="M142.943,96.757c0.123,0.931,0.245,1.86,0.368,2.792
		c0.715,3.042-0.748,3.179-3.006,2.251c-0.564-0.133-1.128-0.268-1.857-0.436c0-1.38,0-2.743,0-4.607
		C139.988,96.757,141.466,96.757,142.943,96.757z"/>
	<path fill-rule="evenodd" clip-rule="evenodd" fill="#EDBF07" d="M121.945,95.993c1.5,0,2.866,0,4.44,0c0,1.493,0,2.857,0,4.473
		c-1.426,0-2.793,0-4.44,0C121.945,99.072,121.945,97.625,121.945,95.993z"/>
	<path fill-rule="evenodd" clip-rule="evenodd" fill="#EDBF07" d="M110.77,87.896c0.019-0.439,0.039-0.882,0.058-1.321
		c-0.155-0.157-0.311-0.314-0.466-0.471c0.116-0.189,0.232-0.378,0.346-0.565c1.689-0.861,3.325-1.137,4.785,0.451
		c0.135,1.498,0.271,2.992,0.434,4.812c-1.944,0-3.461,0-4.978,0C109.827,89.899,110.141,88.907,110.77,87.896z"/>
	<path fill-rule="evenodd" clip-rule="evenodd" fill="#EDBF07" d="M128.389,91.763c-1.556,0-2.915,0-4.498,0
		c0-1.416,0-2.772,0-4.398c1.444,0,2.889,0,4.498,0C128.389,88.834,128.389,90.187,128.389,91.763z"/>
	<path fill-rule="evenodd" clip-rule="evenodd" fill="#FBC908" d="M104.291,94.454c-0.001-0.719-0.003-1.437-0.005-2.155
		c0.236-0.392,0.199-0.932,0.649-1.209c1.266,0,2.53,0,3.957,0c0,1.577,0,2.931,0,4.599c-1.439,0-2.7,0-3.96,0
		C104.483,95.398,104.522,94.855,104.291,94.454z"/>
	<path fill-rule="evenodd" clip-rule="evenodd" fill="#EDBF07" d="M21.141,60.548c-0.469-0.027-0.938-0.055-1.407-0.082
		c-0.575-0.694-1.151-1.39-1.982-2.394c1.146-0.892,2.208-1.718,3.27-2.544c0.49-0.146,0.98-0.29,1.469-0.435
		c2.452-1.43,2.078,1.298,3.042,2.059c0.156,0.322,0.239,0.665,0.254,1.022c-0.087,0.776-0.557,1.188-1.289,1.348
		C23.238,59.389,22.429,60.759,21.141,60.548z"/>
	<path fill-rule="evenodd" clip-rule="evenodd" fill="#454132" d="M115.492,85.99c-1.457-0.044-2.915-0.088-4.373-0.132
		c-0.396,0.24-0.788,0.228-1.172-0.031c-0.003-0.249-0.007-0.494-0.01-0.743c1.898-1.909,3.796-3.82,5.694-5.729
		c0.518,0.414,1.037,0.827,1.555,1.24c0.077,0.139,0.154,0.276,0.233,0.415c-0.006,0.158-0.012,0.316-0.014,0.473
		c-0.058,0.145-0.121,0.289-0.176,0.436c-0.88,1.125-0.411,2.758-1.432,3.83C115.7,85.831,115.597,85.913,115.492,85.99z"/>
	<path fill-rule="evenodd" clip-rule="evenodd" fill="#FAC807" d="M104.921,103.532c0,1.422,0,2.844,0,4.703c-1.588,0-3.094,0-4.6,0
		c-0.682-1.476-0.67-2.951-0.011-4.431l0.185-0.014l-0.016-0.187C101.951,102.968,103.432,103.01,104.921,103.532z"/>
	<path fill-rule="evenodd" clip-rule="evenodd" fill="#FBC908" d="M121.522,81.403c0,1.383,0,2.768,0,4.437
		c-1.681,0-3.169,0-4.657,0c-0.564-1.485-0.599-2.965,0.056-4.435l0.216,0.007C118.598,80.498,120.059,80.505,121.522,81.403z"/>
	<path fill-rule="evenodd" clip-rule="evenodd" fill="#D4AB0F" d="M124.698,80.292c1.661,0.121,3.32,0.242,4.98,0.363
		c-0.127,0.79-0.253,1.581-0.412,2.565c-1.905-0.215-4.224,1.479-4.919-1.786c-0.162-0.294-0.369-0.577-0.156-1.014
		C124.25,80.361,124.441,80.294,124.698,80.292z"/>
	<path fill-rule="evenodd" clip-rule="evenodd" fill="#EDBF07" d="M132.312,80.689c1.71-0.004,3.42-0.008,5.131-0.014
		c-0.124,0.773-0.247,1.547-0.389,2.44c-1.52,0-2.877,0-4.401,0C132.529,82.24,132.42,81.467,132.312,80.689z"/>
	<path fill-rule="evenodd" clip-rule="evenodd" fill="#22273B" d="M140.305,101.8c0.786-0.103,1.573-0.204,2.574-0.334
		c0.143-0.635,0.288-1.276,0.433-1.917c0.601,0.017,1.201,0.035,1.802,0.052c-0.085,1.5-0.171,2.997-0.269,4.709
		c-1.585,0.097-3.069,0.187-4.553,0.275C140.296,103.656,140.3,102.728,140.305,101.8z"/>
	<path fill-rule="evenodd" clip-rule="evenodd" fill="#22273B" d="M131.5,87.198c0,3.152-0.001,6.306-0.002,9.458
		C129.568,94.63,129.568,89.227,131.5,87.198z"/>
	<path fill-rule="evenodd" clip-rule="evenodd" fill="#D4AB0F" d="M25.377,46.363c0.703-0.052,1.406-0.103,2.109-0.154
		c0.692-0.854,1.449-1.556,2.85-1.052c1.327,2.25,0.112,3.272-2.025,3.86c-0.8,0.115-1.6,0.105-2.388-0.099
		c-0.38-0.116-0.717-0.313-1.01-0.584C25.068,47.678,25.223,47.02,25.377,46.363z"/>
	<path fill-rule="evenodd" clip-rule="evenodd" fill="#22273B" d="M54.287,81.502c0.401,0.62,1.092,1.217,1.144,1.867
		c0.139,1.744,0.006,3.513-0.019,5.271C53.092,86.565,54.814,83.857,54.287,81.502z"/>
	<path fill-rule="evenodd" clip-rule="evenodd" fill="#22273B" d="M116.921,81.405c-0.018,1.479-0.037,2.955-0.056,4.435
		c-0.355-0.032-0.71-0.061-1.066-0.092C116.173,84.301,116.547,82.853,116.921,81.405z"/>
	<path fill-rule="evenodd" clip-rule="evenodd" fill="#22273B" d="M100.31,103.805c0.003,1.478,0.007,2.953,0.011,4.431
		C98.353,106.762,98.386,105.286,100.31,103.805z"/>
	<path fill-rule="evenodd" clip-rule="evenodd" fill="#22273B" d="M104.921,103.532c-1.48,0.023-2.96,0.049-4.441,0.072
		C101.93,101.708,103.412,101.767,104.921,103.532z"/>
	<path fill-rule="evenodd" clip-rule="evenodd" fill="#22273B" d="M55.77,89.129c2.381,0.019,4.763,0.037,7.145,0.054
		C60.521,90.689,58.139,90.78,55.77,89.129z"/>
	<path fill-rule="evenodd" clip-rule="evenodd" fill="#22273B" d="M117.187,80.595c1.458-0.118,2.915-0.237,4.373-0.357
		c-0.031,0.174-0.054,0.348-0.069,0.523c-1.439,0.508-2.88,0.486-4.322,0.015L117.187,80.595z"/>
	<path fill-rule="evenodd" clip-rule="evenodd" fill="#22273B" d="M113.889,95.95c-0.043,1.42-0.085,2.839-0.128,4.258
		C112.36,98.747,112.184,97.32,113.889,95.95z"/>
	<path fill-rule="evenodd" clip-rule="evenodd" fill="#675A2A" d="M117.168,80.775c1.441-0.005,2.881-0.011,4.322-0.015
		c0.041,0.213,0.052,0.428,0.032,0.643c-1.461,0.002-2.923,0.006-4.385,0.009C117.131,81.199,117.142,80.986,117.168,80.775z"/>
	<path fill-rule="evenodd" clip-rule="evenodd" fill="#22273B" d="M110.77,87.896c0.059,0.969,0.119,1.937,0.179,2.905
		C110.889,89.833,110.829,88.865,110.77,87.896z"/>
	<path fill-rule="evenodd" clip-rule="evenodd" fill="#22273B" d="M124.698,80.292c-0.117,0.38-0.234,0.761-0.351,1.143
		c-0.242-0.411-0.483-0.821-0.725-1.232C123.98,80.233,124.339,80.263,124.698,80.292z"/>
	<path fill-rule="evenodd" clip-rule="evenodd" fill="#22273B" d="M63.617,80.727c0.258-0.006,0.517-0.012,0.775-0.018
		c-0.274,0.505-0.549,1.01-0.824,1.516C63.584,81.726,63.601,81.226,63.617,80.727z"/>
	<path fill-rule="evenodd" clip-rule="evenodd" fill="#D4AB0F" d="M104.291,94.454c0.213,0.412,0.427,0.823,0.64,1.234
		C104.718,95.277,104.504,94.866,104.291,94.454z"/>
	<path fill-rule="evenodd" clip-rule="evenodd" fill="#D4AB0F" d="M104.935,91.09c-0.216,0.402-0.433,0.807-0.649,1.209
		C104.502,91.896,104.719,91.492,104.935,91.09z"/>
	<path fill-rule="evenodd" clip-rule="evenodd" fill="#675A2A" d="M25.242,49.749c-0.21-0.111-0.42-0.224-0.631-0.336
		c0.101-0.358,0.202-0.719,0.302-1.078c0.187-0.131,0.336-0.099,0.448,0.1C25.752,48.912,25.726,49.352,25.242,49.749z"/>
	<path fill-rule="evenodd" clip-rule="evenodd" fill="#22273B" d="M136.545,93.07c0.307-0.312,0.614-0.623,0.921-0.936
		C137.16,92.447,136.852,92.759,136.545,93.07z"/>
	<path fill-rule="evenodd" clip-rule="evenodd" fill="#22273B" d="M140.232,92.146c0.239-0.054,0.478-0.107,0.716-0.16
		c-0.082,0.201-0.165,0.399-0.249,0.604C140.539,92.438,140.386,92.291,140.232,92.146z"/>
	<path fill-rule="evenodd" clip-rule="evenodd" fill="#22273B" d="M109.947,85.827c0.391,0.011,0.782,0.021,1.172,0.031
		c-0.097,0.238-0.194,0.476-0.292,0.717C110.534,86.326,110.241,86.075,109.947,85.827z"/>
	<path fill-rule="evenodd" clip-rule="evenodd" fill="#22273B" d="M63.493,88.636c0.03-0.237,0.059-0.474,0.088-0.712
		c0.146,0.134,0.291,0.27,0.447,0.413C63.84,88.442,63.667,88.537,63.493,88.636z"/>
	<path fill-rule="evenodd" clip-rule="evenodd" fill="#696969" d="M88.379,123.638c0,6.687-4.006,10.699-10.694,10.712
		c-6.414,0.011-11.071-4.469-11.077-10.656c-0.006-5.811,5.123-11.299,10.593-10.984C85.146,113.166,88.754,118.1,88.379,123.638z"
		/>
	<path fill-rule="evenodd" clip-rule="evenodd" fill="#696969" d="M127.243,134.35c-6.366,0.005-10.862-4.525-10.817-10.894
		c0.04-5.658,4.718-10.904,10.046-10.775c7.446,0.181,11.772,4.708,11.725,10.949C138.15,130.102,133.871,134.345,127.243,134.35z"
		/>
	<path fill-rule="evenodd" clip-rule="evenodd" fill="#696969" d="M303.572,124.574c-0.022-6.025,4.374-10.594,10.254-10.658
		c6.76-0.071,11.431,4.284,11.481,10.706c0.046,5.945-5.05,11.042-10.997,11.002C308.011,135.582,303.597,131.039,303.572,124.574z"
		/>
	<path fill-rule="evenodd" clip-rule="evenodd" fill="#4C617B" d="M290.023,27.239c-0.005,11.54-0.011,23.08-0.017,34.621
		c-0.543,0.608-1.238,0.771-2.015,0.697c-1.626-0.655-2.841,0.559-4.241,0.947c-11.758,1.17-23.518,1.199-35.281,0.222
		c-1.086-0.091-2.165-0.229-2.963-1.112c-0.829-2.716-0.357-5.5-0.384-8.249c-0.074-7.586-0.041-15.173-0.014-22.759
		c0.006-1.425-0.258-2.899,0.46-4.21c0.975-1.07,2.239-0.857,3.418-0.859c12.523-0.023,25.047-0.018,37.571-0.008
		C287.758,26.529,288.986,26.433,290.023,27.239z"/>
	<path fill-rule="evenodd" clip-rule="evenodd" fill="#4B6079" d="M195.141,56.065c0-9.836,0-19.672,0-29.836
		c15.017,0,29.938,0,45.343,0c0,12.177,0,24.364,0,36.55c-0.385,0.182-0.787,0.254-1.21,0.225
		c-14.439-0.744-28.747-2.52-42.894-5.547C195.764,57.174,195.57,56.516,195.141,56.065z"/>
	<path fill-rule="evenodd" clip-rule="evenodd" fill="#4C617B" d="M339.775,27.244c-0.021,7.967-0.046,15.932-0.068,23.897
		c-1.274,1.646-3.21,2.046-5.038,2.589c-11.88,3.531-23.898,6.448-36.206,8.066c-1.424,0.188-2.866,0.583-4.119-0.528
		c-0.021-11.34-0.044-22.68-0.066-34.021c1.018-0.872,2.259-0.715,3.446-0.717c12.868-0.014,25.736-0.014,38.604,0
		C337.519,26.532,338.755,26.389,339.775,27.244z"/>
	<path fill-rule="evenodd" clip-rule="evenodd" fill="#4B607A" d="M145.282,44.529c0.019-5.761,0.039-11.522,0.058-17.284
		c1.136-0.929,2.499-0.711,3.799-0.713c11.393-0.017,22.787-0.003,34.18-0.015c2.041-0.002,4.037,0.299,6.586,0.697
		c0.479,8.903,0.272,17.847,0.125,26.785c-1.22,2.292-3.264,1.537-5.06,1.227c-10.855-1.878-21.454-4.839-32.014-7.906
		C150.36,46.565,147.478,46.439,145.282,44.529z"/>
	<path fill-rule="evenodd" clip-rule="evenodd" fill="#8999A1" d="M145.282,44.529c6.694,1.714,13.359,3.556,20.09,5.105
		c7.997,1.839,16.052,3.427,24.082,5.123c0.417-0.486,0.804-0.457,1.161,0.068c0.052,5.25,0.102,10.5,0.153,15.749
		c-0.439,0.439-0.948,0.75-1.569,0.856c-6.969-0.463-13.578-2.741-20.359-4.149c-7.261-1.507-14.356-3.724-21.57-5.45
		c-1.008-0.331-1.224-1.431-1.961-2.03C145.299,54.712,145.29,49.621,145.282,44.529z"/>
	<path fill-rule="evenodd" clip-rule="evenodd" fill="#8999A1" d="M294.344,61.269c11.797-2.399,23.608-4.738,35.384-7.24
		c3.378-0.719,6.657-1.91,9.979-2.887c-0.021,5.498-0.041,10.996-0.062,16.494c-3.061,2.09-6.735,2.384-10.159,3.311
		c-11.092,3-22.318,5.355-33.818,6.146c-0.495-0.729-1.406-1.45-1.421-2.188C294.167,70.362,294.29,65.814,294.344,61.269z"/>
	<path fill-rule="evenodd" clip-rule="evenodd" fill="#4C617B" d="M344.061,76.372c-0.003-3.586-0.007-7.171-0.01-10.758
		c0.264-0.264,0.542-0.51,0.836-0.739c6.272-2.792,12.939-4.508,19.307-7.058c4.473-1.789,8.817-3.867,13.278-5.669
		c1.3-0.524,2.578-1.482,4.054-0.429c0.029,8.233,0.06,16.468,0.09,24.701c-0.208,0.242-0.422,0.479-0.642,0.709
		c-12.038,0.012-24.078,0.021-36.116,0.031C344.625,76.865,344.362,76.598,344.061,76.372z"/>
	<path fill-rule="evenodd" clip-rule="evenodd" fill="#8999A1" d="M195.975,56.818c5.779,0.787,11.549,1.64,17.335,2.345
		c8.029,0.979,16.072,1.832,24.104,2.784c0.869,0.103,1.703,0.506,2.554,0.771c-0.243,4.813,0.858,9.688-0.662,14.443
		c-2.406-0.01-4.813-0.022-7.22-0.035c-4.063-0.793-8.244-0.208-12.302-1.048c-6.963-0.352-13.826-1.558-20.739-2.333
		c-1.482-0.167-2.79-0.681-3.935-1.623c0.007-0.245,0.014-0.491,0.021-0.736C195.683,66.545,194.381,61.598,195.975,56.818z"/>
	<path fill-rule="evenodd" clip-rule="evenodd" fill="#8999A1" d="M287.718,61.896c0.763-0.012,1.524-0.023,2.289-0.035
		c-0.011,0.259-0.021,0.518-0.033,0.778c-0.307,0.082-0.404,0.271-0.274,0.561c0.065,0.146,0.174,0.21,0.293,0.21
		c0.004,4.316,0.008,8.632,0.013,12.949c-0.329,0.213-0.59,0.496-0.832,0.797c-14.447,0.006-28.897,0.013-43.346,0.02
		c-1.412-2.569-0.496-5.353-0.708-8.03c-0.16-2.008,0.112-4.038-0.196-6.047c0.08-0.201,0.16-0.401,0.242-0.603
		c0.216-0.002,0.432-0.004,0.647-0.006c13.016,0.004,26.033,0.008,39.05,0.011C285.714,61.827,286.74,61.98,287.718,61.896z"/>
	<path fill-rule="evenodd" clip-rule="evenodd" fill="#8A99A0" d="M90.476,38.265c-4.557,1.322-9.257,2.319-12.893,5.721
		c-4.219,0.656-8.34-0.479-12.506-0.741c-5.249-0.329-10.48-0.925-15.732-1.25c-1.105-0.065-2.229-0.061-3.109-0.898
		c0.226-4.496-0.056-9.014,0.221-13.448c3.015-2.102,6.332-0.444,9.233-1.447c3.099,0.033,6.199,0.067,9.297,0.102
		c4.985,0.42,9.988,0.659,14.94,1.405c1.317,0.063,2.574,0.376,3.776,0.908c0.663,0.265,1.321,0.545,2.056,0.559
		c0.934,0.078,1.865,0.164,2.771,0.434c0.942,0.377,1.97,0.634,2.424,1.705C91.083,33.65,91.627,36.017,90.476,38.265z"/>
	<path fill-rule="evenodd" clip-rule="evenodd" fill="#8999A1" d="M381.525,51.72c-5.941,2.427-11.832,4.991-17.839,7.244
		c-6.23,2.336-12.571,4.371-18.863,6.537c-0.467-0.357-0.246-1.084-0.761-1.415c-0.001-4.324-0.001-8.648-0.002-12.973
		c0.257-0.092,0.368-0.275,0.302-0.54c-0.036-0.142-0.144-0.206-0.265-0.206c-0.017-0.254-0.032-0.508-0.049-0.762
		c1.979-1.985,4.713-2.333,7.177-3.197c5.898-2.068,11.562-4.755,17.54-6.6c4.149,0,8.298,0,12.76,0
		C381.525,43.747,381.525,47.733,381.525,51.72z"/>
	<path fill-rule="evenodd" clip-rule="evenodd" fill="#8A99A0" d="M117.991,52.583c-4.533-9.469-11.933-14.389-22.547-14.205
		c0.067-2.236,0.135-4.473,0.202-6.71c0.758-0.856,1.716-0.72,2.665-0.505c13.675,3.105,27.354,6.195,40.792,10.249
		c0.703,0.213,1.331,0.533,1.849,1.058c0.044,5.303,0.088,10.606,0.133,15.91c-1.053,0.828-2.224,0.754-3.417,0.429
		c-5.654-1.544-11.343-2.952-16.986-4.536C119.604,53.97,118.724,53.407,117.991,52.583z"/>
	<path fill-rule="evenodd" clip-rule="evenodd" fill="#4D627B" d="M146.973,61.108c3.363,0.732,6.731,1.434,10.086,2.202
		c10.789,2.465,21.574,4.955,32.36,7.435c1.135,2.13,1.091,4.266,0.018,6.402c-14.451,0-28.901-0.002-43.353-0.002
		c-0.217-0.28-0.474-0.522-0.74-0.754c0.008-5.061,0.016-10.12,0.024-15.18C145.876,60.779,146.414,60.782,146.973,61.108z"/>
	<path fill-rule="evenodd" clip-rule="evenodd" fill="#4E637A" d="M117.991,52.583c6.759,1.811,13.514,3.634,20.281,5.414
		c0.908,0.238,1.874,0.26,2.813,0.383c0,6.112,0,12.226,0,18.841c-8.179,0-16.07,0-23.962,0
		C120.055,69.101,120.288,60.887,117.991,52.583z"/>
	<path fill-rule="evenodd" clip-rule="evenodd" fill="#4D627B" d="M140.951,42.47c-5.911-1.462-11.811-2.97-17.736-4.375
		c-9.181-2.179-18.378-4.288-27.569-6.427c-0.021-1.472-0.043-2.941-0.066-4.413c1.004-0.904,2.25-0.72,3.435-0.722
		c12.861-0.016,25.722-0.015,38.583-0.003c1.192,0.001,2.425-0.125,3.453,0.707C141.018,32.315,140.984,37.393,140.951,42.47z"/>
	<path fill-rule="evenodd" clip-rule="evenodd" fill="#4B6079" d="M344.128,33.429c0-2.455,0-4.703,0-7.241
		c12.395,0,24.706,0,37.317,0c0,2.291,0,4.618,0,7.241C369.201,33.429,356.888,33.429,344.128,33.429z"/>
	<path fill-rule="evenodd" clip-rule="evenodd" fill="#4E637A" d="M295.668,77.093c5.698-1.126,11.419-2.143,17.087-3.406
		c7.692-1.713,15.34-3.628,23.014-5.423c1.272-0.297,2.584-0.424,3.877-0.628c0,3.071,0,6.143,0,9.457
		C324.825,77.093,310.246,77.093,295.668,77.093z"/>
	<path fill-rule="evenodd" clip-rule="evenodd" fill="#8999A1" d="M27.615,27.988c0.44-0.532,0.86-1.505,1.325-1.527
		c3.89-0.184,7.788-0.193,11.685-0.255c1.275,4.093,0.393,8.29,0.61,12.432c-0.053,1.049-0.343,2.021-0.952,2.887
		c-0.383,0.458-0.889,0.639-1.471,0.626c-1.088-0.124-1.829-1.142-3.071-1.172c-1.42-0.138-2.191,1.097-3.229,1.852
		c-0.791,0.397-1.637,0.466-2.502,0.431c-0.527-0.029-1.032-0.147-1.506-0.381c-0.469-0.276-0.626-0.812-0.98-1.185
		c0.001-4.334,0.001-8.668,0.002-13.002c0.193-0.135,0.271-0.283,0.233-0.447C27.719,28.074,27.671,27.988,27.615,27.988z"/>
	<path fill-rule="evenodd" clip-rule="evenodd" fill="#4D627B" d="M368.766,39.809c-2.421,1.221-4.758,2.661-7.278,3.617
		c-5.764,2.186-11.62,4.135-17.438,6.18c0-3.208,0-6.416,0-9.797C352.508,39.809,360.637,39.809,368.766,39.809z"/>
	<path fill-rule="evenodd" clip-rule="evenodd" fill="#4B6079" d="M245.813,62.489c-0.234,0.128-0.47,0.255-0.706,0.383
		c-0.159-0.029-0.318-0.059-0.478-0.089c0-12.127,0-24.256,0-36.59c0.915-0.105,1.716-0.279,2.517-0.281
		c13.243-0.017,26.485-0.042,39.726,0.047c1.055,0.006,2.101,0.834,3.152,1.28c-14.548,0-29.097,0-44.211,0
		C245.813,39.228,245.813,50.858,245.813,62.489z"/>
	<path fill-rule="evenodd" clip-rule="evenodd" fill="#526884" d="M190.614,54.826c-0.387-0.023-0.774-0.046-1.161-0.068
		c0-8.979,0-17.956,0-27.513c-14.937,0-29.525,0-44.113,0c0.565-0.436,1.133-1.254,1.696-1.25
		c14.206,0.078,28.41,0.242,42.615,0.398c0.104,0.001,0.208,0.111,0.901,0.503C191.073,35.963,190.974,45.392,190.614,54.826z"/>
	<path fill-rule="evenodd" clip-rule="evenodd" fill="#4E637A" d="M195.11,72.122c8.229,1.184,16.458,2.367,24.687,3.55
		c0.273,0.426,0.231,0.82-0.126,1.179c-7.906,0.103-15.812,0.207-23.72,0.309c-0.898-1.101,0.255-2.662-0.838-3.719
		C195.112,73.002,195.111,72.562,195.11,72.122z"/>
	<path fill-rule="evenodd" clip-rule="evenodd" fill="#696969" d="M29.732,42.56c1.053-0.09,2.106-0.179,3.159-0.268
		c1.669-1.222,3.522-0.807,5.352-0.597c0.595-0.056,1.189-0.11,1.785-0.165c0.754-0.493,1.443-0.398,2.074,0.229
		c0.237-0.005,0.474,0.003,0.71,0.025c0.568,0.297,1.035,0.674,1.055,1.388c-0.015,0.306-0.096,0.596-0.233,0.869
		c-0.579,0.68-0.942,1.519-1.561,2.179c-0.279,0.154-0.575,0.25-0.887,0.309c-1.752,1.392-4.545-0.665-5.959,1.819
		c-0.282,0.637-0.75,1.006-1.471,1.012c-0.425-0.044-0.812-0.181-1.122-0.425c-0.258-0.365,0.341-0.337-0.107-0.158
		c-0.038,0.016-0.052,0.109-0.04,0.281c0.012,0.185,0.039,0.277,0.088,0.296c0.187,0.92,0.211,1.822,0.053,2.733
		c-0.123,0.52-0.349,0.974-0.814,1.272c-0.748-0.871-1.497-1.741-2.417-2.813c-0.542,0.514-1.241,1.178-2.203,2.09
		c-0.12-0.868-0.204-1.482-0.288-2.097c-0.112-0.735-0.087-1.435,0.541-1.967c1.089-0.586,2.179-1.172,3.268-1.758
		c-0.148-0.368-0.295-0.737-0.443-1.106c-0.929,0.166-1.856,0.332-2.784,0.499c0.015-0.849,0.03-1.697,0.044-2.544
		C28.209,43.187,29.095,43.122,29.732,42.56z"/>
	<path fill-rule="evenodd" clip-rule="evenodd" fill="#465971" d="M141.051,27.237c-15.158,0.007-30.314,0.013-45.471,0.018
		c0.653-0.459,1.304-1.315,1.96-1.318c13.827-0.077,27.656-0.078,41.483-0.001C139.701,25.939,140.375,26.784,141.051,27.237z"/>
	<path fill-rule="evenodd" clip-rule="evenodd" fill="#465971" d="M339.775,27.244c-15.166,0.002-30.332,0.003-45.498,0.004
		c0.664-0.456,1.323-1.308,1.988-1.312c13.835-0.077,27.671-0.077,41.505,0C338.441,25.939,339.107,26.789,339.775,27.244z"/>
	<path fill-rule="evenodd" clip-rule="evenodd" fill="#526884" d="M80.299,28.688c-5.104-0.795-10.208-1.591-15.313-2.386
		c8.672,0,17.344,0,26.374,0c0,1.504,0,3.103,0,4.701c-0.343,0.162-0.656,0.116-0.939-0.136c-0.711-0.271-1.421-0.542-2.132-0.812
		c-0.262-0.807,0.708-0.767,0.989-1.579C86.215,28.371,83.269,27.392,80.299,28.688z"/>
	<path fill-rule="evenodd" clip-rule="evenodd" fill="#97A7B0" d="M55.689,26.2c-1.152,0.348-2.285,0.865-3.462,1.001
		c-1.519,0.174-3.072,0.042-4.672,0.042c-0.461,4.796-0.891,9.253-1.32,13.709c-0.125,0.071-0.251,0.143-0.377,0.214
		c-0.296-0.073-0.504-0.249-0.627-0.528c-0.094-0.458-0.004-0.85,0.409-1.124c0-4.351,0-8.699,0-13.313
		C49.377,26.2,52.533,26.2,55.689,26.2z"/>
	<path fill-rule="evenodd" clip-rule="evenodd" fill="#97A7B0" d="M239.306,77.161c0.002-3.693-0.048-7.388,0.033-11.079
		c0.025-1.126,0.41-2.243,0.629-3.364c0.167,0.059,0.339,0.079,0.516,0.062c0.023,4.022,0.115,8.046,0.016,12.066
		C240.479,75.627,239.723,76.392,239.306,77.161z"/>
	<path fill-rule="evenodd" clip-rule="evenodd" fill="#97A7B0" d="M244.629,62.783c0.158,0.037,0.317,0.066,0.478,0.089
		c0.237,3.357,0.502,6.712,0.698,10.071c0.082,1.405,0.019,2.82,0.022,4.231c-0.436-0.637-1.234-1.269-1.247-1.914
		C244.501,71.104,244.594,66.943,244.629,62.783z"/>
	<path fill-rule="evenodd" clip-rule="evenodd" fill="#97A7B0" d="M195.975,56.818c-0.009,3.771,0.041,7.544-0.064,11.313
		c-0.03,1.092-0.507,2.171-0.779,3.255c0.003-5.107,0.007-10.214,0.009-15.32C195.419,56.317,195.697,56.567,195.975,56.818z"/>
	<path fill-rule="evenodd" clip-rule="evenodd" fill="#97A7B0" d="M40.514,39.4c0.037-4.397,0.074-8.796,0.111-13.194
		c0.406,0.849,1.139,1.686,1.162,2.544c0.1,3.604-0.013,7.215-0.048,10.824C41.274,39.904,40.862,39.884,40.514,39.4z"/>
	<path fill-rule="evenodd" clip-rule="evenodd" fill="#526884" d="M219.671,76.851c0.043-0.392,0.084-0.786,0.126-1.179
		c4.096,0.485,8.192,0.971,12.289,1.454C227.948,77.034,223.81,76.942,219.671,76.851z"/>
	<path fill-rule="evenodd" clip-rule="evenodd" fill="#97A7B0" d="M90.422,30.867c0.313,0.045,0.626,0.091,0.939,0.136
		c0.068,2.356,0.137,4.714,0.205,7.069c-0.363,0.064-0.727,0.129-1.09,0.192C90.458,35.799,90.439,33.333,90.422,30.867z"/>
	<path fill-rule="evenodd" clip-rule="evenodd" fill="#526884" d="M189.436,77.147c-0.005-2.135-0.012-4.269-0.018-6.402
		c0.45-0.057,0.899-0.113,1.349-0.17c0.025,1.672,0.168,3.355,0.009,5.01C190.723,76.142,189.905,76.627,189.436,77.147z"/>
	<path fill-rule="evenodd" clip-rule="evenodd" fill="#BDA430" d="M40.514,39.4c0.409,0.058,0.816,0.115,1.225,0.174
		c0.121,0.729,0.242,1.457,0.363,2.186c-0.692-0.077-1.383-0.153-2.074-0.229C40.189,40.82,40.351,40.11,40.514,39.4z"/>
	<path fill-rule="evenodd" clip-rule="evenodd" fill="#0C0E0E" d="M43.386,42.854c-0.191-0.357-0.383-0.714-0.574-1.069
		c0.177-0.063,0.357-0.083,0.543-0.064c0.67-0.588,1.286-1.323,2.343-0.87c0.073,0.115,0.178,0.175,0.314,0.178
		c0.128,0.284,0.204,0.58,0.223,0.894c-0.013,0.315-0.074,0.622-0.183,0.92c-0.148,0.289-0.36,0.519-0.639,0.685
		c-0.303,0.114-0.616,0.168-0.94,0.157C43.965,43.599,43.605,43.318,43.386,42.854z"/>
	<path fill-rule="evenodd" clip-rule="evenodd" fill="#856B0A" d="M45.698,40.851c-0.78,0.29-1.562,0.58-2.343,0.87
		c0.058-0.579,0.116-1.16,0.194-1.938c0.753-0.098,1.422-0.184,2.091-0.27C45.66,39.959,45.679,40.404,45.698,40.851z"/>
	<path fill-rule="evenodd" clip-rule="evenodd" fill="#BDA430" d="M29.732,42.56c-0.733,0.368-1.468,0.736-2.201,1.105
		c-0.002-0.315-0.005-0.63-0.008-0.946c0.113-0.413,0.371-0.515,0.751-0.35C28.76,42.433,29.246,42.496,29.732,42.56z"/>
	<path fill-rule="evenodd" clip-rule="evenodd" fill="#526884" d="M195.113,73.44c0.28,1.24,0.559,2.478,0.838,3.719
		C195.672,75.918,195.393,74.681,195.113,73.44z"/>
	<path fill-rule="evenodd" clip-rule="evenodd" fill="#526884" d="M146.973,61.108c-0.535,0.035-1.07,0.069-1.605,0.104
		c-0.021-0.469-0.041-0.939-0.061-1.41C145.863,60.237,146.417,60.673,146.973,61.108z"/>
	<path fill-rule="evenodd" clip-rule="evenodd" fill="#856B0A" d="M158.492,80.298c-0.81,0-1.62,0-2.429,0
		C156.873,80.298,157.682,80.298,158.492,80.298z"/>
	<path fill-rule="evenodd" clip-rule="evenodd" fill="#97A7B0" d="M344.063,64.086c0.254,0.472,0.507,0.944,0.761,1.415
		c-0.258,0.038-0.515,0.075-0.772,0.113C344.055,65.105,344.06,64.596,344.063,64.086z"/>
	<path fill-rule="evenodd" clip-rule="evenodd" fill="#856B0A" d="M168.618,80.292c-0.31,0.113-0.62,0.224-0.929,0.334
		C167.998,80.514,168.308,80.405,168.618,80.292z"/>
	<path fill-rule="evenodd" clip-rule="evenodd" fill="#856B0A" d="M167.651,80.664c-0.076,0.284-0.151,0.566-0.227,0.848
		C167.5,81.23,167.575,80.946,167.651,80.664z"/>
	<path fill-rule="evenodd" clip-rule="evenodd" fill="#526884" d="M145.344,76.392c0.246,0.251,0.493,0.503,0.74,0.754
		C145.837,76.895,145.59,76.643,145.344,76.392z"/>
	<path fill-rule="evenodd" clip-rule="evenodd" fill="#526884" d="M380.974,77.13c0.213-0.237,0.428-0.472,0.642-0.709
		C381.401,76.658,381.187,76.893,380.974,77.13z"/>
	<path fill-rule="evenodd" clip-rule="evenodd" fill="#97A7B0" d="M27.615,27.988c0.069,0.176,0.158,0.349,0.193,0.531
		c0.007,0.039-0.185,0.115-0.284,0.174C27.554,28.459,27.584,28.224,27.615,27.988z"/>
	<path fill-rule="evenodd" clip-rule="evenodd" fill="#97A7B0" d="M289.992,63.409c-0.152-0.123-0.305-0.246-0.467-0.376
		c0.155-0.137,0.301-0.266,0.448-0.395C289.979,62.896,289.986,63.152,289.992,63.409z"/>
	<path fill-rule="evenodd" clip-rule="evenodd" fill="#97A7B0" d="M28.274,42.369c-0.251,0.116-0.501,0.233-0.751,0.35
		c0-0.341-0.001-0.682-0.001-1.023C27.772,41.92,28.023,42.145,28.274,42.369z"/>
	<path fill-rule="evenodd" clip-rule="evenodd" fill="#97A7B0" d="M344.098,50.367c0.135,0.128,0.271,0.256,0.412,0.39
		c-0.155,0.124-0.303,0.24-0.449,0.356C344.072,50.865,344.086,50.616,344.098,50.367z"/>
	<path fill-rule="evenodd" clip-rule="evenodd" fill="#526884" d="M344.061,76.372c0.265,0.264,0.53,0.526,0.797,0.789
		C344.591,76.898,344.325,76.636,344.061,76.372z"/>
	<path fill-rule="evenodd" clip-rule="evenodd" fill="#97A7B0" d="M289.173,77.155c0.276-0.267,0.553-0.532,0.832-0.797
		C289.726,76.623,289.449,76.889,289.173,77.155z"/>
	<path fill-rule="evenodd" clip-rule="evenodd" fill="#393837" d="M158.626,84.528c-0.619,0.525-0.952,0.986-1.375,1.096
		c-0.223,0.059-0.912-0.602-0.86-0.739c0.163-0.437,0.514-0.9,0.918-1.104C157.504,83.682,157.981,84.144,158.626,84.528z"/>
	<path fill-rule="evenodd" clip-rule="evenodd" fill="#506377" d="M45.266,43.396c0.158-0.074,0.322-0.124,0.494-0.149
		c0.71-1.257,2.256-1.227,3.22-2.092c7.591,0.563,15.186,1.078,22.771,1.721c1.961,0.167,3.89,0.729,5.833,1.109
		c-4.508,4.013-6.415,9.509-8.497,14.906c-1.237,1.73-1.013,3.502-0.149,5.292c-0.001,0.672-0.001,1.342-0.002,2.014
		c-0.742,1.496,0.197,3.113-0.51,4.281c-0.116-0.243,0.164-0.459,0.72-0.495c0.893,2.393,1.786,4.783,2.679,7.176
		c-2.473-0.012-4.946-0.021-7.42-0.031c-0.481-0.388-0.259-1.187-0.873-1.497c-0.002-3.349-0.004-6.695-0.006-10.042
		c0.587-0.401,0.241-0.545-0.184-0.668c-0.188,0.029-0.323-0.043-0.404-0.217c-3.217-1.228-6.565-0.301-9.837-0.605
		c-2.09-0.194-4.271,0.536-6.271-0.604c-1.632-4.73-0.483-9.598-0.711-14.39c0.039-0.396,0.145-0.782,0.305-1.147
		c0.698-1.42,2.559-1.29,3.404-2.525c0.388-0.394,0.796-0.767,1.426-1.076c-0.709,0.19-0.998,0.696-1.409,1.054
		c-0.813,0.78-1.783,1.188-2.902,1.26c-0.594,0-1.137-0.156-1.615-0.521C44.756,45.244,43.748,44.345,45.266,43.396z"/>
	<path fill-rule="evenodd" clip-rule="evenodd" fill="#4E637A" d="M95.48,48.45c6.586,1.306,9.78,5.928,11.175,11.952
		c1.428,6.172,0.253,13.663-5.823,16.953c-1.728,0.521-3.456,1.111-5.14,0.073c-1.25-1.134-1.343-2.598-1.361-4.035
		c-0.092-7.091-0.085-14.183-0.004-21.274C94.342,50.804,94.392,49.451,95.48,48.45z"/>
	<path fill-rule="evenodd" clip-rule="evenodd" fill="#506377" d="M88.23,77.348c-5.112-4.436-7.665-9.94-6.781-16.766
		c0.781-6.029,3.322-10.699,9.926-11.939c0.324,0.619,0.327,1.268,0.18,1.93c-0.284,7.292-0.027,14.587-0.13,21.88
		c-0.022,1.536,0.221,3.129-0.671,4.545C90.014,77.84,89.121,77.585,88.23,77.348z"/>
	<path fill-rule="evenodd" clip-rule="evenodd" fill="#0C0E0E" d="M91.233,49.593c0.047-0.316,0.094-0.634,0.142-0.95
		c1.368-0.064,2.737-0.128,4.105-0.192c0,9.452,0,18.906,0,28.532c2.063,0.144,3.707,0.259,5.352,0.373
		c-3.862,2.832-9.448,2.828-12.602-0.008c0.727-0.073,1.454-0.145,2.181-0.22c0.847-7.526,0.123-15.081,0.401-22.617
		C90.872,52.871,90.333,51.163,91.233,49.593z"/>
	<path fill-rule="evenodd" clip-rule="evenodd" fill="#4B607A" d="M69.145,69.983c-0.247,0.238-0.494,0.477-0.74,0.715
		c-0.213-0.039-0.425-0.077-0.639-0.115c0.39-1.463,0.779-2.924,1.169-4.386C69.005,67.459,69.076,68.721,69.145,69.983z"/>
	<path fill-rule="evenodd" clip-rule="evenodd" fill="#4B607A" d="M68.937,64.184c-1.426-1.806-1.461-3.571,0.149-5.292
		C69.037,60.656,68.987,62.42,68.937,64.184z"/>
	<path fill-rule="evenodd" clip-rule="evenodd" fill="#4E637A" d="M33.663,48.948c0.384-0.351,0.767-0.702,1.15-1.054
		c2.102-1.076,3.958-0.387,5.75,0.795c0.523,0.54,0.861,1.209,0.866,1.938c0.067,8.654,0.561,17.315-0.262,25.961
		c-1.077,1.718-2.754,1.479-4.398,1.34c-0.565,0.078-0.99-0.771-1.632-0.244c-0.22,0.235-0.473,0.271-0.755,0.143
		c-3.502-4.686-4.364-10.244-5.224-15.804c-0.371-1.056,0.43-2.216-0.297-3.236c-0.126-0.282-0.189-0.581-0.191-0.887
		c0.042-0.14,0.088-0.282,0.127-0.419c0.488-0.436-0.244-0.655-0.195-1.021c0.044-0.504,0.279-0.851,0.783-0.983
		c1.945,0.598,2.344-0.58,2.43-2.116c0.015-0.478,0.03-0.956,0.045-1.434C32.999,51.26,32.013,49.306,33.663,48.948z"/>
	<path fill-rule="evenodd" clip-rule="evenodd" fill="#060708" d="M34.381,77.826c0.138-0.208,0.276-0.414,0.415-0.621
		c0.21-0.309,0.443-0.313,0.695-0.05c1.69,0.016,3.379,0.027,5.069,0.042c1.008-1.254,0.688-2.744,0.699-4.152
		c0.071-8.266-0.081-16.531,0.078-24.796c0.136-0.426,0.382-0.779,0.731-1.06c1.358-0.608,2.523-0.19,3.604,0.679
		c0.284,0.324,0.469,0.699,0.558,1.118c0.053,0.408,0.081,0.823,0.086,1.236c0.017,4.05,0.011,8.102,0.004,12.153
		c-0.002,0.404-0.019,0.808-0.05,1.209c-0.084,0.406-0.271,0.756-0.561,1.052c-0.824,0.102-1.648,0.205-2.664,0.332
		c0,2.37,0,4.711,0,7.28c0.881,0.156,1.788,0.316,2.694,0.476c0.998,1.44,1.005,2.898,0.093,4.377
		C41.591,81.091,38.244,81.301,34.381,77.826z"/>
	<path fill-rule="evenodd" clip-rule="evenodd" fill="#465971" d="M47.073,63.386c4.33-0.001,8.662-0.08,12.987,0.057
		c0.971,0.032,1.917,0.821,2.876,1.262c-5.288-0.03-10.577-0.062-15.864-0.092c-0.241-0.128-0.363-0.331-0.384-0.6
		C46.732,63.752,46.856,63.54,47.073,63.386z"/>
	<path fill-rule="evenodd" clip-rule="evenodd" fill="#506377" d="M45.833,77.102c-0.031-1.459-0.062-2.918-0.093-4.377
		c1.487-0.08,2.974-0.16,4.46-0.242c0.113,0.25,0.225,0.501,0.337,0.752C48.968,74.524,47.4,75.813,45.833,77.102z"/>
	<path fill-rule="evenodd" clip-rule="evenodd" fill="#675A2A" d="M18.936,68.873c0.959-1.352,1.917-2.702,2.876-4.053
		c0,1.732,0,3.466,0,5.771c0.113-0.085-0.341,0.252-0.781,0.579C20.258,70.322,19.597,69.598,18.936,68.873z"/>
	<path fill-rule="evenodd" clip-rule="evenodd" fill="#D4AB0F" d="M24.162,59.004c0.422-0.266,0.845-0.53,1.269-0.795
		c0.346-0.116,0.65-0.054,0.907,0.215c0.572,1.348,0.523,2.655-0.262,3.913c-0.035,0.191-0.151,0.296-0.349,0.314
		c-0.708,0.308-1.152,0.938-1.724,1.41c-0.479-0.187-0.957-0.373-1.435-0.56l-0.216-0.242
		C21.736,61.322,22.813,60.104,24.162,59.004z"/>
	<path fill-rule="evenodd" clip-rule="evenodd" fill="#D4AB0F" d="M29.043,57.956c0.52,0.222,1.039,0.443,1.783,0.76
		c-0.614,1.218-1.141,2.262-1.668,3.307c-0.59-0.058-1.181-0.115-1.771-0.173c-0.158-0.312-0.21-0.641-0.165-0.986
		C27.534,59.71,27.765,58.504,29.043,57.956z"/>
	<path fill-rule="evenodd" clip-rule="evenodd" fill="#242424" d="M27.55,61.202c-0.098,0.206-0.152,0.421-0.164,0.647
		c-0.438,0.162-0.874,0.325-1.311,0.487c0.006-1.319,0.013-2.639,0.019-3.958c0.31-0.277,0.668-0.375,1.076-0.293
		C28.369,58.995,27.974,60.097,27.55,61.202z"/>
	<path fill-rule="evenodd" clip-rule="evenodd" fill="#856B0A" d="M24.002,64.062c0.575-0.471,1.15-0.94,1.724-1.41
		c-0.229,1.25-0.458,2.5-0.688,3.751c-0.277-0.039-0.552-0.077-0.829-0.115C24.141,65.545,24.072,64.804,24.002,64.062z"/>
	<path fill-rule="evenodd" clip-rule="evenodd" fill="#D4AB0F" d="M24.564,68.937c-0.117-0.164-0.232-0.328-0.348-0.492
		c0.237-0.126,0.474-0.253,0.71-0.379c0.067,0.2,0.231,0.438,0.173,0.589C25.044,68.797,24.752,68.846,24.564,68.937z"/>
	<path fill-rule="evenodd" clip-rule="evenodd" fill="#4B607A" d="M63.531,75.631c0.292,0.497,0.583,0.998,0.873,1.497
		c-0.282,0.021-0.563,0.045-0.845,0.065C63.549,76.673,63.54,76.15,63.531,75.631z"/>
	<path fill-rule="evenodd" clip-rule="evenodd" fill="#506377" d="M47.059,64.117c0.008,0.165,0.013,0.33,0.014,0.495
		c-0.455,0.008-0.909,0.016-1.363,0.024c-0.026-0.192,0.022-0.362,0.145-0.513c0.129-0.235,0.322-0.376,0.592-0.407
		C46.708,63.761,46.913,63.895,47.059,64.117z"/>
	<path fill-rule="evenodd" clip-rule="evenodd" fill="#4B607A" d="M63.34,64.921c0.206,0.067,0.411,0.134,0.622,0.203
		c-0.151,0.16-0.295,0.313-0.438,0.465C63.415,65.379,63.354,65.156,63.34,64.921z"/>
	<path fill-rule="evenodd" clip-rule="evenodd" fill="#454132" d="M25.309,57.636c-0.939-0.849-1.879-1.695-2.818-2.542
		c-0.082-0.742-0.163-1.483-0.245-2.225c0.304-0.129,0.609-0.259,0.913-0.388c0.745,0.609,1.491,1.22,2.237,1.83
		C26.007,55.437,26.388,56.555,25.309,57.636z"/>
	<path fill-rule="evenodd" clip-rule="evenodd" fill="#0C0E0E" d="M25.309,57.636c0.029-1.108,0.058-2.216,0.087-3.324
		c0.663,0.599,1.325,1.197,1.988,1.796c0.119,0.465,0.153,0.93,0.025,1.4c-0.118,0.296-0.297,0.553-0.532,0.771
		c-0.26,0.033-0.521,0.067-0.781,0.101c-0.21-0.099-0.432-0.156-0.664-0.17C25.458,58.002,25.418,57.812,25.309,57.636z"/>
	<path fill-rule="evenodd" clip-rule="evenodd" fill="#242424" d="M27.445,48.574c-0.18,0.655-0.36,1.312-0.541,1.967
		c-0.554-0.264-1.108-0.528-1.663-0.792c0.04-0.438,0.079-0.876,0.119-1.314C26.056,48.481,26.75,48.527,27.445,48.574z"/>
	<path fill-rule="evenodd" clip-rule="evenodd" fill="#EDBF07" d="M26.961,57.942c0.141-0.611,0.281-1.224,0.422-1.835
		c0.667-0.21,1.333-0.42,2-0.631c-0.075,0.371-0.15,0.744-0.226,1.115c0.114,0.367,0.067,0.713-0.141,1.036
		c0.079,0.117,0.098,0.244,0.059,0.379C28.361,58.325,27.662,58.104,26.961,57.942z"/>
	<path fill-rule="evenodd" clip-rule="evenodd" fill="#696969" d="M29.583,53.775c-0.24,0.052-0.479,0.102-0.718,0.151
		c-0.021-0.111-0.043-0.224-0.064-0.336c0.236-0.04,0.473-0.08,0.71-0.122C29.535,53.571,29.558,53.674,29.583,53.775z"/>
	<path fill-rule="evenodd" clip-rule="evenodd" fill="#675A2A" d="M24.162,59.004c-0.604,1.418-1.207,2.837-1.811,4.256
		c-0.403-0.904-0.808-1.809-1.211-2.712c0.523-0.695,1.047-1.391,1.702-2.263C23.263,58.515,23.712,58.759,24.162,59.004z"/>
	<path fill-rule="evenodd" clip-rule="evenodd" fill="#242424" d="M75.252,119.851c0.765-0.54,1.53-1.081,2.156-1.523
		c1.844,0.71,3.452,1.325,5.586,2.146c0.285,0.952,0.721,2.41,1.292,4.319c-0.901,0.53-1.748,1.031-2.595,1.53
		c-0.334,0.133-0.64,0.085-0.919-0.14c-0.805-1.037-0.552-2.609-1.842-3.52c-1.091-0.963-2.778,0.166-3.97-0.871
		C74.625,121.079,74.68,120.426,75.252,119.851z"/>
	<path fill-rule="evenodd" clip-rule="evenodd" fill="#242424" d="M74.579,128.984c-1.021-1.284-2.043-2.571-3.354-4.221
		c1.042-0.861,1.866-1.542,2.69-2.223c0.359-0.093,0.686-0.033,0.976,0.205c0.881,0.992,1.153,2.166,1.025,3.46
		C75.745,127.264,75.376,128.228,74.579,128.984z"/>
	<path fill-rule="evenodd" clip-rule="evenodd" fill="#242424" d="M80.278,129.198c-1.457-0.063-2.915-0.124-4.373-0.187
		c-0.621-0.817-0.526-1.592,0.135-2.336c1.475-0.827,2.928-0.81,4.359,0.109C80.947,127.618,80.973,128.426,80.278,129.198z"/>
	<path fill-rule="evenodd" clip-rule="evenodd" fill="#0C0E0E" d="M80.278,129.198c-0.002-0.788-0.005-1.573-0.008-2.361
		c0.184-0.28,0.437-0.47,0.757-0.572c0.217,0.101,0.438,0.119,0.664,0.059c0.2,0.926,0.4,1.851,0.6,2.776
		C81.619,129.131,80.949,129.164,80.278,129.198z"/>
	<path fill-rule="evenodd" clip-rule="evenodd" fill="#0C0E0E" d="M74.255,122.596l-0.339-0.055c-1.481-1.854-1.013-2.74,1.336-2.69
		c-0.01,0.676-0.021,1.35-0.031,2.023C75.271,122.614,75.193,123.183,74.255,122.596z"/>
	<path fill-rule="evenodd" clip-rule="evenodd" fill="#060708" d="M75.973,126.963c-0.022,0.683-0.045,1.365-0.067,2.049
		c-0.442-0.009-0.885-0.017-1.327-0.027c0.214-0.879,0.429-1.758,0.644-2.639C75.928,125.997,76.062,126.344,75.973,126.963z"/>
	<path fill-rule="evenodd" clip-rule="evenodd" fill="#EDEDED" d="M124.031,123.543c0.187-0.426,0.374-0.852,0.561-1.28
		c0.073-0.921,0.733-1.313,1.47-1.639c1.178-0.351,2.335-0.365,3.453,0.226c1.57,1.138,2.494,2.543,1.885,4.584
		c-2.739,3.456-4.707,3.556-7.559,0.38C123.627,125.037,123.587,124.271,124.031,123.543z"/>
	<path fill-rule="evenodd" clip-rule="evenodd" fill="#242424" d="M124.422,125.548c2.167,2.186,4.334,2.307,6.503,0.003
		c0.529-0.446,1.034-0.387,1.522,0.066c-0.1,1.147-0.199,2.294-0.369,4.252c-2.911-0.226-5.68-0.436-8.551-0.657
		c-0.354-1.401-0.605-2.396-0.857-3.393C123.157,125.098,123.755,125.098,124.422,125.548z"/>
	<path fill-rule="evenodd" clip-rule="evenodd" fill="#0C0E0E" d="M132.448,125.617c-0.508-0.022-1.015-0.046-1.522-0.066
		c-0.47-1.508-0.94-3.016-1.41-4.521c0.016-0.143,0.031-0.281,0.047-0.422c0.841-0.253,1.68-0.508,3.279-0.99
		C131.713,122.067,135.569,123.684,132.448,125.617z"/>
	<path fill-rule="evenodd" clip-rule="evenodd" fill="#242424" d="M129.563,120.607c0.034,0.145,0.019,0.283-0.047,0.422
		c-1.247-0.015-2.495-0.032-3.742-0.046c-0.291-0.401-0.368-0.791,0.07-1.149c0.591-0.581,1.181-1.161,2.117-2.086
		C128.692,119.054,129.127,119.829,129.563,120.607z"/>
	<path fill-rule="evenodd" clip-rule="evenodd" fill="#0C0E0E" d="M125.843,119.834c-0.023,0.386-0.047,0.768-0.07,1.149
		c-0.394,0.426-0.788,0.854-1.182,1.279c-0.683-0.28-1.367-0.56-2.051-0.839c-0.015-0.359-0.03-0.72-0.044-1.079
		C123.612,120.176,124.728,120.005,125.843,119.834z"/>
	<path fill-rule="evenodd" clip-rule="evenodd" fill="#0C0E0E" d="M124.422,125.548c-0.584,0.091-1.168,0.181-1.751,0.271
		c-0.27-0.534-0.541-1.07-0.81-1.605c0.723-0.224,1.446-0.447,2.17-0.671C124.161,124.212,124.292,124.881,124.422,125.548z"/>
	<path fill-rule="evenodd" clip-rule="evenodd" fill="#EDEDED" d="M315.242,128.212c-0.929-0.222-1.859-0.441-2.788-0.662
		c-1.826-0.545-1.922-0.792-1.508-3.877c0.233-0.888,0.688-1.625,1.46-2.146c1.321-0.586,2.56-0.59,3.63,0.532l0.149,0.107
		l0.163-0.084c2.636,1.65,2.273,3.649,0.676,5.795C316.483,128.26,315.888,128.374,315.242,128.212z"/>
	<path fill-rule="evenodd" clip-rule="evenodd" fill="#0C0E0E" d="M316.726,127.946c1.789-2.078,0.812-3.977-0.377-5.863
		c0.794-0.388,1.587-0.776,2.604-1.271c0.757,1.702,1.363,3.063,1.777,3.992c-0.776,1.922-1.394,3.456-2.244,5.569
		c-0.348-0.086-1.098-0.276-1.85-0.464C316.074,129.227,316.022,128.568,316.726,127.946z"/>
	<path fill-rule="evenodd" clip-rule="evenodd" fill="#242424" d="M311.289,123.304c0.388,1.414,0.776,2.83,1.165,4.246
		c-0.154,0.601-0.309,1.2-0.653,2.549c-1.377-1.631-2.312-2.735-3.488-4.131c0.812-0.979,1.526-1.84,2.239-2.702
		C310.805,123.146,311.051,123.151,311.289,123.304z"/>
	<path fill-rule="evenodd" clip-rule="evenodd" fill="#242424" d="M316.036,122.06c-1.18,0.051-2.359,0.104-3.539,0.155
		c-0.782-0.25-1.078-0.782-0.918-1.58c0.957-0.447,1.91-0.895,3.384-1.581C315.332,120.084,315.685,121.072,316.036,122.06z"/>
	<path fill-rule="evenodd" clip-rule="evenodd" fill="#0C0E0E" d="M311.579,120.635c0.307,0.528,0.612,1.055,0.918,1.58
		c-0.402,0.364-0.807,0.726-1.208,1.089c-0.246-0.015-0.491-0.025-0.737-0.038c-0.166-0.699-0.334-1.397-0.503-2.097
		c0.349-0.121,0.557-0.424,0.826-0.645C311.109,120.562,311.345,120.598,311.579,120.635z"/>
	<path fill-rule="evenodd" clip-rule="evenodd" fill="#242424" d="M316.726,127.946c-0.03,0.653-0.06,1.31-0.089,1.963
		c-0.461,0.257-0.924,0.516-1.386,0.773c-0.728-0.399-0.808-1.151-1.006-1.839c0.332-0.211,0.665-0.422,0.997-0.632
		C315.736,128.121,316.231,128.034,316.726,127.946z"/>
	<path fill-rule="evenodd" clip-rule="evenodd" fill="#0C0E0E" d="M314.245,128.844c0.335,0.612,0.671,1.227,1.006,1.839
		c-0.502-0.018-1.004-0.034-1.506-0.051C313.911,130.037,314.078,129.439,314.245,128.844z"/>
	<path fill-rule="evenodd" clip-rule="evenodd" fill="#242424" d="M310.875,120.524c-0.275,0.214-0.551,0.43-0.826,0.645
		C310.324,120.954,310.6,120.738,310.875,120.524z"/>
	<path fill-rule="evenodd" clip-rule="evenodd" fill="#4B6079" d="M287.718,61.896c-0.953,0.202-1.903,0.404-2.855,0.604
		C285.461,60.633,286.527,60.976,287.718,61.896z"/>
	<path fill-rule="evenodd" clip-rule="evenodd" fill="#4D627B" d="M80.299,28.688c0.444-0.468,0.865-1.313,1.336-1.342
		c2.391-0.145,4.803-0.18,7.19-0.018c0.649,0.044,1.243,0.908,2.261,1.709c-1.398,0.51-2.097,0.765-2.796,1.019
		c-0.971-0.056-1.942-0.112-2.912-0.168c-0.441-0.285-0.905-0.508-1.438-0.544C82.726,29.125,81.513,28.906,80.299,28.688z"/>
	<path fill-rule="evenodd" clip-rule="evenodd" fill="#BDA430" d="M48.98,41.155c-1.073,0.697-2.147,1.395-3.22,2.092
		c0.085-0.41,0.171-0.819,0.256-1.229l0.016,0.028c-0.006-0.34-0.013-0.678-0.02-1.018l0.223-0.076
		C47.15,41.02,48.065,41.088,48.98,41.155z"/>
	<path fill-rule="evenodd" clip-rule="evenodd" fill="#526884" d="M83.939,29.344c0.479,0.181,0.958,0.362,1.438,0.544
		C84.898,29.706,84.419,29.524,83.939,29.344z"/>
	<path fill-rule="evenodd" clip-rule="evenodd" fill="#BDA430" d="M38.243,41.695c-1.785,0.199-3.569,0.398-5.352,0.597
		c1.023-0.977,2.045-1.954,3.289-3.142C37.123,40.313,37.683,41.004,38.243,41.695z"/>
	<path fill-rule="evenodd" clip-rule="evenodd" fill="#D4AB0F" d="M39.507,48.746c-1.564-0.284-3.129-0.567-4.694-0.852
		c-0.199-0.391-0.399-0.782-0.813-1.593c2.646,0,4.953,0,7.259,0c0.444,0.37,0.422,0.819,0.222,1.301
		C41.091,48.447,40.368,48.716,39.507,48.746z"/>
	<path fill-rule="evenodd" clip-rule="evenodd" fill="#856B0A" d="M45.266,43.396c0.145,0.915,0.29,1.829,0.435,2.744
		c-0.799,0.589-1.604,0.583-2.415,0.024c-0.601-0.793-0.464-1.629-0.137-2.475c0.079-0.278,0.158-0.557,0.237-0.836
		C44.013,43.035,44.64,43.216,45.266,43.396z"/>
	<path fill-rule="evenodd" clip-rule="evenodd" fill="#BDA430" d="M33.663,48.948c-0.514,1.046,0.519,3.029-1.804,2.979
		c-0.052-1.187-0.104-2.374-0.156-3.561l0.084-0.339l0.339-0.081C32.638,48.28,33.151,48.614,33.663,48.948z"/>
	<path fill-rule="evenodd" clip-rule="evenodd" fill="#BDA430" d="M33,45.699c-0.584-0.225-1.169-0.449-1.754-0.673
		c0.114-0.306,0.228-0.61,0.342-0.915c0.588,0.217,1.176,0.433,1.763,0.649C33.234,45.073,33.117,45.387,33,45.699z"/>
	<path fill-rule="evenodd" clip-rule="evenodd" fill="#060708" d="M43.148,43.69c0.039,0.711,0.077,1.421,0.116,2.13
		c-0.041,0.302-0.21,0.48-0.51,0.534c-0.291-0.018-0.524-0.142-0.7-0.374C42.419,45.218,42.785,44.453,43.148,43.69z"/>
	<path fill-rule="evenodd" clip-rule="evenodd" fill="#856B0A" d="M42.055,45.98c0.233-0.02,0.458,0.009,0.68,0.084
		c0.389,0.4,0.411,0.818,0.065,1.257c-0.258,0.079-0.517,0.158-0.774,0.238c-0.176,0.043-0.352,0.088-0.528,0.132
		c-0.067-0.168-0.135-0.337-0.202-0.506c-0.012-0.295-0.025-0.589-0.038-0.884C41.524,46.195,41.79,46.088,42.055,45.98z"/>
	<path fill-rule="evenodd" clip-rule="evenodd" fill="#BDA430" d="M38.009,43.4c0.355,0.154,0.709,0.31,1.064,0.465
		c-0.076,0.185-0.153,0.368-0.23,0.552c-0.359-0.148-0.719-0.296-1.079-0.444C37.845,43.781,37.927,43.591,38.009,43.4z"/>
	<path fill-rule="evenodd" clip-rule="evenodd" fill="#BDA430" d="M31.702,48.366c-0.138-0.21-0.276-0.42-0.727-1.106
		c0.711,0.425,0.931,0.556,1.15,0.687C31.986,48.089,31.845,48.229,31.702,48.366z"/>
	<path fill-rule="evenodd" clip-rule="evenodd" fill="#97A7B0" d="M46.033,42.046l-0.016-0.028L46.033,42.046z"/>
	<path fill-rule="evenodd" clip-rule="evenodd" fill="#526884" d="M47.059,64.117c-0.233-0.007-0.465-0.014-0.697-0.024
		c-0.266-0.146-0.398-0.375-0.416-0.676c-0.003-4.601-0.007-9.203-0.01-13.806c0.006-0.225-0.018-0.446-0.074-0.665
		c-0.103-0.147-0.152-0.313-0.148-0.493c0.218-0.625,0.677-0.672,1.222-0.512c0.046,5.148,0.092,10.297,0.138,15.444
		C47.068,63.629,47.063,63.873,47.059,64.117z"/>
	<path fill-rule="evenodd" clip-rule="evenodd" fill="#D4AB0F" d="M46.935,47.941c-0.407,0.171-0.814,0.341-1.222,0.512
		c-0.971-0.378-1.942-0.754-2.914-1.132c-0.022-0.419-0.043-0.838-0.065-1.257c0.165-0.105,0.341-0.187,0.53-0.244
		c0.812,0.107,1.624,0.214,2.436,0.32c0.434,0.022,0.866,0.044,1.299,0.066c0.453,0.404,0.484,0.82,0.034,1.25
		C46.969,47.612,46.936,47.774,46.935,47.941z"/>
	<path fill-rule="evenodd" clip-rule="evenodd" fill="#D4AB0F" d="M49.973,45.3c0.045-0.582,0.091-1.163,0.167-2.137
		c0.977,0.054,1.949,0.107,3.027,0.167c-0.219,2.63-1.951,1.844-3.208,1.955L49.973,45.3z"/>
	<path fill-rule="evenodd" clip-rule="evenodd" fill="#BDA430" d="M51.656,50.188c-0.951,0.043-1.903,0.087-2.854,0.131
		c-0.048-0.399-0.098-0.799-0.146-1.2c0.979-0.151,1.958-0.304,2.938-0.455C51.614,49.172,51.635,49.681,51.656,50.188z"/>
	<path fill-rule="evenodd" clip-rule="evenodd" fill="#BDA430" d="M47.034,47.457c-0.011-0.417-0.022-0.834-0.034-1.25
		c0.991-0.304,1.982-0.605,2.973-0.907l-0.013-0.015c-0.149,0.634-0.298,1.269-0.467,1.989C48.569,47.343,47.802,47.4,47.034,47.457
		z"/>
	<path fill-rule="evenodd" clip-rule="evenodd" fill="#BDA430" d="M54.086,48.145c0.254,0.532,0.508,1.063,0.762,1.596
		c-0.258,0.144-0.516,0.286-0.773,0.429c-0.333-0.454-0.668-0.909-1.001-1.364C53.411,48.584,53.749,48.365,54.086,48.145z"/>
	<path fill-rule="evenodd" clip-rule="evenodd" fill="#526884" d="M91.233,49.593c0.025,8.364,0.075,16.73,0.036,25.094
		c-0.004,0.817-0.559,1.63-0.858,2.441c0.002-7.946-0.032-15.896,0.042-23.842C90.464,52.053,90.961,50.823,91.233,49.593z"/>
	<path fill-rule="evenodd" clip-rule="evenodd" fill="#465971" d="M41.296,47.186c0.243,0.125,0.487,0.249,0.729,0.374
		c-0.031,8.852-0.017,17.703-0.152,26.553c-0.016,1.034-0.855,2.057-1.313,3.085c-0.002-8.294,0.038-16.589-0.053-24.882
		c-0.013-1.193-0.652-2.379-1-3.569C40.103,48.225,40.7,47.706,41.296,47.186z"/>
	<path fill-rule="evenodd" clip-rule="evenodd" fill="#696969" d="M26.961,57.942c0.706,0.021,1.411,0.044,2.115,0.064l-0.033-0.051
		c-0.498,1.082-0.995,2.165-1.493,3.246c-0.224-0.975-0.449-1.95-0.674-2.924C26.823,58.145,26.851,58.033,26.961,57.942z"/>
	<path fill-rule="evenodd" clip-rule="evenodd" fill="#465971" d="M35.491,77.155l-0.346,0.062l-0.35-0.012
		c0.102-0.152,0.206-0.305,0.316-0.467C35.244,76.884,35.367,77.021,35.491,77.155z"/>
	<path fill-rule="evenodd" clip-rule="evenodd" fill="#D4AB0F" d="M29.017,57.628c0.046-0.346,0.094-0.69,0.141-1.036
		C29.111,56.938,29.063,57.282,29.017,57.628z"/>
	<path fill-rule="evenodd" clip-rule="evenodd" fill="#465971" d="M45.945,63.417c0.139,0.226,0.277,0.451,0.416,0.676
		c-0.169,0.017-0.338,0.026-0.507,0.031C45.884,63.889,45.915,63.653,45.945,63.417z"/>
	<path fill-rule="evenodd" clip-rule="evenodd" fill="#465971" d="M45.861,48.946c0.077,0.148,0.173,0.29,0.22,0.447
		c0.016,0.055-0.093,0.146-0.146,0.218C45.792,49.403,45.767,49.182,45.861,48.946z"/>
	<path fill-rule="evenodd" clip-rule="evenodd" fill="#EDEDED" d="M75.973,126.963c-0.25-0.207-0.5-0.412-0.75-0.617
		c-0.322-1.25-0.645-2.502-0.967-3.75c0.322-0.241,0.645-0.48,0.966-0.722c1.32-0.271,2.641-0.54,4.68-0.958
		c0.406,1.928,0.766,3.638,1.126,5.349c-0.253,0.191-0.505,0.382-0.757,0.572C78.837,126.879,77.405,126.922,75.973,126.963z"/>
	<rect x="155.405" y="119.336" fill-rule="evenodd" clip-rule="evenodd" fill="#393837" width="4.364" height="4.456"/>
	<rect x="159.938" y="115.121" fill-rule="evenodd" clip-rule="evenodd" fill="#393837" width="4.364" height="4.456"/>
	<rect x="159.938" y="102.965" fill-rule="evenodd" clip-rule="evenodd" fill="#393837" width="4.364" height="4.455"/>
	<rect x="171.577" y="104.825" fill-rule="evenodd" clip-rule="evenodd" fill="#393837" width="4.364" height="4.455"/>
	<rect x="168.592" y="96.027" fill-rule="evenodd" clip-rule="evenodd" fill="#393837" width="4.364" height="4.456"/>
	<rect x="160.585" y="92.522" fill-rule="evenodd" clip-rule="evenodd" fill="#393837" width="4.364" height="4.456"/>
	<rect x="164.623" y="88.153" fill-rule="evenodd" clip-rule="evenodd" fill="#393837" width="4.364" height="4.456"/>
	<rect x="153.223" y="91.875" fill-rule="evenodd" clip-rule="evenodd" fill="#393837" width="4.364" height="4.457"/>
	<rect x="149.071" y="88.153" fill-rule="evenodd" clip-rule="evenodd" fill="#393837" width="4.364" height="4.456"/>
	<rect x="191.697" y="117.829" fill-rule="evenodd" clip-rule="evenodd" fill="#393837" width="4.364" height="4.455"/>
</g>
</svg>
