<?xml version="1.0" encoding="utf-8"?>
<!-- Generator: Adobe Illustrator 16.0.3, SVG Export Plug-In . SVG Version: 6.00 Build 0)  -->
<!DOCTYPE svg PUBLIC "-//W3C//DTD SVG 1.1//EN" "http://www.w3.org/Graphics/SVG/1.1/DTD/svg11.dtd">
<svg version="1.1" id="Layer_1" xmlns="http://www.w3.org/2000/svg" xmlns:xlink="http://www.w3.org/1999/xlink" x="0px" y="0px"
	 width="200px" height="200px" viewBox="0 0 200 200" enable-background="new 0 0 200 200" xml:space="preserve">
<g>
	<path fill-rule="evenodd" clip-rule="evenodd" fill="#FDFDFD" d="M100.564,188.244c48.362,0.018,87.597-39.118,87.68-87.459
		c0.082-48.461-39.078-87.765-87.509-87.829c-48.451-0.064-87.741,39.127-87.779,87.559
		C12.917,148.964,52.126,188.227,100.564,188.244z"/>
	<path fill-rule="evenodd" clip-rule="evenodd" fill="#333333" d="M100.564,188.244c-48.438-0.018-87.647-39.28-87.608-87.729
		c0.039-48.432,39.329-87.623,87.779-87.559c48.431,0.064,87.591,39.368,87.509,87.829
		C188.161,149.126,148.927,188.262,100.564,188.244z M146.254,93.998c5.533,0,11.068,0.109,16.598-0.031
		c5.474-0.138,11.975-6.233,9.939-13.085c-5.525-18.607-16.149-33.335-32.625-43.674C97.822,10.637,41.453,32.804,28.363,81.025
		c-1.699,6.258,3.756,12.729,9.736,12.886c11.258,0.296,22.529,0.102,33.795,0.05c0.702-0.003,1.555-0.377,2.079-0.859
		c6.215-5.714,13.53-8.91,21.911-9.658c11.81-1.055,22.521,1.463,31.458,9.755c0.547,0.508,1.529,0.756,2.314,0.766
		C135.188,94.028,140.721,93.999,146.254,93.998z M100.49,175.348c8.474,0.005,16.721-1.337,24.719-4.158
		c2.393-0.845,4.148-2.468,4.28-4.999c0.099-1.908-0.224-4.025-1.001-5.763c-4.349-9.718-8.85-19.37-13.414-28.989
		c-0.776-1.638-2.047-3.064-3.213-4.487c-0.856-1.047-1.802-1.081-3.11-0.299c-5,2.988-10.229,3.052-15.428,0.521
		c-2.85-1.388-3.205-1.445-5.298,0.979c-0.515,0.596-0.93,1.302-1.277,2.013c-1.081,2.211-2.114,4.446-3.153,6.679
		c-3.708,7.964-7.418,15.927-11.116,23.896c-1.998,4.304-1.086,9.153,4.612,10.886C84.743,173.951,92.495,175.325,100.49,175.348z
		 M55.647,107.201c0,0.018,0,0.034,0,0.051c-5.931,0-11.867-0.136-17.792,0.038c-5.835,0.172-11.02,6.734-9.605,12.099
		c3.914,14.846,11.612,27.408,23.222,37.478c1.34,1.162,3.219,2.012,4.97,2.326c3.2,0.573,5.13-1.261,6.444-4.134
		c4.411-9.64,9.158-19.133,13.33-28.873c1.615-3.771,2.846-8.063,2.792-12.1c-0.064-4.753-1.882-6.981-6.765-6.904
		C66.712,107.269,61.179,107.201,55.647,107.201z M145.78,107.201c-5.799,0-11.597,0.005-17.396-0.001
		c-2.54-0.003-4.306,0.927-5.456,3.419c-1.604,3.475-1.194,6.914,0.176,10.076c5.212,12.029,10.638,23.966,16.111,35.879
		c1.128,2.454,3.998,3.44,6.495,2.492c1.53-0.582,3.097-1.358,4.312-2.429c11.371-10.012,18.987-22.399,22.813-37.045
		c0.433-1.656,0.189-3.782-0.482-5.378c-1.883-4.477-5.284-7.06-10.378-7.021C156.577,107.236,151.178,107.204,145.78,107.201z"/>
</g>
<g>
	<path fill-rule="evenodd" clip-rule="evenodd" fill="none" d="M99.299,113.118c0-4.261,0-8.391,0-12.517c-3.144,0-6.194,0-9.249,0
		c0,1.364,0,2.631,0,4.06c1.581,0,3.114,0,4.736,0c-0.08,0.36-0.064,0.59-0.17,0.722c-2.157,2.685-6.097,4.1-9.256,1.845
		c-2.622-1.87-3.113-4.608-2.78-7.576c0.312-2.78,2.262-5.09,4.658-5.668c2.526-0.61,5.104,0.439,6.787,2.758
		c0.112,0.155,0.252,0.289,0.413,0.469c1.369-1.034,2.7-2.04,4.104-3.101c-0.271-0.443-0.464-0.832-0.723-1.17
		c-2.89-3.778-6.896-4.667-11.26-3.903c-7.186,1.258-11.317,8.309-9.338,15.549c1.676,6.134,7.49,9.909,13.309,8.496
		c1.459-0.354,2.795-1.219,4.287-1.894c0,0.614,0,1.264,0,1.931C96.375,113.118,97.802,113.118,99.299,113.118z M113.786,88.851
		c-6.713-0.022-12.14,5.356-12.175,12.067c-0.036,6.786,5.254,12.296,11.663,12.488c6.184,0.186,12.337-4.783,12.43-12.225
		C125.789,94.387,120.399,88.873,113.786,88.851z"/>
	<path fill-rule="evenodd" clip-rule="evenodd" fill="#F3CB0C" d="M99.299,113.118c-1.497,0-2.924,0-4.482,0
		c0-0.667,0-1.316,0-1.931c-1.491,0.675-2.827,1.539-4.287,1.894c-5.819,1.413-11.633-2.362-13.309-8.496
		c-1.979-7.24,2.153-14.291,9.338-15.549c4.364-0.764,8.37,0.125,11.26,3.903c0.259,0.338,0.452,0.728,0.723,1.17
		c-1.404,1.061-2.736,2.067-4.104,3.101c-0.16-0.18-0.3-0.314-0.413-0.469c-1.683-2.319-4.26-3.368-6.787-2.758
		c-2.396,0.578-4.346,2.889-4.658,5.668c-0.333,2.968,0.158,5.706,2.78,7.576c3.159,2.255,7.099,0.84,9.256-1.845
		c0.106-0.132,0.09-0.361,0.17-0.722c-1.623,0-3.155,0-4.736,0c0-1.429,0-2.695,0-4.06c3.055,0,6.105,0,9.249,0
		C99.299,104.728,99.299,108.857,99.299,113.118z"/>
	<path fill-rule="evenodd" clip-rule="evenodd" fill="#F3CB0C" d="M113.786,88.851c6.613,0.021,12.003,5.536,11.918,12.331
		c-0.093,7.441-6.246,12.41-12.43,12.225c-6.409-0.192-11.699-5.702-11.663-12.488C101.646,94.208,107.073,88.829,113.786,88.851z
		 M113.62,93.886c-2.228-0.012-3.968,0.947-5.07,2.842c-1.707,2.932-1.694,5.968,0.066,8.856c1.95,3.199,6.265,3.757,9.039,1.247
		c1.431-1.293,2.022-3.025,2.265-4.892C120.491,97.552,117.615,93.879,113.62,93.886z"/>
	<path fill-rule="evenodd" clip-rule="evenodd" fill="none" d="M113.62,93.886c3.995-0.007,6.871,3.666,6.3,8.054
		c-0.242,1.866-0.834,3.599-2.265,4.892c-2.774,2.51-7.089,1.952-9.039-1.247c-1.761-2.889-1.773-5.924-0.066-8.856
		C109.652,94.833,111.393,93.875,113.62,93.886z"/>
</g>
</svg>
