<?xml version="1.0" encoding="utf-8"?>
<!-- Generator: Adobe Illustrator 16.0.3, SVG Export Plug-In . SVG Version: 6.00 Build 0)  -->
<!DOCTYPE svg PUBLIC "-//W3C//DTD SVG 1.1//EN" "http://www.w3.org/Graphics/SVG/1.1/DTD/svg11.dtd">
<svg version="1.1" id="Layer_1" xmlns="http://www.w3.org/2000/svg" xmlns:xlink="http://www.w3.org/1999/xlink" x="0px" y="0px"
	 width="500px" height="300px" viewBox="0 0 500 300" enable-background="new 0 0 500 300" xml:space="preserve">
<g>
	<path fill-rule="evenodd" clip-rule="evenodd" fill="#D4D2D2" d="M250.966,269.701c-61.791,0-123.583,0.008-185.374-0.011
		c-6.772-0.002-5.923,0.779-5.925-6.053c-0.018-75.522-0.017-151.046-0.001-226.569c0.001-6.53-0.753-5.778,5.71-5.779
		c124.074-0.012,248.147-0.009,372.221-0.009c0.49,0,0.979-0.005,1.471,0.001c4.172,0.053,4.213,0.054,4.214,4.346
		c0.008,76.503,0.008,153.007,0.001,229.511c0,4.543-0.032,4.56-4.98,4.56C375.857,269.702,313.412,269.701,250.966,269.701z"/>
	<path fill-rule="evenodd" clip-rule="evenodd" fill="#CF2823" d="M325.95,236.211c-3.147,8.182-6.826,9.885-16.524,9.665
		c-6.438-0.147-9.024-3.057-9.309-9.605c-0.05-1.143,0.033-2.299-0.114-3.428c-0.347-2.645-2.028-4.285-4.696-4.608
		c-2.59-0.313-5.188-0.559-7.786-0.809c-8.345-0.802-12.014-3.763-14.094-11.87c-1.05-4.095-1.892-8.274-2.415-12.467
		c-1.956-15.649-1.115-31.291,0.333-46.935c0.631-6.809,0.672-13.672,1.295-20.48c0.523-5.731,1.532-11.417,2.271-17.129
		c0.607-4.688,1.167-9.382,1.691-14.079c1.3-11.671,2.611-23.342,3.811-35.022c0.207-2.014,0.841-3.041,2.983-2.782
		c0.806,0.097,1.633,0.016,2.45,0.016c45.127,0,90.253,0,135.38,0c0.817,0,1.646,0.085,2.45-0.017
		c2.187-0.273,2.772,0.862,2.968,2.822c0.926,9.249,1.914,18.494,2.971,27.729c1.128,9.871,2.419,19.724,3.519,29.598
		c0.776,6.97,1.543,13.951,1.976,20.948c0.815,13.198,1.838,26.408,1.906,39.617c0.048,9.419-1.099,18.83-3.217,28.137
		c-1.558,6.851-6.138,10.229-11.901,12.234c-3.022,1.051-6.652,0.275-9.992,0.526c-2.951,0.221-4.621,1.965-4.912,4.881
		c-0.145,1.459-0.045,2.941-0.111,4.41c-0.224,4.96-3.859,8.519-9.315,8.467c-1.471-0.015-2.95,0.07-4.409-0.063
		c-6.177-0.567-10.297-3.733-12.09-9.756c-0.295-0.588-0.565-1.216-0.504-1.862c0.41-4.31-1.933-5.107-5.657-4.926
		c-14.44,0.706-28.899,0.62-43.35,0.448c-3.15-0.037-4.969,0.548-4.917,4.021C326.651,234.688,326.349,235.488,325.95,236.211z"/>
	<path fill-rule="evenodd" clip-rule="evenodd" fill="#CF2823" d="M154.539,235.786c-14.017,0.331-27.182-3.013-39.68-9.159
		c-12.972-6.378-23.074-16.091-31.978-27.307c-6.156-7.752-9.604-16.72-12.713-25.897c-1.287-3.797-2.953-7.604-3.377-11.523
		c-0.609-5.612-0.549-11.35-0.215-17c0.535-9.048,2.129-17.969,5.419-26.455c1.552-4.003,3.695-7.78,5.623-11.634
		c3.351-6.698,7.729-12.828,12.978-17.99c5.065-4.982,11.007-9.247,17.077-12.996c10.495-6.482,21.965-10.39,34.319-12.13
		c16.95-2.389,33.115-0.193,48.608,6.768c17.636,7.921,31.18,20.408,40.669,37.333c7.7,13.735,11.575,28.545,10.606,44.098
		c-2.227,35.769-20.273,61.163-52.478,76.583C178.395,233.743,166.624,235.593,154.539,235.786z"/>
	<path fill-rule="evenodd" clip-rule="evenodd" fill="#FEFEFE" d="M325.95,236.211c0.251-7.087,0.251-7.062,6.91-7.093
		c14.478-0.068,28.954-0.172,43.431-0.245c4.657-0.023,4.664-0.001,4.828,4.909c0.027,0.808-0.033,1.62-0.053,2.43
		c-2.105-0.177-1.514-1.813-1.466-2.966c0.088-2.095-0.72-2.864-2.843-2.855c-15.499,0.059-30.998,0.06-46.497,0
		c-2.13-0.009-2.925,0.773-2.837,2.861C327.472,234.406,328.057,236.041,325.95,236.211z"/>
	<path fill-rule="evenodd" clip-rule="evenodd" fill="#D4D2D2" d="M353.521,193.097c-19.281,0-38.563,0.005-57.843-0.005
		c-4.525-0.003-4.546-0.03-4.547-4.465c-0.008-23.53-0.008-47.06,0-70.589c0.001-4.457,0.024-4.487,4.5-4.488
		c38.563-0.007,77.125-0.001,115.688,0c4.909,0,4.562-0.282,4.561,4.435c-0.005,23.693,0.005,47.387-0.009,71.08
		c-0.002,3.943-0.042,3.994-4.015,3.998c-19.445,0.019-38.89,0.009-58.335,0.009C353.521,193.079,353.521,193.088,353.521,193.097z"
		/>
	<path fill-rule="evenodd" clip-rule="evenodd" fill="#D4D2D2" d="M353.525,99.744c-12.898,0.003-25.798,0.017-38.697-0.005
		c-4.023-0.007-4.06-0.051-4.079-3.983c-0.031-6.367,0.052-12.736-0.047-19.103c-0.032-2.119,0.725-3.016,2.831-2.852
		c0.973,0.076,1.958,0.014,2.938,0.015c24.818,0.007,49.637,0.015,74.454,0.024c0.979,0,1.961,0.031,2.939-0.003
		c1.578-0.053,2.418,0.548,2.408,2.261c-0.039,7.183,0.033,14.37-0.119,21.55c-0.016,0.709-1.172,1.72-2.001,2.004
		c-1.023,0.351-2.257,0.089-3.399,0.089C378.344,99.741,365.935,99.741,353.525,99.744z"/>
	<path fill-rule="evenodd" clip-rule="evenodd" fill="#D4D2D2" d="M353.259,217.309c-2.607,0-5.217-0.053-7.823,0.018
		c-2.004,0.054-3.048-0.657-2.974-2.819c0.088-2.604,0.084-5.217-0.003-7.822c-0.061-1.801,0.499-2.703,2.468-2.677
		c5.704,0.074,11.41,0.081,17.114,0.018c1.938-0.022,2.567,0.8,2.499,2.641c-0.096,2.604-0.096,5.217-0.004,7.821
		c0.077,2.16-0.956,2.874-2.965,2.823c-2.77-0.069-5.541-0.017-8.313-0.017C353.259,217.299,353.259,217.304,353.259,217.309z"/>
	<path fill-rule="evenodd" clip-rule="evenodd" fill="#D4D2D2" d="M123.455,211.822c-19.266-9.812-32.072-24.982-37.037-46.108
		c-4.471-19.024-0.639-36.914,9.091-53.669c0.41-0.705,0.903-1.361,1.327-2.06c0.97-1.595,1.867-1.425,2.987-0.067
		c5.915,7.166,11.854,14.314,17.836,21.423c2.183,2.594,4.512,5.065,6.774,7.593c1.643,2.827,1.811,5.952,1.507,9.054
		c-1.835,18.766-0.503,37.578-0.943,56.362C124.938,206.914,125.456,209.641,123.455,211.822z"/>
	<path fill-rule="evenodd" clip-rule="evenodd" fill="#D4D2D2" d="M126.925,95.179c-1.807-1.621-3.62-3.235-5.419-4.866
		c-1.69-1.531-1.403-2.91,0.583-3.735c5.708-2.373,11.296-5.293,17.235-6.806c28.979-7.38,56.607,5.302,72.295,28.812
		c3.012,4.515,5.35,9.46,7.37,14.664c2.562,6.599,4.235,13.24,4.801,20.136c0.777,9.464-0.751,18.57-4.288,27.567
		c-1.958,4.98-3.733,9.959-6.469,14.573c-3.396,5.729-3.459,5.776-7.813,0.688c-7.313-8.551-14.604-17.12-21.831-25.744
		c-0.441-0.526-0.238-1.592-0.335-2.407c0.893-2.54,3.409-2.864,5.391-3.832c5.183-2.531,10.07-5.364,13.503-10.229
		c11.537-16.349,3.806-39.535-15.225-45.481c-4.385-1.37-8.866-2.121-13.494-2.101c-13.064,0.057-26.128,0.024-39.193,0.016
		C131.596,96.43,129.115,96.625,126.925,95.179z"/>
	<path fill-rule="evenodd" clip-rule="evenodd" fill="#171514" d="M126.925,95.179c16.326-0.143,32.654-0.497,48.977-0.332
		c7.255,0.073,14.185,2.236,20.35,6.294c6.973,4.589,11.214,10.986,11.635,19.389c0.251,5.003,0.416,10.205-0.653,15.036
		c-2.019,9.13-8.088,15.369-16.501,19.295c-2.51,1.171-5.115,2.138-7.676,3.199c-0.623-0.145-1.492-0.074-1.831-0.464
		c-4.611-5.308-9.149-10.679-13.705-16.035c1.524-2.283,3.72-1.375,5.729-1.153c7.05,0.777,14.506-3.417,17.481-9.887
		c2.763-6.008-2.767-15.468-9.605-16.374c-8.089-1.071-16.148-1.394-24.321-0.362c-4.567,0.577-9.402,1.317-13.896-0.926
		C137.581,106.965,132.252,101.073,126.925,95.179z"/>
	<path fill-rule="evenodd" clip-rule="evenodd" fill="#D4D2D2" d="M142.84,159.412c8.797,9.526,17.629,19.021,26.379,28.588
		c6.215,6.796,12.323,13.691,18.478,20.542c1.438,1.601,0.195,1.969-1.037,2.738c-8.494,5.305-17.944,7.475-27.715,8.392
		c-9.586,0.899-18.861-0.849-27.833-4.234c-1.038-0.392-1.94-1.144-2.906-1.729c2.083-1.912,4.78-1.908,7.33-2.28
		c5.416-0.79,5.905-1.184,5.951-6.81c0.106-12.717,0.001-25.436,0.06-38.153C141.558,164.062,141.157,161.531,142.84,159.412z"/>
	<path fill-rule="evenodd" clip-rule="evenodd" fill="#171514" d="M142.84,159.412c-0.051,15.427-0.102,30.852-0.152,46.277
		c-0.004,1.138-0.054,2.277,0.014,3.41c0.146,2.407-0.792,3.491-3.354,3.584c-3.721,0.137-7.429,0.664-11.142,1.025
		c-1.584-0.628-3.168-1.257-4.751-1.887c0.11-18.111,0.175-36.223,0.354-54.334c0.062-6.187,0.409-12.37,0.625-18.555
		C130.57,145.759,136.705,152.586,142.84,159.412z"/>
	<path fill-rule="evenodd" clip-rule="evenodd" fill="#D4D2D2" d="M142.909,112.859c12.729-0.089,25.458-0.169,38.187-0.274
		c2.813-0.023,5.304,0.917,6.798,3.234c1.971,3.058,3.635,6.335,5.181,9.635c0.427,0.911,0.146,2.283-0.118,3.369
		c-1.755,7.215-11.157,13.743-18.62,13.069c-2.264-0.205-4.544-0.226-6.817-0.332C159.316,131.993,151.113,122.426,142.909,112.859z
		"/>
</g>
</svg>
