<?xml version="1.0" encoding="utf-8"?>
<!-- Generator: Adobe Illustrator 16.0.3, SVG Export Plug-In . SVG Version: 6.00 Build 0)  -->
<!DOCTYPE svg PUBLIC "-//W3C//DTD SVG 1.1//EN" "http://www.w3.org/Graphics/SVG/1.1/DTD/svg11.dtd">
<svg version="1.1" id="Layer_1" xmlns="http://www.w3.org/2000/svg" xmlns:xlink="http://www.w3.org/1999/xlink" x="0px" y="0px"
	 width="200px" height="200px" viewBox="0 0 200 200" enable-background="new 0 0 200 200" xml:space="preserve">
<g>
	<path fill-rule="evenodd" clip-rule="evenodd" fill="none" d="M102,180.326c0-0.867,0-1.523,0-2.18
		c0-34.732,0.011-69.466-0.05-104.198c-0.002-1.076-0.486-2.359-1.177-3.186c-1.961-2.349-4.073-4.587-6.286-6.702
		c-0.717-0.686-1.925-1.198-2.915-1.208c-9.466-0.089-18.94,0.168-28.396-0.152c-4.342-0.147-7.754,0.604-10.214,4.425
		c-0.85,1.32-2.323,2.23-3.236,3.521c-0.674,0.954-1.271,2.223-1.273,3.352c-0.066,34.733-0.055,69.466-0.05,104.199
		c0,0.701,0.06,1.402,0.093,2.127C66.393,180.326,84.044,180.326,102,180.326z M143.389,179.521
		c0.061-0.423,0.146-0.741,0.146-1.059c0.007-22.517,0.013-45.032-0.024-67.548c-0.001-0.657-0.316-1.437-0.74-1.946
		c-1.233-1.481-2.518-2.942-3.944-4.231c-0.659-0.596-1.692-1.072-2.565-1.089c-5.261-0.1-10.547,0.251-15.78-0.142
		c-4.391-0.329-7.666,0.846-10.255,4.425c-0.851,1.175-1.505,2.146-1.501,3.685c0.051,21.916,0.034,43.833,0.034,65.749
		c0,0.706,0,1.412,0,2.156C120.456,179.521,131.879,179.521,143.389,179.521z M99.234,34.993
		c0.02-13.444-10.516-24.148-23.784-24.165c-13.364-0.017-24.195,10.754-24.206,24.07C51.234,48.036,61.993,58.813,75.128,58.82
		C88.579,58.827,99.215,48.314,99.234,34.993z M110.697,85.511c-0.054,8.679,6.689,15.62,15.236,15.683
		c8.636,0.064,15.659-6.741,15.727-15.237c0.07-8.895-6.746-15.915-15.46-15.922C117.651,70.027,110.75,76.917,110.697,85.511z"/>
	<path fill-rule="evenodd" clip-rule="evenodd" fill="#333333" d="M102,180.326c-17.956,0-35.607,0-53.503,0
		c-0.033-0.725-0.093-1.426-0.093-2.127c-0.004-34.733-0.016-69.466,0.05-104.199c0.002-1.129,0.6-2.398,1.273-3.352
		c0.913-1.292,2.386-2.202,3.236-3.521c2.459-3.821,5.872-4.573,10.214-4.425c9.456,0.32,18.93,0.063,28.396,0.152
		c0.989,0.009,2.197,0.521,2.915,1.208c2.212,2.115,4.324,4.353,6.286,6.702c0.69,0.827,1.175,2.11,1.177,3.186
		c0.061,34.732,0.05,69.466,0.05,104.198C102,178.803,102,179.459,102,180.326z"/>
	<path fill-rule="evenodd" clip-rule="evenodd" fill="#F3CB0C" d="M143.389,179.521c-11.51,0-22.933,0-34.63,0
		c0-0.744,0-1.45,0-2.156c0-21.916,0.017-43.833-0.034-65.749c-0.004-1.538,0.65-2.51,1.501-3.685
		c2.589-3.579,5.864-4.754,10.255-4.425c5.233,0.393,10.52,0.042,15.78,0.142c0.873,0.017,1.906,0.493,2.565,1.089
		c1.427,1.289,2.711,2.75,3.944,4.231c0.424,0.51,0.739,1.289,0.74,1.946c0.037,22.516,0.031,45.031,0.024,67.548
		C143.535,178.779,143.449,179.098,143.389,179.521z"/>
	<path fill-rule="evenodd" clip-rule="evenodd" fill="#333333" d="M99.234,34.993C99.215,48.314,88.579,58.827,75.128,58.82
		c-13.135-0.007-23.894-10.784-23.883-23.922c0.01-13.316,10.842-24.087,24.206-24.07C88.718,10.844,99.254,21.548,99.234,34.993z"
		/>
	<path fill-rule="evenodd" clip-rule="evenodd" fill="#F3CB0C" d="M110.697,85.511c0.053-8.593,6.954-15.483,15.503-15.477
		c8.714,0.007,15.53,7.027,15.46,15.922c-0.067,8.496-7.091,15.302-15.727,15.237C117.387,101.131,110.644,94.19,110.697,85.511z"/>
</g>
</svg>
