<?xml version="1.0" encoding="utf-8"?>
<!-- Generator: Adobe Illustrator 16.0.3, SVG Export Plug-In . SVG Version: 6.00 Build 0)  -->
<!DOCTYPE svg PUBLIC "-//W3C//DTD SVG 1.1//EN" "http://www.w3.org/Graphics/SVG/1.1/DTD/svg11.dtd">
<svg version="1.1" id="Layer_1" xmlns="http://www.w3.org/2000/svg" xmlns:xlink="http://www.w3.org/1999/xlink" x="0px" y="0px"
	 width="200px" height="200px" viewBox="0 0 200 200" enable-background="new 0 0 200 200" xml:space="preserve">
<g>
	<path fill-rule="evenodd" clip-rule="evenodd" fill="#FEFEFE" d="M179.803,46.474c-0.979-1.599-1.62-3.246-2.758-4.405
		c-6.301-6.425-12.729-12.724-19.1-19.082c-2.302-2.298-3.729-2.417-6.368-0.357c-5.665,4.421-11.329,8.844-16.956,13.313
		c-0.915,0.728-1.659,0.779-2.704,0.296c-2.597-1.199-5.284-2.203-7.867-3.43c-0.655-0.312-1.415-1.114-1.512-1.779
		c-0.929-6.448-1.883-12.899-2.51-19.381c-0.474-4.887-2.226-6.789-7.147-6.787c-8.988,0.002-17.978,0.008-26.966,0.019
		c-2.352,0.003-3.572,1.045-3.918,3.626c-0.973,7.248-1.899,14.502-2.758,21.764c-0.153,1.291-0.586,2.012-1.841,2.474
		c-2.871,1.056-5.655,2.348-8.538,3.366c-0.72,0.254-1.892,0.121-2.494-0.324c-5.512-4.072-10.976-8.213-16.384-12.422
		c-2.377-1.851-4.655-2.152-7.118-0.416c-1.073,0.756-1.966,1.78-2.893,2.729c-5.496,5.624-10.889,11.352-16.498,16.859
		c-3.077,3.021-3.368,4.22-0.733,7.534c4.308,5.417,8.588,10.855,12.915,16.256c0.813,1.014,0.868,1.895,0.326,3.094
		c-1.259,2.787-2.271,5.686-3.535,8.471c-0.321,0.708-1.14,1.548-1.843,1.669c-6.618,1.139-13.248,2.225-19.9,3.143
		c-4.492,0.619-6.024,2.148-5.954,6.74c0.137,8.927,0.33,17.854,0.476,26.781c0.049,2.993,1.116,4.242,4.095,4.537
		c1.986,0.196,3.984,0.271,5.968,0.479c5.224,0.549,10.443,1.151,15.667,1.707c1.175,0.125,1.835,0.638,2.271,1.811
		c0.972,2.616,2.205,5.135,3.186,7.748c0.228,0.607,0.127,1.615-0.248,2.131c-3.915,5.383-7.643,10.938-11.986,15.959
		c-3.021,3.492-2.13,6.97,0.48,9.437c6.344,5.995,12.614,12.069,18.874,18.152c2.659,2.583,3.862,2.719,6.83,0.349
		c5.566-4.443,11.085-8.946,16.696-13.332c0.554-0.433,1.715-0.506,2.42-0.255c2.504,0.892,4.885,2.146,7.409,2.964
		c1.427,0.463,2.058,1.174,2.251,2.575c0.908,6.587,1.896,13.162,2.777,19.752c0.564,4.222,2.249,5.807,6.554,5.759
		c8.994-0.098,17.988-0.247,26.983-0.357c2.895-0.036,4.123-1.014,4.465-3.91c0.858-7.262,1.674-14.528,2.443-21.799
		c0.113-1.073,0.469-1.603,1.517-2c2.855-1.085,5.614-2.427,8.479-3.484c0.789-0.291,2.061-0.285,2.696,0.168
		c5.313,3.777,10.606,7.596,15.753,11.598c3.887,3.021,6.218,3.058,9.673-0.523c6.108-6.328,12.165-12.707,18.268-19.041
		c2.125-2.205,2.225-3.813,0.265-6.232c-4.524-5.586-9.078-11.148-13.517-16.803c-0.483-0.615-0.61-1.868-0.354-2.643
		c0.859-2.582,1.909-5.108,3.026-7.594c0.27-0.6,1.027-1.281,1.646-1.376c6.569-1.01,13.14-2.058,19.743-2.786
		c4.543-0.501,6.479-2.267,6.434-6.866c-0.091-8.928-0.238-17.855-0.339-26.784c-0.035-3.138-0.673-4.019-3.827-4.425
		c-7.319-0.942-14.648-1.811-21.98-2.652c-1.074-0.124-1.575-0.491-1.94-1.566c-0.834-2.452-1.779-4.885-2.924-7.205
		c-0.628-1.271-0.582-2.17,0.257-3.246c4.13-5.299,8.249-10.608,12.302-15.967C178.381,49.384,178.932,48.044,179.803,46.474z"/>
	<path fill-rule="evenodd" clip-rule="evenodd" fill="#F3CB0C" d="M179.803,46.474c-0.871,1.57-1.422,2.91-2.267,4.027
		c-4.053,5.358-8.172,10.667-12.302,15.967c-0.839,1.076-0.885,1.974-0.257,3.246c1.145,2.32,2.09,4.753,2.924,7.205
		c0.365,1.076,0.866,1.443,1.94,1.566c7.332,0.842,14.661,1.71,21.98,2.652c3.154,0.406,3.792,1.287,3.827,4.425
		c0.101,8.928,0.248,17.856,0.339,26.784c0.046,4.6-1.891,6.365-6.434,6.866c-6.604,0.729-13.174,1.776-19.743,2.786
		c-0.618,0.095-1.376,0.776-1.646,1.376c-1.117,2.485-2.167,5.012-3.026,7.594c-0.257,0.774-0.13,2.027,0.354,2.643
		c4.438,5.654,8.992,11.217,13.517,16.803c1.96,2.42,1.86,4.027-0.265,6.232c-6.103,6.334-12.159,12.713-18.268,19.041
		c-3.455,3.581-5.786,3.545-9.673,0.523c-5.146-4.002-10.439-7.82-15.753-11.598c-0.636-0.453-1.907-0.459-2.696-0.168
		c-2.865,1.058-5.624,2.399-8.479,3.484c-1.048,0.397-1.403,0.927-1.517,2c-0.77,7.271-1.585,14.537-2.443,21.799
		c-0.342,2.896-1.57,3.874-4.465,3.91c-8.995,0.11-17.989,0.26-26.983,0.357c-4.305,0.048-5.989-1.537-6.554-5.759
		c-0.881-6.59-1.869-13.165-2.777-19.752c-0.193-1.401-0.824-2.112-2.251-2.575c-2.524-0.818-4.904-2.072-7.409-2.964
		c-0.705-0.251-1.866-0.178-2.42,0.255c-5.611,4.386-11.13,8.889-16.696,13.332c-2.968,2.37-4.171,2.234-6.83-0.349
		c-6.26-6.083-12.53-12.157-18.874-18.152c-2.61-2.467-3.501-5.944-0.48-9.437c4.344-5.021,8.072-10.576,11.986-15.959
		c0.375-0.516,0.476-1.523,0.248-2.131c-0.981-2.613-2.214-5.132-3.186-7.748c-0.436-1.173-1.095-1.686-2.271-1.811
		c-5.224-0.556-10.442-1.158-15.667-1.707c-1.984-0.208-3.982-0.282-5.968-0.479c-2.979-0.295-4.046-1.544-4.095-4.537
		c-0.146-8.927-0.339-17.854-0.476-26.781c-0.07-4.592,1.461-6.121,5.954-6.74c6.652-0.917,13.282-2.003,19.9-3.143
		c0.703-0.121,1.522-0.961,1.843-1.669c1.264-2.785,2.276-5.684,3.535-8.471c0.542-1.199,0.486-2.08-0.326-3.094
		c-4.326-5.401-8.606-10.84-12.915-16.256c-2.635-3.314-2.344-4.513,0.733-7.534c5.609-5.508,11.002-11.235,16.498-16.859
		c0.927-0.949,1.82-1.973,2.893-2.729c2.463-1.736,4.741-1.435,7.118,0.416c5.409,4.209,10.873,8.35,16.384,12.422
		c0.602,0.445,1.774,0.578,2.494,0.324c2.882-1.018,5.667-2.31,8.538-3.366c1.255-0.462,1.688-1.183,1.841-2.474
		c0.859-7.262,1.786-14.516,2.758-21.764c0.346-2.581,1.566-3.624,3.918-3.626c8.988-0.011,17.978-0.017,26.966-0.019
		c4.922-0.001,6.674,1.9,7.147,6.787c0.627,6.481,1.581,12.933,2.51,19.381c0.097,0.666,0.856,1.468,1.512,1.779
		c2.583,1.227,5.271,2.231,7.867,3.43c1.045,0.482,1.789,0.431,2.704-0.296c5.627-4.47,11.291-8.892,16.956-13.313
		c2.639-2.06,4.066-1.941,6.368,0.357c6.37,6.358,12.799,12.657,19.1,19.082C178.183,43.229,178.824,44.875,179.803,46.474z
		 M100.465,68.765c-17.549,0.009-31.54,13.965-31.743,31.293c-0.206,17.64,14.473,31.897,31.307,32.03
		c17.606,0.139,31.946-14.232,32.067-31.455C132.218,83.388,117.751,68.467,100.465,68.765z"/>
</g>
</svg>
