<?xml version="1.0" encoding="utf-8"?>
<!-- Generator: Adobe Illustrator 16.0.3, SVG Export Plug-In . SVG Version: 6.00 Build 0)  -->
<!DOCTYPE svg PUBLIC "-//W3C//DTD SVG 1.1//EN" "http://www.w3.org/Graphics/SVG/1.1/DTD/svg11.dtd">
<svg version="1.1" id="Layer_1" xmlns="http://www.w3.org/2000/svg" xmlns:xlink="http://www.w3.org/1999/xlink" x="0px" y="0px"
	 width="200px" height="200px" viewBox="0 0 200 200" enable-background="new 0 0 200 200" xml:space="preserve">
<g>
	<path fill-rule="evenodd" clip-rule="evenodd" fill="#F2C90B" stroke="#333333" stroke-width="4.252" stroke-miterlimit="10" d="
		M123.563,75.084c0,12.08,0,24.16,0,36.24c-0.153,0.257-0.348,0.499-0.453,0.774c-2.622,6.905-5.219,13.82-7.854,20.721
		c-5.898,15.442-11.819,30.876-17.712,46.32c-0.449,1.177-0.753,2.409-1.219,3.921c-0.919-2.471-1.697-4.605-2.506-6.728
		c-8.196-21.489-16.397-42.976-24.603-64.46c-0.077-0.201-0.246-0.367-0.372-0.549c0-12.16,0-24.32,0-36.48
		c0.42-0.846,0.785-1.726,1.271-2.532c3.655-6.052,8.976-8.849,16.094-8.627c6.653,0.207,13.318,0.077,19.977,0.03
		c2.906-0.021,5.761,0.158,8.426,1.419C118.974,67.198,121.827,70.645,123.563,75.084z"/>
	<path fill-rule="evenodd" clip-rule="evenodd" fill="#F2C90B" stroke="#333333" stroke-width="4.252" stroke-miterlimit="10" d="
		M93.083,11.244c2,0,4,0,6,0c0.204,0.082,0.401,0.208,0.613,0.241c13.323,2.134,22.207,13.973,20.553,27.401
		c-1.756,14.262-15.185,23.799-29.225,20.755c-11.042-2.394-18.954-12.097-19.069-23.386c-0.12-11.775,7.476-21.686,18.648-24.342
		C91.436,11.715,92.257,11.468,93.083,11.244z"/>
</g>
</svg>
