<?xml version="1.0" encoding="utf-8"?>
<!-- Generator: Adobe Illustrator 16.0.3, SVG Export Plug-In . SVG Version: 6.00 Build 0)  -->
<!DOCTYPE svg PUBLIC "-//W3C//DTD SVG 1.1//EN" "http://www.w3.org/Graphics/SVG/1.1/DTD/svg11.dtd">
<svg version="1.1" id="Layer_1" xmlns="http://www.w3.org/2000/svg" xmlns:xlink="http://www.w3.org/1999/xlink" x="0px" y="0px"
	 width="615px" height="250px" viewBox="0 0 615 250" enable-background="new 0 0 615 250" xml:space="preserve">
<g>
	<path fill-rule="evenodd" clip-rule="evenodd" fill="#030302" d="M99.478,165.925c-7.894-7.477-15.875-14.863-23.649-22.462
		c-4.416-4.315-8.708-8.798-12.674-13.525c-5.948-7.09-9.136-15.625-10.548-24.598c-1.27-8.068-2.018-16.307-1.999-24.468
		c0.035-14.99,5.97-27.949,15.5-39.311c32.749-39.045,90.354-41.461,126.392-5.421c11.927,11.928,18.14,26.066,18.613,43.037
		c0.381,13.675-1.907,26.751-7.775,38.95c-2.93,6.09-7.326,11.574-11.603,16.892c-6.705,8.34-13.865,16.313-20.843,24.433
		c-8.103,9.429-17.445,17.557-26.819,25.664c-4.584,3.965-9.79,4.708-15.483,3.824c-4.438-0.636-8.034-2.903-11.124-5.982
		c-3.758-3.747-7.933-6.986-12.045-10.307C103.019,170.781,100.996,168.576,99.478,165.925z"/>
	<path fill-rule="evenodd" clip-rule="evenodd" fill="#F1ED04" d="M105.629,171.567c2.864,2.271,5.952,4.315,8.542,6.863
		c4.309,4.237,9.072,7.746,14.418,10.508c-0.016,19.046-0.026,38.091-0.053,57.136c-0.006,4.25-0.036,4.294-4.405,4.286
		c-6.178-0.011-12.356-0.095-18.534-0.146c-1.839-1.876-1.636-4.292-1.642-6.596c-0.047-21.827-0.051-43.653,0.005-65.479
		C103.967,175.844,103.722,173.413,105.629,171.567z"/>
	<path fill-rule="evenodd" clip-rule="evenodd" fill="#BDBB03" d="M105.629,171.567c-0.01,26.216-0.021,52.431-0.031,78.646
		c-6.205,0.301-6.215,0.301-6.208-5.783c0.026-26.169,0.059-52.338,0.088-78.506C101.528,167.806,103.579,169.687,105.629,171.567z"
		/>
	<path fill-rule="evenodd" clip-rule="evenodd" fill="#F11010" d="M132.602,90.59c12.44-1.473,21.583,4.711,30.004,12.569
		c3.242,3.024,4.54,7.134,5.067,11.217c1.012,7.824-0.051,15.454-5.213,21.836c-6.837,8.452-13.796,16.811-20.89,25.05
		c-4.198,4.876-13.83,4.592-18.025-0.363c-6.701-7.915-13.449-15.796-19.917-23.899c-7.109-8.905-7.887-18.943-3.882-29.313
		c1.946-5.039,6.619-7.938,10.813-10.913C117.131,92.111,124.447,89.438,132.602,90.59z"/>
	<path fill-rule="evenodd" clip-rule="evenodd" fill="#13CE05" d="M81.378,86.532c-8.138-0.043-13.921-5.752-13.957-13.776
		c-0.038-8.47,5.985-14.444,14.479-14.364c7.958,0.076,13.43,5.966,13.729,14.089C95.907,79.974,89.253,87.149,81.378,86.532z"/>
	<path fill-rule="evenodd" clip-rule="evenodd" fill="#13CE05" d="M132.588,70.994c0-2.336-0.049-4.674,0.042-7.007
		c0.018-0.464,0.578-0.906,0.888-1.358c0.307,0.505,0.87,1.005,0.881,1.517c0.081,4.003,0.136,8.012,0.03,12.014
		c-0.058,2.179,0.318,3.597,2.957,3.324c1.105-0.114,2.666-0.184,2.266,1.607c-0.123,0.552-1.459,1.055-2.297,1.176
		c-1.306,0.188-2.662,0.029-3.997,0.018c-2.445-0.02-4.706-0.203-4.703-3.556c0.001-1.634-1.063-2.257-2.651-2.292
		c-1.693-0.038-2.956,0.311-3.226,2.273c-0.087,0.635-0.379,1.26-0.68,1.838c-0.128,0.247-0.516,0.36-0.786,0.534
		c-0.216-0.338-0.542-0.652-0.621-1.02c-0.103-0.477-0.102-1.017,0.012-1.493c1.026-4.319,2.016-8.651,3.185-12.933
		c0.316-1.157,1.207-2.157,1.834-3.229c0.639,1.037,1.57,1.997,1.866,3.124c1.182,4.497,2.139,9.052,3.261,13.566
		c0.113,0.455,0.78,0.772,1.189,1.153c0.167-0.415,0.473-0.828,0.479-1.245c0.043-2.67,0.022-5.34,0.022-8.011
		C132.557,70.994,132.573,70.994,132.588,70.994z"/>
	<path fill-rule="evenodd" clip-rule="evenodd" fill="#13CE05" d="M114.289,62.189c3.625,0.105,5.648,2.293,4.765,5.817
		c-0.562,2.242-0.373,4.042,0.353,6.205c1.282,3.824-0.585,7.32-3.736,8.041c-3.886,0.89-5.062-0.024-5.095-4.063
		c-0.033-4.172-0.05-8.345,0.007-12.516C110.63,62.173,110.775,62.087,114.289,62.189z"/>
	<path fill-rule="evenodd" clip-rule="evenodd" fill="#13CE05" d="M181.482,71.431c-0.72,3.237-1.114,6.03-2.034,8.638
		c-0.356,1.009-1.89,2.188-2.911,2.21c-0.985,0.021-2.143-1.226-2.938-2.161c-0.387-0.454-0.119-1.464-0.147-2.223
		c0.573,0.382,1.1,0.931,1.73,1.102c0.795,0.215,2.28,0.401,2.413,0.114c0.591-1.28,0.805-2.735,1.156-4.126
		c-0.406-0.004-0.838,0.082-1.213-0.028c-1.155-0.336-2.635-0.421-3.364-1.193c-2.143-2.27-1.739-8.992,0.421-11.216
		c1.492-1.536,3.402-1.499,4.468,0.736C180.302,65.882,180.755,68.855,181.482,71.431z"/>
	<path fill-rule="evenodd" clip-rule="evenodd" fill="#13CE05" d="M185.631,61.316c3.868,2.479,4.308,3.629,3.673,7.612
		c-0.243,1.523,0.284,3.154,0.273,4.734c-0.015,2.094,0.142,4.299-0.47,6.237c-0.341,1.08-2.114,2.397-3.199,2.36
		c-1.108-0.037-2.827-1.434-3.104-2.532c-0.54-2.143-0.313-4.493-0.299-6.757c0.007-1.254,0.648-2.657,0.268-3.733
		c-1.208-3.418,0.244-5.752,2.595-7.888L185.631,61.316z"/>
	<path fill-rule="evenodd" clip-rule="evenodd" fill="#D10000" d="M185.631,61.316l-0.264,0.034
		c-1.015-0.81-2.548-1.416-2.959-2.462c-2.204-5.618-2.043-11.362,0.099-16.965c0.306-0.799,1.836-1.628,2.736-1.563
		c0.913,0.066,2.199,1.049,2.539,1.932c1.639,4.264,1.862,8.678,0.625,13.121c-0.389,0.339-0.828,0.407-1.309,0.243
		c-2.162-2.369-1.007-5.338-1.446-8.021c-0.101-0.619,0.005-1.621-0.643-1.656c-0.75-0.04-0.701,0.986-0.632,1.524
		c0.431,3.372-1.706,7.397,2.438,9.846c0.362,0.292,0.71,0.599,1.047,0.918C187.119,59.283,186.375,60.299,185.631,61.316z"/>
	<path fill-rule="evenodd" clip-rule="evenodd" fill="#D10000" d="M175.585,60.441c-4.145,0-4.65-0.871-2.513-4.622
		c1.069-1.876,2.521-3.553,3.438-5.492c0.757-1.6,1.241-3.438,1.326-5.197c0.042-0.848-1.114-1.753-1.727-2.633
		c-0.686,0.608-1.418,1.172-2.042,1.838c-0.486,0.519-0.838,1.165-1.25,1.754c-0.221-0.843-0.856-1.869-0.582-2.495
		c0.713-1.626,1.508-3.464,3.82-3.381c2.323,0.083,3.329,1.895,3.457,3.643c0.162,2.217-0.22,4.578-0.879,6.719
		c-0.522,1.694-1.813,3.154-2.772,4.711c-1.637,2.658-1.63,2.594,1.506,3.084c0.794,0.125,1.505,0.779,2.255,1.189
		c-0.846,0.292-1.679,0.638-2.543,0.856C176.61,60.536,176.085,60.439,175.585,60.441z"/>
	<path fill-rule="evenodd" clip-rule="evenodd" fill="#13CE05" d="M163.087,62.369c4.217,0.037,4.09,0.08,2.869,4.216
		c-1.31,4.439-2.167,9.01-3.322,13.498c-0.173,0.673-0.894,1.206-1.361,1.804c-0.161-0.607-0.541-1.25-0.447-1.814
		c0.563-3.427,1.065-6.879,1.916-10.24c0.946-3.738,1.086-3.669-2.433-5.119c-0.496-0.204-0.805-0.865-1.2-1.315
		c0.493-0.333,0.959-0.719,1.489-0.979c0.272-0.133,0.656-0.046,0.989-0.049C162.087,62.366,162.587,62.37,163.087,62.369z"/>
	<path fill-rule="evenodd" clip-rule="evenodd" fill="#D10000" d="M163.776,50.658c0,2.832,0.028,5.664-0.041,8.494
		c-0.008,0.314-0.571,0.615-0.876,0.922c-0.298-0.309-0.845-0.612-0.853-0.928c-0.084-3.33-0.07-6.663-0.112-9.994
		c-0.01-0.82,0.152-1.854-0.268-2.404c-0.542-0.708-2.639,1.28-2.486-0.836c0.091-1.266,1.523-2.432,2.34-3.651
		c0.185-0.275,0.264-0.64,0.49-0.863c0.314-0.312,0.721-0.53,1.089-0.789c0.256,0.517,0.72,1.029,0.733,1.553
		c0.073,2.831,0.035,5.664,0.035,8.497C163.81,50.658,163.793,50.658,163.776,50.658z"/>
	<path fill-rule="evenodd" clip-rule="evenodd" fill="#D10000" d="M168.847,56.739c0.604,1.275,0.988,1.76,1.026,2.27
		c0.03,0.397-0.371,0.827-0.58,1.242c-0.431-0.354-1.109-0.642-1.226-1.08C167.946,58.718,168.369,58.119,168.847,56.739z"/>
	<path fill-rule="evenodd" clip-rule="evenodd" fill="#13CE05" d="M170.324,78.959c0.159,0.442,0.468,0.895,0.44,1.325
		c-0.038,0.59-0.331,1.163-0.514,1.743c-0.426-0.335-1.085-0.601-1.213-1.026c-0.133-0.44,0.25-1.036,0.408-1.562
		C169.739,79.278,170.032,79.119,170.324,78.959z"/>
	<path fill-rule="evenodd" clip-rule="evenodd" fill="#F11010" d="M187.863,58.266c-0.479-0.062-0.959-0.124-1.438-0.186
		c-0.332-1.086-0.256-2.054,0.799-2.735c0.394,0.022,0.789,0.045,1.183,0.067C188.226,56.364,188.044,57.314,187.863,58.266z"/>
	<path fill-rule="evenodd" clip-rule="evenodd" fill="#FDEFEF" d="M142.363,127.126c-0.322,0.979-0.351,2.292-1.018,2.878
		c-2.499,2.198-5.008,4.504-7.874,6.139c-6.648,3.79-12.959,3.487-18.563-2.397c-4.765-5.004-4.563-13.529,0.511-18.106
		c1.735-1.564,4.362-2.829,6.651-2.952c5.03-0.269,9.938,0.756,14.241,3.808c3.116,2.209,6.388,4.198,9.591,6.286
		c0,0,0.367,0.113,0.369,0.11c0.103,0.233,0.224,0.458,0.364,0.673c2.882,1.982,5.797,3.919,8.632,5.968
		c1.194,0.862,2.43,1.818,3.228,3.012c0.382,0.572-0.044,1.886-0.463,2.672c-0.132,0.248-1.579,0.118-2.165-0.251
		c-2.966-1.864-5.831-3.891-8.765-5.808c-1.382-0.904-2.839-1.692-4.262-2.533C142.368,126.494,142.192,126.646,142.363,127.126z"/>
	<path fill-rule="evenodd" clip-rule="evenodd" fill="#FDEFEF" d="M145.901,122.781c0.089-1.234-0.285-2.843,0.353-3.635
		c2.176-2.696,4.625-5.194,7.167-7.555c0.602-0.559,2.273-0.727,2.908-0.288c0.726,0.502,1.45,2.458,1.132,2.793
		c-3.176,3.342-5.389,7.928-10.609,8.802c-0.377,0.172-0.71,0.111-1.003-0.182L145.901,122.781z"/>
	<path fill-rule="evenodd" clip-rule="evenodd" fill="#B5B5B5" d="M145.849,122.715c0.334,0.061,0.668,0.121,1.003,0.182
		c0.042,0.259-0.031,0.481-0.217,0.667C146.373,123.281,146.111,122.998,145.849,122.715z"/>
	<path fill-rule="evenodd" clip-rule="evenodd" fill="#030302" d="M81.101,82.594c-5.551,0.064-10.417-4.527-10.554-9.956
		c-0.133-5.303,4.751-10.215,10.249-10.308c5.465-0.093,10.465,4.647,10.551,10.001C91.431,77.696,86.606,82.53,81.101,82.594z"/>
	<path fill-rule="evenodd" clip-rule="evenodd" fill="#030302" d="M123.888,72.042c0.755-1.803,1.416-3.383,2.078-4.963
		c0.488,1.61,1.091,3.199,1.403,4.842c0.117,0.612-0.273,1.549-0.753,1.973c-0.364,0.321-1.426,0.31-1.838-0.001
		C124.29,73.523,124.165,72.673,123.888,72.042z"/>
	<path fill-rule="evenodd" clip-rule="evenodd" fill="#030302" d="M112.444,75.098c0.273-0.39,0.826-2.081,1.749-2.316
		c2.153-0.548,3.564,1.168,3.504,3.56c-0.049,1.972-0.877,3.025-2.967,3.11C111.999,79.564,112.575,77.64,112.444,75.098z"/>
	<path fill-rule="evenodd" clip-rule="evenodd" fill="#030302" d="M113.872,64.533c2.733,0.014,3.437,1.418,3.536,3.218
		c0.107,1.94-1.09,2.498-2.852,2.515c-2.354,0.022-2.045-1.606-2.057-3.065C112.489,65.838,112.424,64.409,113.872,64.533z"/>
	<path fill-rule="evenodd" clip-rule="evenodd" fill="#030302" d="M178.989,69.14c-0.15,0.464-0.316,1.655-0.894,2.591
		c-0.832,1.348-2.657,1.062-2.999-0.496c-0.314-1.434-0.42-3.024-0.125-4.443c0.188-0.901,1.276-1.614,1.961-2.412
		c0.644,0.856,1.357,1.67,1.899,2.586C179.059,67.348,178.921,67.945,178.989,69.14z"/>
	<path fill-rule="evenodd" clip-rule="evenodd" fill="#030302" d="M188.193,76.494c-0.156,0.808-0.228,1.643-0.5,2.407
		c-0.15,0.421-0.708,1.066-0.958,1.015c-0.837-0.176-1.972-0.396-2.356-1.002c-1.202-1.892-0.418-5.945,1.119-6.166
		c0.688-0.099,1.734,0.669,2.228,1.334C188.161,74.667,188.055,75.656,188.193,76.494z"/>
	<path fill-rule="evenodd" clip-rule="evenodd" fill="#030302" d="M188.596,67.601c-1.071,1.082-1.74,2.354-2.527,2.433
		c-1.827,0.182-2.147-1.518-1.85-2.784c0.248-1.057,1.271-1.932,1.95-2.888C186.888,65.322,187.607,66.282,188.596,67.601z"/>
	<path fill-rule="evenodd" clip-rule="evenodd" fill="#030302" d="M187.224,55.345c-0.267,0.912-0.533,1.824-0.799,2.735
		c-1.928,0.823-3.124-0.207-3.203-1.89c-0.179-3.827-0.077-7.677,0.142-11.504c0.042-0.73,1.143-1.4,1.755-2.097
		c0.575,0.747,1.581,1.458,1.649,2.249C187.067,48.327,187.097,51.84,187.224,55.345z"/>
	<path fill-rule="evenodd" clip-rule="evenodd" fill="#F11010" d="M125.06,133.899c-1.567-0.407-3.265-0.604-4.742-1.283
		c-3.04-1.396-4.774-4.821-4.214-7.764c0.845-4.439,3.193-6.492,6.821-7.275c7.3-1.576,11.829,3.326,17.021,6.745
		c0.283,0.186,0.416,1.256,0.251,1.367c-3.839,2.582-7.687,5.157-11.643,7.551C127.638,133.795,126.319,133.684,125.06,133.899z"/>
	<path fill-rule="evenodd" clip-rule="evenodd" fill="#F11010" d="M142.363,127.126c-0.154-0.359-0.308-0.719-0.462-1.078
		c0.313,0.191,0.626,0.384,0.939,0.576C142.683,126.793,142.523,126.96,142.363,127.126z"/>
	<path fill-rule="evenodd" clip-rule="evenodd" fill="#FDEFEF" d="M128.21,125.188c-2.019,1.278-3.029,2.344-4.195,2.558
		c-1.797,0.326-2.709-1.119-2.891-2.713c-0.201-1.763,0.971-3.146,2.552-2.919C124.971,122.299,126.093,123.683,128.21,125.188z"/>
</g>
</svg>
