<?xml version="1.0" encoding="utf-8"?>
<!-- Generator: Adobe Illustrator 16.0.3, SVG Export Plug-In . SVG Version: 6.00 Build 0)  -->
<!DOCTYPE svg PUBLIC "-//W3C//DTD SVG 1.1//EN" "http://www.w3.org/Graphics/SVG/1.1/DTD/svg11.dtd">
<svg version="1.1" id="Layer_1" xmlns="http://www.w3.org/2000/svg" xmlns:xlink="http://www.w3.org/1999/xlink" x="0px" y="0px"
	 width="615px" height="250px" viewBox="0 0 615 250" enable-background="new 0 0 615 250" xml:space="preserve">
<g>
	<path fill-rule="evenodd" clip-rule="evenodd" fill="#FEC790" d="M211.073,77.443c8.618-2.162,17.244-1.731,25.896-0.177
		c7.72,1.386,15.437,2.818,23.203,3.892c2.627,0.364,3.237,2.066,4.012,3.868c3.902,9.08,7.421,18.343,11.718,27.23
		c4.217,8.722,8.997,17.195,13.941,25.534c2.778,4.685,6.462,8.826,9.552,13.339c0.48,0.702,0.3,2.25-0.139,3.123
		c-4.524,8.991-9.195,17.908-13.748,26.885c-1.01,1.991-2.216,2.265-3.992,1.097c-9.796-6.443-21.221-9.035-31.934-13.274
		c-6.884-2.725-12.584-6.811-17.976-11.644c-4.367-3.913-8.679-7.95-13.437-11.338c-2.87-2.044-6.547-2.954-9.861-4.372
		c-9.128-1.984-17.314-6.614-26.192-9.313c-2.592-1.66-3.674-4.381-4.924-6.991c-1.954-4.849-1.681-9.204,2.811-12.622
		c3.937-2.162,8.182-2.164,12.235-0.911c4.479,1.385,8.992,2.752,13.346,4.538c9.006,3.828,18.466,6.132,27.963,8.3
		c3.289,0.908,6.652,0.532,9.992,0.58c2.589,0.038,3.684-1.142,3.202-3.761c-1-5.431-2.233-10.819-2.787-16.333
		c-0.191-1.912-1.625-3.205-2.968-4.52c-5.889-5.765-12.235-10.411-21.146-9.235C214.699,88.108,211.89,83.403,211.073,77.443z"/>
	<path fill-rule="evenodd" clip-rule="evenodd" fill="#F92B2B" d="M233.583,125.691c-9.411-2.721-18.821-5.443-28.231-8.165
		c2.842-2.331,6.056-1.133,9.169-0.991c1.415,0.064,3.393,0.758,3.676-1.399c0.264-2.017-1.75-2.279-3.15-2.521
		c-6.943-1.203-13.958-1.887-20.949-2.754c-1.656-0.206-3.374-0.053-4.855-1.051c-0.817-0.839-0.934-1.84-0.679-2.924
		c4.472-7.042,4.875-15.472,7.787-23.054c0.408-1.061,0.368-2.486-1.007-2.999c-1.421-0.531-2.264,0.625-2.641,1.684
		c-2.783,7.815-6.039,15.531-5.755,24.086c0.009,0.79-0.181,1.509-0.736,2.099c-8.692,0.3-17.386-0.057-26.08,0
		c-7.822,0.052-14.422,3.313-20.078,8.162c-6.043,5.181-8.341,11.904-5.936,19.962c1.781,5.971,4.643,11.132,9.505,15.063
		c6.864,5.548,14.023,5.708,21.272,0.593c5.991-4.228,10.843-9.468,14.345-15.938c0.787-1.453,1.375-3.104,3.125-3.774
		c8.647,3.278,17.294,6.557,25.941,9.836c-19.33,12.106-38.658,24.213-57.988,36.319c-0.995,0.623-1.955,1.316-2.997,1.848
		c-5.148,2.623-8.359,1.772-11.391-3.048c-8.751-13.918-17.618-27.767-26.103-41.845c-1.727-2.864-2.768-6.643-2.652-9.948
		c0.083-2.388,2.042-5.572,4.123-6.899c26.019-16.593,52.193-32.945,78.4-49.241c2.07-1.287,4.625-2.066,7.053-2.443
		c4.093-0.636,7.564,0.521,9.763,4.521c1.277,2.324,3.022,4.391,4.557,6.574c2.717,4.332,5.433,8.665,8.15,12.997
		c7.242,8.368,12.824,17.767,16.94,27.999C237.293,121.246,236.611,124.045,233.583,125.691z"/>
	
		<rect x="277.037" y="160.752" transform="matrix(0.4998 -0.8661 0.8661 0.4998 -0.1343 349.7225)" fill-rule="evenodd" clip-rule="evenodd" fill="#FEFEFE" width="51.407" height="28.452"/>
	<path fill-rule="evenodd" clip-rule="evenodd" fill="#131A18" d="M469.432,249.444c-8.649-0.021-17.299-0.042-25.947-0.063
		c-8.054-3.541-14.867-9.078-22.021-14.004c-16.039-11.047-32.159-21.976-48.236-32.967c-17.603-12.035-35.109-24.213-52.841-36.06
		c-2.359-1.577-5.644-2.656-5.679-6.424c1.223-2.483,2.444-4.969,3.667-7.453c2.726-1.39,4.817,0.118,6.943,1.508
		c23.861,15.597,47.818,31.044,71.755,46.523c22.951,14.843,45.891,29.706,68.714,44.746
		C467.35,246.281,469.737,246.733,469.432,249.444z"/>
	<path fill-rule="evenodd" clip-rule="evenodd" fill="#131A17" d="M295.101,199.146c2.02-4.107,4.04-8.217,6.06-12.326
		c2.271-1.046,3.85,0.44,5.44,1.59c25.935,18.735,52.022,37.254,77.966,55.977c1.753,1.265,4.408,2.07,4.235,5.066
		c-7.358-0.014-14.718-0.027-22.077-0.04c-2.711-0.935-5.165-2.328-7.499-3.988c-20.194-14.362-40.637-28.373-60.895-42.646
		C296.98,201.827,295.419,201.03,295.101,199.146z"/>
	<path fill-rule="evenodd" clip-rule="evenodd" fill="#141C1B" d="M306.229,177.032c1.275-2.406,2.55-4.812,3.824-7.218
		c1.825-0.101,3.168,0.979,4.534,1.925c35.668,24.721,71.689,48.926,107.381,73.612c1.417,0.98,3.463,1.662,3.073,4.08
		c-6.022-0.001-12.045-0.001-18.069-0.002c-8.99-3.695-16.073-10.335-23.834-15.849c-23.547-16.729-46.915-33.711-70.422-50.498
		C310.326,181.375,307.337,180.172,306.229,177.032z"/>
	<path fill-rule="evenodd" clip-rule="evenodd" fill="#DECC37" d="M320.216,149.365c0.498-1.187,0.995-2.375,1.575-3.761
		c53.161,34.502,106.017,68.806,159.868,103.756c-3.136,0-5.159,0-7.184,0c-2.107-0.58-4.042-1.439-5.908-2.659
		c-39.055-25.508-78.254-50.792-117.395-76.166c-9.009-5.841-18.116-11.529-27.057-17.473
		C322.631,152.075,320.74,151.41,320.216,149.365z"/>
	<path fill-rule="evenodd" clip-rule="evenodd" fill="#DCCC39" d="M437.518,249.361c-2.351,0.008-4.702,0.015-7.054,0.021
		c-7.271-2.84-13.159-7.927-19.477-12.253c-21.007-14.384-42.019-28.759-62.994-43.188c-11.315-7.784-22.609-15.601-33.944-23.356
		c-1.19-0.813-2.776-1.358-2.921-3.174c0.561-1.241,1.121-2.482,1.683-3.724c1.881-0.876,3.204,0.351,4.557,1.276
		c38.868,26.61,77.643,53.354,116.537,79.925C435.527,245.997,437.461,246.947,437.518,249.361z"/>
	<path fill-rule="evenodd" clip-rule="evenodd" fill="#4F8EC4" d="M437.518,249.361c-5.998-4.269-11.938-8.623-18.005-12.794
		c-34.669-23.84-69.366-47.637-104.063-71.434c-0.823-0.565-1.757-0.968-2.639-1.446c0.632-1.255,1.264-2.508,1.896-3.761
		c2.267,1.909,4.39,4.027,6.822,5.694c39.866,27.313,79.771,54.57,119.659,81.851c0.817,0.561,1.532,1.269,2.296,1.909
		C441.496,249.375,439.507,249.368,437.518,249.361z"/>
	<path fill-rule="evenodd" clip-rule="evenodd" fill="#508DBE" d="M320.216,149.365c18.454,11.857,36.937,23.67,55.356,35.581
		c31.503,20.37,62.97,40.798,94.442,61.217c1.532,0.994,2.976,2.129,4.461,3.197c-1.682,0.028-3.362,0.057-5.044,0.084
		c-7.897-5.299-15.729-10.698-23.702-15.881c-40.757-26.489-81.544-52.935-122.361-79.331c-1.44-0.932-3.32-1.188-4.994-1.759
		C318.988,151.438,319.603,150.402,320.216,149.365z"/>
	<path fill-rule="evenodd" clip-rule="evenodd" fill="#DCCC39" d="M401.045,249.367c-2.332,0-4.664,0-6.996,0
		c-3.029-0.731-5.368-2.678-7.828-4.424c-26.285-18.646-52.602-37.253-78.803-56.019c-1.845-1.319-4.962-1.939-4.657-5.31
		c0.458-0.926,0.916-1.852,1.374-2.777c2.332-1.145,3.841,0.596,5.392,1.703c28.815,20.598,57.827,40.918,86.661,61.488
		C398.121,245.408,400.825,246.327,401.045,249.367z"/>
	<path fill-rule="evenodd" clip-rule="evenodd" fill="#4E8EC7" d="M401.045,249.367c-11.842-8.515-23.649-17.076-35.531-25.534
		c-19.415-13.819-38.875-27.574-58.332-41.335c-0.938-0.664-2.027-1.111-3.047-1.66c0.698-1.269,1.397-2.537,2.095-3.806
		c33.103,23.671,66.206,47.34,99.301,71.021c0.535,0.383,0.964,0.914,1.442,1.376C404.997,249.409,403.021,249.389,401.045,249.367z
		"/>
	<path fill-rule="evenodd" clip-rule="evenodd" fill="#508EC3" d="M311.128,167.411c13.999,9.51,28.027,18.979,41.991,28.54
		c25.037,17.142,50.037,34.336,75.043,51.521c0.818,0.563,1.536,1.27,2.302,1.91c-1.807,0.016-3.614,0.032-5.422,0.049
		c-6.11-4.38-12.146-8.871-18.345-13.121c-31.159-21.364-62.364-42.663-93.542-64c-1.092-0.747-2.07-1.66-3.102-2.496
		C310.411,169.013,310.77,168.213,311.128,167.411z"/>
	<path fill-rule="evenodd" clip-rule="evenodd" fill="#DECD37" d="M359.316,249.376c-4.447,0.56-8.109-0.271-12.034-3.208
		c-13.494-10.1-27.459-19.575-41.266-29.257c-3.936-2.761-7.783-5.71-11.973-8.023c-3.372-1.861-3.425-3.528-0.932-5.955
		c2.113-0.972,3.548,0.508,4.982,1.536c19.234,13.791,38.75,27.182,57.986,40.968C357.438,246.41,359.635,246.93,359.316,249.376z"
		/>
	<path fill-rule="evenodd" clip-rule="evenodd" fill="#4D8EC9" d="M359.316,249.376c-16.946-12.01-33.876-24.043-50.849-36.014
		c-5.056-3.566-10.234-6.958-15.357-10.43c0.664-1.262,1.327-2.524,1.99-3.787c23.255,16.201,46.513,32.4,69.759,48.613
		c0.678,0.472,1.246,1.098,1.865,1.653C364.255,249.399,361.785,249.388,359.316,249.376z"/>
	<path fill-rule="evenodd" clip-rule="evenodd" fill="#528DBD" d="M302.761,183.615c5.885,4.395,11.685,8.906,17.668,13.163
		c24.04,17.102,48.138,34.122,72.204,51.188c0.534,0.379,0.947,0.931,1.416,1.401c-1.749,0.028-3.497,0.057-5.247,0.085
		c-6.809-5.086-13.552-10.268-20.441-15.242c-20.908-15.094-41.866-30.119-62.835-45.128c-1.319-0.944-2.904-1.518-4.365-2.263
		C301.694,185.751,302.228,184.684,302.761,183.615z"/>
	<path fill-rule="evenodd" clip-rule="evenodd" fill="#FEF1F0" d="M189.419,107.925c8.253,1.06,16.506,2.115,24.758,3.183
		c1.155,0.149,2.619-0.018,3.38,0.624c1.217,1.027,1.966,2.611,2.913,3.959c-1.406,0.847-2.784,2.349-4.223,2.411
		c-3.617,0.155-7.262-0.341-10.895-0.576c-8.191-2.361-15.943-7.385-25.059-4.123c-1.578,1.146-3.401,1.598-5.239,1.171
		c-4.68-1.087-9.291-0.152-13.953-0.016c-5.335,0.155-9.704,1.964-13.895,4.958c-7.225,5.161-8.113,14.435-1.977,22
		c5.114,6.308,13.325,6.614,19.857,0.712c3.875-3.502,7.335-7.308,9.422-12.229c0.754-1.778,1.446-3.842,3.774-4.36
		c1.361,2.044,2.723,4.087,4.083,6.13c-3.356,8.764-9.582,15.245-16.829,20.833c-6.596,5.085-14.758,5.032-21.436,0.096
		c-7.488-5.537-11.189-13.187-12.067-22.265c-0.536-5.551,1.856-10.324,5.566-14.071c5.159-5.21,11.63-9.057,18.925-9.497
		c9.82-0.593,19.722,0.167,29.589,0.347C187.401,106.592,188.366,107.462,189.419,107.925z"/>
	<path fill-rule="evenodd" clip-rule="evenodd" fill="#F92C2C" d="M178.283,125.64c-3.013,6.371-6.175,12.602-11.592,17.42
		c-6.178,5.495-14.793,6.557-20.2,2.228c-6.929-5.548-9.383-15.717-4.569-22.523c3.82-5.4,9.314-9.303,16.326-9.524
		c7.339-0.231,14.697,0.086,22.046,0.164C176.058,116.897,177.08,121.253,178.283,125.64z"/>
	<path fill-rule="evenodd" clip-rule="evenodd" fill="#D99A5C" d="M233.583,125.691c4.296-5.814-0.015-10.496-2.405-15.085
		c-3.604-6.921-7.934-13.463-11.956-20.167c8.042-1.541,14.273,1.246,20.215,6.844c3.917,3.69,6.57,6.906,6.511,12.584
		c-0.043,4.058,1.585,8.13,2.432,12.203c0.802,3.852,0.339,4.588-3.483,4.492C241.122,126.468,237.354,125.998,233.583,125.691z"/>
	<path fill-rule="evenodd" clip-rule="evenodd" fill="#FEE5CC" d="M197.336,121.143c-1.19,2.761-2.189,5.243-3.358,7.642
		c-0.214,0.439-1.105,0.714-1.711,0.772c-2.928,0.28-9.692-4.565-9.929-7.456c-0.113-1.385,0.741-3.922,1.596-4.13
		c4.1-0.996,8.325-1.083,12.069,1.474C196.597,119.851,196.939,120.623,197.336,121.143z"/>
	<path fill-rule="evenodd" clip-rule="evenodd" fill="#FEEFEF" d="M186.206,105.389c-0.174-1.423-0.78-2.956-0.451-4.251
		c1.601-6.294,3.426-12.532,5.237-18.771c0.321-1.104,0.711-2.405,1.516-3.092c0.88-0.75,2.472-1.46,3.396-1.144
		c0.954,0.326,2.282,2.134,2.065,2.907c-2.277,8.136-4.818,16.198-7.342,24.263c-0.123,0.392-0.755,0.625-1.151,0.932
		C188.241,106.517,187.147,106.248,186.206,105.389z"/>
	<path fill-rule="evenodd" clip-rule="evenodd" fill="#FB7070" d="M186.206,105.389c1.091,0.282,2.181,0.563,3.271,0.844
		c-0.019,0.563-0.039,1.128-0.058,1.692c-1.102-0.237-2.203-0.475-3.305-0.712C186.145,106.605,186.175,105.997,186.206,105.389z"/>
	<path fill-rule="evenodd" clip-rule="evenodd" fill="#FDE2E2" d="M158.378,129.681c-2.34,1.703-3.716,3.448-5.172,3.519
		c-1.092,0.052-2.969-1.896-3.279-3.234c-0.504-2.17,1.086-4.055,3.354-3.802C154.706,126.323,155.968,127.94,158.378,129.681z"/>
</g>
</svg>
