<?xml version="1.0" encoding="utf-8"?>
<!-- Generator: Adobe Illustrator 16.0.3, SVG Export Plug-In . SVG Version: 6.00 Build 0)  -->
<!DOCTYPE svg PUBLIC "-//W3C//DTD SVG 1.1//EN" "http://www.w3.org/Graphics/SVG/1.1/DTD/svg11.dtd">
<svg version="1.1" id="Layer_1" xmlns="http://www.w3.org/2000/svg" xmlns:xlink="http://www.w3.org/1999/xlink" x="0px" y="0px"
	 width="200px" height="200px" viewBox="0 0 200 200" enable-background="new 0 0 200 200" xml:space="preserve">
<g>
	<path fill="#3CA000" d="M100.156,189.723c-0.16,0-0.32,0-0.48,0c-0.109-0.397-0.164-0.822-0.337-1.186
		c-7.643-15.908-15.284-31.821-22.952-47.717c-7.303-15.141-14.664-30.248-21.93-45.407c-1.63-3.402-3.272-6.855-4.392-10.467
		c-4.733-15.263-3.616-30.156,3.365-44.389c5.206-10.614,13.036-18.463,23.055-23.952c7.691-4.213,18.766-6.328,24.385-6.328
		c15.29,0.437,28.231,6.558,38.491,18.646c8.369,9.861,12.777,21.613,13.381,34.929c0.418,9.197-1.176,18.007-4.826,26.35
		c-1.266,2.891-2.826,5.633-4.193,8.475c-14.022,29.116-28.035,58.236-42.037,87.362
		C101.111,187.232,100.663,188.494,100.156,189.723z"/>
</g>
<g>
	<path fill="#C8C8C8" d="M100.069,105.77c22.83-0.012,41.242-19.079,41.257-42.72c0.016-23.739-18.366-42.802-41.275-42.806
		C77.11,20.24,58.669,39.27,58.673,62.943C58.676,86.72,77.102,105.781,100.069,105.77z"/>
	<path fill="#C7C7C7" d="M100.069,105.77c-22.968,0.012-41.393-19.048-41.396-42.826c-0.004-23.674,18.437-42.704,41.378-42.7
		c22.909,0.004,41.291,19.067,41.275,42.806C141.311,86.69,122.898,105.758,100.069,105.77z"/>
</g>
<g>
	<path fill="#1F1F1F" d="M90.577,91.389c-1.078,2.805-2.34,3.388-5.664,3.313c-2.208-0.05-3.094-1.047-3.191-3.292
		c-0.018-0.392,0.011-0.788-0.039-1.175c-0.119-0.907-0.695-1.469-1.61-1.58c-0.888-0.107-1.779-0.191-2.669-0.277
		c-2.861-0.275-4.119-1.29-4.832-4.068c-0.36-1.405-0.648-2.837-0.828-4.274c-0.67-5.364-0.382-10.727,0.114-16.089
		c0.216-2.334,0.23-4.686,0.443-7.02c0.18-1.965,0.525-3.914,0.779-5.872c0.208-1.607,0.4-3.216,0.58-4.826
		c0.446-4,0.895-8.001,1.306-12.005c0.071-0.69,0.289-1.042,1.023-0.954c0.276,0.033,0.56,0.006,0.84,0.006
		c15.469,0,30.937,0,46.407,0c0.279,0,0.563,0.029,0.839-0.006c0.75-0.094,0.95,0.295,1.018,0.967
		c0.317,3.17,0.656,6.339,1.019,9.505c0.388,3.384,0.83,6.762,1.207,10.147c0.266,2.388,0.527,4.782,0.678,7.18
		c0.279,4.524,0.63,9.053,0.652,13.582c0.018,3.229-0.377,6.454-1.103,9.645c-0.534,2.349-2.104,3.506-4.08,4.194
		c-1.034,0.36-2.28,0.095-3.425,0.181c-1.012,0.075-1.584,0.673-1.686,1.673c-0.049,0.5-0.015,1.008-0.037,1.512
		c-0.076,1.701-1.322,2.92-3.192,2.902c-0.504-0.004-1.011,0.024-1.513-0.021c-2.116-0.194-3.529-1.279-4.145-3.344
		c-0.101-0.202-0.193-0.417-0.173-0.638c0.142-1.477-0.662-1.751-1.938-1.689c-4.949,0.243-9.905,0.213-14.859,0.154
		c-1.079-0.012-1.703,0.188-1.685,1.378C90.817,90.866,90.713,91.141,90.577,91.389z"/>
	<path fill="#C7C7C7" d="M100.027,76.61c-6.609,0-13.218,0.001-19.827-0.002c-1.552-0.001-1.559-0.01-1.559-1.531
		c-0.003-8.065-0.003-16.132,0-24.197c0-1.528,0.008-1.538,1.542-1.539c13.219-0.001,26.438,0,39.656,0
		c1.683,0,1.563-0.096,1.563,1.521c-0.002,8.122,0,16.244-0.004,24.366c0,1.352-0.016,1.37-1.377,1.371
		c-6.664,0.007-13.33,0.003-19.996,0.003C100.027,76.603,100.027,76.606,100.027,76.61z"/>
	<path fill="#C7C7C7" d="M100.028,44.608c-4.42,0.001-8.842,0.006-13.265-0.001c-1.378-0.002-1.392-0.018-1.397-1.365
		c-0.011-2.183,0.018-4.366-0.017-6.548c-0.011-0.727,0.249-1.034,0.97-0.978c0.334,0.026,0.672,0.005,1.008,0.005
		c8.507,0.002,17.014,0.005,25.521,0.008c0.336,0,0.674,0.01,1.008-0.001c0.541-0.019,0.828,0.188,0.826,0.775
		c-0.015,2.462,0.01,4.926-0.041,7.387c-0.006,0.243-0.402,0.589-0.688,0.687c-0.35,0.12-0.773,0.03-1.164,0.03
		C108.536,44.607,104.282,44.607,100.028,44.608z"/>
	<path fill="#C7C7C7" d="M99.938,84.91c-0.895,0-1.789-0.019-2.682,0.005c-0.687,0.02-1.044-0.224-1.019-0.965
		c0.03-0.893,0.028-1.789-0.002-2.682c-0.021-0.617,0.172-0.926,0.846-0.918c1.956,0.025,3.911,0.029,5.866,0.007
		c0.664-0.008,0.88,0.273,0.855,0.905c-0.031,0.893-0.031,1.789,0,2.681c0.025,0.74-0.328,0.985-1.018,0.968
		c-0.948-0.023-1.898-0.006-2.849-0.006C99.938,84.906,99.938,84.908,99.938,84.91z"/>
</g>
</svg>
