<?xml version="1.0" encoding="utf-8"?>
<!-- Generator: Adobe Illustrator 16.0.3, SVG Export Plug-In . SVG Version: 6.00 Build 0)  -->
<!DOCTYPE svg PUBLIC "-//W3C//DTD SVG 1.1//EN" "http://www.w3.org/Graphics/SVG/1.1/DTD/svg11.dtd">
<svg version="1.1" id="Layer_1" xmlns="http://www.w3.org/2000/svg" xmlns:xlink="http://www.w3.org/1999/xlink" x="0px" y="0px"
	 width="370px" height="370px" viewBox="0 0 370 370" enable-background="new 0 0 370 370" xml:space="preserve">
<g>
	<path fill-rule="evenodd" clip-rule="evenodd" fill="#B5AE9D" d="M294.077,293.473c-1.416-0.139-2.831-0.277-4.246-0.418
		c-1.955-4.887-0.263-9.865-0.227-14.781c0.04-5.729-0.363-11.309-2.158-16.756c-0.107-6.598-0.602-13.15-2.263-19.566
		c-1.28-3.107-0.471-6.723-2.363-9.682c-1.194-3.295,0.372-7.08-1.823-10.197c-0.886-1.975-0.795-4.191-1.556-6.195
		c-0.854-3.768-1.622-7.561-3.037-11.176c-1.852-4.922-3.057-10.1-5.759-14.688c-0.697-1.76-1.056-3.66-2.179-5.244
		c-2.046-3.315-3.91-6.763-6.908-9.374c-0.787-1.073-1.377-2.282-2.261-3.291c-0.686-1.155-1.398-2.289-2.321-3.279
		c-8.641-12.265-20.68-20.508-33.218-28.172c-1.749-1.069-3.655-1.981-4.805-3.821c-0.153-0.467-0.147-0.94-0.014-1.41
		c0.703-1.208,2.104-1.804,2.733-3.085c0.515-1.531,0.477-3.059-0.047-4.575c-0.446-1.203-1.081-2.291-1.988-3.199
		c-1.509-1.26-1.941,0.254-2.643,1.041c-0.824,1.35-0.711,2.762-0.29,4.195c0.144,0.412,0.252,0.831,0.358,1.252
		c0.226,0.862,0.498,1.709,0.707,2.578c0.069,0.468,0.045,0.928-0.058,1.389c-0.193,0.449-0.502,0.786-0.942,1
		c-2.122,0.488-3.504-1.22-5.28-1.764c-1.29-0.589-2.816-0.632-3.916-1.666c-0.893-1.748,0.333-2.772,1.304-3.919
		c1.379-1.632,2.004-3.454,1.124-5.558c-2.219-3.832-2.219-3.832-6.158-2.334c-0.97,2.902,0.235,5.6,1.077,8.343
		c0.394,1.333,0.759,2.661-0.491,3.779c-2.412,1.103-4.46,0.471-6.268-1.303c-1.017-4.047,0.713-8.2-0.437-12.21
		c-2.325,2.846-0.65,5.815-0.343,8.737c0.038,1.453-0.024,2.868-1.329,3.854c-4.192,1.611-8.556,0.583-12.836,0.816
		c-3.954,0.215-7.957-0.325-11.838,0.834c-5.424,0.505-11.056-0.033-15.968,3.116c-0.662,0.438-1.384,0.748-2.138,0.979
		c-6.865,2.169-12.428,6.643-18.377,10.432c-14.795,9.424-24.89,23.176-34.414,37.445c-1.244,1.494-1.604,3.377-2.237,5.141
		c-2.199,4.18-4.167,8.443-4.786,13.195c-0.099,0.469-0.26,0.918-0.452,1.355c-0.312,0.639-0.682,1.244-1.022,1.867
		c-1.308,2.826-2.125,5.799-2.698,8.855c-0.097,0.514-0.238,1.006-0.404,1.498c-2.192,5.08-2.057,10.596-3.019,15.906
		c-3.228,6.146-2.42,13.01-3.464,19.543c-0.061,2.266,0.087,4.543-0.389,6.787c-0.396,1.371-0.709,2.76-0.828,4.191
		c-0.612,2.342-0.852,4.725-1.026,7.133c-0.147,2.061-0.468,4.17-2.829,5.07c-0.659-0.188-1.124-0.59-1.413-1.211
		c-1.04-2.674-0.723-5.471-0.765-8.227c-0.423-27.701,0.938-55.381,1.36-83.066c0.265-17.294,0.211-34.609,0.793-51.901
		c0.208-6.153,0.079-12.44,2.445-18.349c2.291-1.617,4.943-1.375,7.513-1.376c64.818-0.028,129.635-0.027,194.454-0.004
		c2.409,0,4.862-0.129,7.09,1.109c1.633,1.242,2.203,3.028,2.5,4.95c0.185,1.199,0.266,2.411,0.232,3.619
		c-0.666,24.203,0.826,48.377,1.282,72.557c0.593,31.426,1.607,62.852,2.096,94.285C294.945,290.236,295.395,292,294.077,293.473z"
		/>
	<path fill-rule="evenodd" clip-rule="evenodd" fill="#B6B09E" d="M52.984,312.072c-12.256,0-24.513,0-37.266,0
		c0-1.184-0.094-2.309,0.021-3.414c0.193-1.859,0.568-3.699,0.781-5.559c0.677-5.934,1.33-11.871,1.961-17.809
		c0.397-3.744,0.793-7.486,1.092-11.238c0.422-5.297,0.651-10.613,1.154-15.902c0.484-5.09,1.223-10.156,1.826-15.236
		c0.122-1.023,0.099-2.064,0.204-3.092c0.658-6.457,1.358-12.908,1.993-19.367c0.418-4.26,0.712-8.531,1.13-12.791
		c0.633-6.459,1.332-12.91,1.992-19.367c0.365-3.572,0.757-7.141,1.049-10.719c0.417-5.125,0.652-10.268,1.152-15.385
		c0.53-5.429,1.332-10.833,1.917-16.258c0.459-4.255,0.813-8.523,1.138-12.791c0.416-5.472,0.721-10.953,1.142-16.424
		c0.21-2.713,0.574-5.416,0.868-8.122c1.094-1.338,2.649-1.617,4.209-1.646c10.023-0.191,20.049-0.279,30.072,0.05
		c1.04,0.033,2.042,0.354,2.951,0.889c2.134,1.914,1.62,4.381,1.389,6.781c-3.345,34.79-6.715,69.578-10.078,104.366
		c-2.763,28.588-5.647,57.164-8.348,85.756C55.094,307.355,54.868,310.002,52.984,312.072z"/>
	<path fill-rule="evenodd" clip-rule="evenodd" fill="#B6B09E" d="M334.695,108.598c0.605,6.112,1.213,12.222,1.816,18.334
		c0.388,3.915,0.824,7.827,1.145,11.747c0.417,5.125,0.633,10.27,1.137,15.385c0.517,5.259,1.318,10.489,1.912,15.741
		c0.442,3.91,0.807,7.831,1.109,11.755c0.424,5.471,0.635,10.961,1.164,16.422c0.479,4.916,1.31,9.797,1.899,14.703
		c0.43,3.564,0.77,7.141,1.062,10.719c0.419,5.125,0.656,10.268,1.155,15.385c0.531,5.432,1.315,10.836,1.919,16.26
		c0.435,3.912,0.805,7.832,1.107,11.756c0.423,5.471,0.635,10.961,1.166,16.422c0.478,4.916,1.319,9.797,1.883,14.705
		c0.217,1.881,0.005,3.809,0.165,5.699c0.225,2.678,0.614,5.342,0.982,8.41c-12.698,0-25.089,0-37.479,0
		c-3.77-5.902-2.71-12.746-3.397-19.152c-2.949-27.496-5.494-55.037-8.107-82.568c-2.563-27.015-5.429-54.002-7.78-81.04
		c-0.419-4.819-0.894-9.64-1.454-14.449c-0.278-2.396-0.768-4.85,1.216-6.862c1.85-1.143,3.929-1.122,5.979-1.133
		c8.395-0.042,16.789-0.072,25.183,0.018C330.673,106.878,332.991,106.71,334.695,108.598z"/>
	<path fill-rule="evenodd" clip-rule="evenodd" fill="#96907F" d="M81.126,76.054c1.725,0.073,3.449,0.212,5.174,0.212
		c65.399,0.011,130.798,0.011,196.198,0.001c1.725-0.001,3.449-0.138,5.174-0.211c2.654,3.204,0.923,7.022,1.216,10.492
		c0.602,7.159,1.405,14.377,0.559,21.607c-1.244,1.92-3.181,2.563-5.294,2.856c-1.373,0.191-2.759,0.207-4.143,0.207
		c-63.65,0.018-127.3,0.025-190.949-0.022c-3.582-0.002-7.407,0.375-9.855-3.242c-0.957-2.113-1.097-4.383-0.765-6.593
		c0.976-6.508,0.864-13.05,0.933-19.593C79.395,79.73,79.303,77.577,81.126,76.054z"/>
	<path fill-rule="evenodd" clip-rule="evenodd" fill="#4C4B4B" d="M209.552,224.271c-1.899-1.18-3.726-2.502-5.71-3.512
		c-14.857-7.559-29.431-7.424-43.619,1.775c-1.145,0.742-2.283,1.498-3.423,2.246c-3.447-5.248-4.787-11.365-6.972-17.123
		c-3.789-9.986-7.708-19.93-11.038-30.086c1.256-4.938,6.561-5.753,9.333-9.156c0.784-0.621,1.656-1.089,2.563-1.5
		c3.993-1.825,8.004-3.613,12.099-5.206c0.9-0.401,1.804-0.79,2.735-1.109c4.185-1.524,9.393-0.851,12.052-5.641
		c0.709-0.344,1.425-0.355,2.146-0.042c1.707,2.249,3.54,4.183,7.204,2.434c1.016-0.538,0.917-2.419,2.091-3.418
		c0.717-0.354,1.437-0.358,2.159-0.022c1.349,1.129,1.104,3.192,2.932,4.572c1.937,1.1,4.845,0.824,7.187,2.244
		c1.338,1.053,2.85,1.643,4.565,1.693c4.166,0.989,7.782,3.16,11.41,5.307c0.838,0.545,1.684,1.078,2.53,1.614
		c3.068,2.305,6.694,4.1,7.709,8.315c0.147,4.135-2.115,7.564-3.359,11.282c-3.165,9.459-6.79,18.754-10.187,28.129
		C213.011,219.684,212.709,222.914,209.552,224.271z"/>
	<path fill-rule="evenodd" clip-rule="evenodd" fill="#222222" d="M209.552,224.271c2.555-6.771,5.134-13.533,7.657-20.316
		c2.936-7.889,5.846-15.787,8.703-23.707c0.395-1.09,0.424-2.311,0.621-3.471c0.999-0.22,1.757,0.275,2.496,0.833
		c1.168,1.065,2.332,2.138,3.674,2.996c2.863,2.844,5.218,6.192,8.563,8.551c0.313,0.367,0.57,0.77,0.79,1.195
		c1.716,4.172,5.182,7.209,7.266,11.145c0.779,1.689,1.578,3.367,2.771,4.824c2.049,4.125,3.322,8.635,6.176,12.359
		c0.354,0.697,0.554,1.439,0.668,2.209c0.525,4.676,1.99,9.133,3.178,13.652c0.262,1.02,0.663,2.002,0.863,3.039
		c1.214,5.109,1.518,10.432,3.607,15.338c0.253,0.805,0.312,1.623,0.238,2.457c-1.141,5.301,1.091,10.465,0.648,15.734
		c-0.001,1.145,0.435,2.207,0.656,3.309c0.596,3.738,0.379,7.5,0.34,11.254c-0.019,1.705-0.004,3.414-0.477,5.076
		c-0.302,1.162-1.171,1.881-2.048,2.592c-11.013,0-22.024,0-32.857,0c-0.718-8.711-1.301-17.105-2.124-25.475
		c-1.634-16.613-8.094-30.932-20.541-42.328C210.052,225.203,209.839,224.697,209.552,224.271z"/>
	<path fill-rule="evenodd" clip-rule="evenodd" fill="#222222" d="M139.304,177.164c1.544,3.498,3.266,6.931,4.599,10.508
		c4.229,11.348,8.327,22.746,12.43,34.143c0.333,0.924,0.319,1.975,0.468,2.967c-0.315,0.402-0.582,0.857-0.952,1.199
		c-11.785,10.932-18.141,24.584-19.92,40.398c-0.997,8.857-1.546,17.764-2.337,27.121c-3.03,0-6.27-0.033-9.509,0.008
		c-7.409,0.094-14.818,0.223-22.227,0.34c-2.704-0.303-2.741-3.297-4.555-4.508c-0.14-0.523-0.119-1.037,0.049-1.549
		c1.699-4.082,0.364-8.486,1.338-12.645c0.369-1.32,0.651-2.652,0.609-4.037c0.441-4.789,1.046-9.561,1.387-14.359
		c0.319-1.34,0.738-2.664,0.715-4.068c0.41-4.643,1.618-9.143,2.447-13.711c0.368-1.27,0.669-2.555,0.828-3.873
		c1.227-4.775,2.875-9.43,4.131-14.199c0.308-0.961,0.714-1.889,1.019-2.852c1.713-4.617,3.769-9.094,5.647-13.643
		c0.312-0.662,0.726-1.258,1.185-1.822c3.04-3.84,6.087-7.68,8.326-12.078c0.386-0.607,0.853-1.146,1.373-1.641
		c3.346-2.984,6.272-6.358,9.125-9.801c0.807-0.85,1.615-1.701,2.636-2.31C138.605,176.616,139.001,176.754,139.304,177.164z"/>
	<path fill-rule="evenodd" clip-rule="evenodd" fill="#898576" d="M297.216,108.525c0.613,5.749,1.23,11.497,1.837,17.245
		c0.09,0.853,0.125,1.711,0.192,2.566c0.7,9.026,1.35,18.055,2.12,27.075c0.609,7.13,1.283,14.256,2.081,21.368
		c0.929,8.273,2.11,16.518,3.013,24.795c0.538,4.926,0.652,9.896,1.137,14.828c0.55,5.578,1.304,11.137,1.96,16.705
		c0.061,0.514,0.046,1.035,0.079,1.553c0.353,5.637,0.625,11.281,1.086,16.91c0.61,7.475,1.348,14.941,2.073,22.406
		c0.659,6.781,1.352,13.559,2.07,20.332c0.628,5.914,1.314,11.822,1.974,17.732c-1.183,0.057-2.365,0.111-3.22,0.152
		c-6.692-6.412-13.116-12.566-19.541-18.721c-1.423-5.051-1.017-10.23-1.043-15.375c-0.04-8.139,0.509-16.324-0.149-24.412
		c-1.291-15.867,0.039-31.793-1.154-47.59c-1.044-13.824,0.218-27.638-0.946-41.367c-1.304-15.361-0.509-30.706-0.949-46.049
		c-0.048-1.668-0.643-3.319-0.984-4.979C290.749,110.536,292.159,106.583,297.216,108.525z"/>
	<path fill-rule="evenodd" clip-rule="evenodd" fill="#898576" d="M52.984,312.072c0.624-5.398,1.271-10.793,1.863-16.193
		c0.427-3.9,0.848-7.801,1.149-11.711c0.419-5.459,0.59-10.941,1.118-16.389c0.474-4.895,1.336-9.75,1.928-14.635
		c0.452-3.723,0.808-7.461,1.1-11.201c0.413-5.287,0.606-10.594,1.119-15.871c0.509-5.236,1.346-10.441,1.948-15.672
		c0.448-3.896,0.81-7.807,1.104-11.721c0.41-5.459,0.586-10.941,1.116-16.388c0.476-4.895,1.313-9.754,1.945-14.635
		c0.133-1.022-0.009-2.079,0.098-3.107c0.648-6.262,1.346-12.519,2-18.781c0.39-3.731,0.792-7.463,1.075-11.203
		c0.413-5.46,0.681-10.932,1.094-16.392c0.243-3.222,0.646-6.433,0.978-9.647c4.481-1.128,5.721,2.327,7.366,5.209
		c-1.506,20.122-0.238,40.323-1.347,60.415c-0.989,17.924,0.378,35.86-0.994,53.688c-1.233,16.029-0.304,32.014-0.833,48.008
		c0.197,5.91,1.736,11.9-1.042,17.637c-6.405,6.146-12.811,12.291-19.374,18.59C55.332,312.072,54.158,312.072,52.984,312.072z"/>
	<path fill-rule="evenodd" clip-rule="evenodd" fill="#97917F" d="M294.002,68.156c17.13-0.066,34.26-0.132,51.389-0.196
		c1.855-0.006,3.712-0.001,6.189-0.001c-1.483,12.593-2.757,24.6-5.209,36.458c-1.92,1.421-4.15,1.578-6.42,1.582
		c-12.439,0.024-24.879,0.056-37.318-0.021c-2.776-0.017-5.56-0.165-7.802-2.175c-0.219-0.261-0.553-0.5-0.627-0.803
		C291.388,91.403,291.398,79.786,294.002,68.156z"/>
	<path fill-rule="evenodd" clip-rule="evenodd" fill="#97917F" d="M22.856,104.364c-1.773-11.863-2.687-23.798-3.457-36.093
		c19.173,0,37.933,0,57.001,0c0.131,0.503,0.292,1.123,0.454,1.742c0.444,2.205,0.533,4.411,0.134,6.64
		c-1.305,7.278-1.962,14.604-1.765,22.01c0.058,2.195,0.145,4.516-1.725,6.238c-1.874,1.121-3.965,1.093-6.029,1.099
		c-12.757,0.039-25.515,0.052-38.272-0.008C26.968,105.981,24.67,106.066,22.856,104.364z"/>
	<path fill-rule="evenodd" clip-rule="evenodd" fill="#79736A" d="M22.856,104.364c16.943-0.01,33.886-0.021,50.829-0.03
		c3.042-0.879,4.485,1.44,6.246,3.123c1.466,0.693,2.884,1.537,4.416,2.024c0.941,0.301,2.056,0.056,3.093,0.056
		c64.643,0,129.287,0.002,193.929-0.008c2.677-0.001,5.538,0.546,7.505-2.074c1.925-1.617,2.944-4.591,6.234-4.16
		c2.84,0.348,5.676,0.973,8.517,0.998c14.247,0.126,28.497,0.097,42.746,0.124c-0.143,1.178-0.285,2.356-0.505,4.181
		c-3.74,0-7.456,0-11.171,0c-12.493-0.024-24.986-0.049-37.479-0.073c-1.626-0.208-2.973,0.142-4.169,1.437
		c-1.265,1.369-2.786,2.503-4.196,3.739c-69.621,0.011-139.244,0.023-208.866,0.035c-1.463-1.288-2.862-2.662-4.415-3.83
		c-0.849-0.638-1.959-0.931-2.951-1.379c-12.493,0.023-24.986,0.048-37.479,0.072c-3.908,0-7.814,0-12.284,0
		C22.856,106.929,22.856,105.646,22.856,104.364z"/>
	<path fill-rule="evenodd" clip-rule="evenodd" fill="#767062" d="M295.108,103.295c-1.047,0.872-2.038,1.828-3.16,2.59
		c-0.945,0.641-2.044,1.055-3.074,1.569c-1.412-6.42-0.262-13.062-1.318-19.393c-0.699-4.188,0.543-8.023,0.116-12.006
		c1.627-2.559,3.226-5.136,4.921-7.649c0.186-0.275,0.927-0.176,1.409-0.25c0.019,6.835,0.025,13.671,0.062,20.507
		C294.089,93.562,293.711,98.493,295.108,103.295z"/>
	<path fill-rule="evenodd" clip-rule="evenodd" fill="#767062" d="M79.931,107.457c-2.082-1.042-4.164-2.082-6.246-3.123
		c0.009-4.324-0.218-8.667,0.09-12.97c0.352-4.9,1.211-9.765,1.785-14.652c0.18-1.533,0.045-3.105,0.257-4.631
		c0.1-0.724,0.677-1.381,1.038-2.068c1.424,2.014,2.848,4.028,4.272,6.042C80.728,86.521,80.329,96.989,79.931,107.457z"/>
	<path fill-rule="evenodd" clip-rule="evenodd" fill="#454440" d="M288.765,261.322c0.553,1.867,1.104,3.734,1.657,5.6
		c0.164-0.016,0.327-0.031,0.491-0.047c0,5.137,0.133,10.277-0.046,15.406c-0.126,3.6-0.676,7.184-1.037,10.773
		c-0.418-0.445-0.835-0.891-1.253-1.336c-0.763-1.121-1.236-2.479-2.708-3.229c-3.666-0.195-7.382,0.752-11.146,0.938
		c-2.169,0.107-5.227,0.748-4.813-3.275c3.375-2.16,7.37-1.324,11.007-2.254c1.815-0.465,3.813-0.271,5.864-2.16
		c0.838-4.537,1.306-9.564-0.449-14.605c-0.269-0.512-0.453-1.049-0.582-1.611c-0.257-1.477-0.209-2.904,0.676-4.193
		C287.203,260.719,287.984,260.609,288.765,261.322z"/>
	<path fill-rule="evenodd" clip-rule="evenodd" fill="#AEA999" d="M270.403,286.408c0,0.5,0,1.002,0,2.057
		c5.999-0.705,11.941-1.402,18.175-2.135c0,2.07,0,3.73,0,5.389l-0.16-0.215c-7.106,1.42-14.208,1.746-21.302-0.086
		c0.111-1.742,0.223-3.484,0.333-5.225C268.499,285.373,269.489,285.373,270.403,286.408z"/>
	<path fill-rule="evenodd" clip-rule="evenodd" fill="#4C4B4B" d="M98.692,294.59c-4.646-0.008-9.294,0.072-13.936-0.061
		c-2.025-0.057-4.038-0.547-6.057-0.84c-2.146-5.012-2.32-10.195-1.346-15.477c0.627-0.814,1.45-0.939,2.379-0.672
		c2.044,1.436,1.066,4.295,3.106,6.217c3.305,2.133,8.313,0.035,11.724,3.285c0.267,0.523,0.233,1.033-0.091,1.523
		c-3.563,2.418-7.722,0.232-11.48,1.602c3.795,1.336,7.774,0.477,11.613,0.992C96.506,291.416,99.696,290.66,98.692,294.59z"/>
	<path fill-rule="evenodd" clip-rule="evenodd" fill="#B6B09E" d="M98.692,294.59c0-0.508,0-1.014,0-1.947
		c-6.054,0-11.998,0-17.88,0c-0.354-0.828-0.713-1.279-0.704-1.723c0.021-0.984,0.227-1.963,0.319-2.652
		c0.466-0.355,0.607-0.555,0.734-0.547c4.412,0.297,8.823,0.611,13.234,0.924c1.214-0.465,2.298-0.244,3.26,0.619
		c0.784,0.146,1.568,0.289,1.932,0.357c0.882,1.641,1.576,2.934,2.27,4.227C100.802,294.094,99.747,294.342,98.692,294.59z"/>
	<path fill-rule="evenodd" clip-rule="evenodd" fill="#55534D" d="M267.116,291.418c7.101,0.029,14.201,0.057,21.302,0.086
		c-0.106,0.5-0.212,1.002-0.387,1.838c-7.35,0-14.719,0-22.088,0C266.335,292.699,266.725,292.059,267.116,291.418z"/>
	<path fill-rule="evenodd" clip-rule="evenodd" fill="#A29C8D" d="M78.312,277.77c-0.493,3.482-0.884,6.891,0.336,10.4
		c0.572,1.646,0.067,3.668,0.051,5.52c-0.977-0.068-1.954-0.139-2.93-0.207c0.006-5.01-0.038-10.02,0.063-15.027
		c0.018-0.877,0.638-1.74,0.98-2.609c0.401,0.01,0.802,0.023,1.203,0.035C78.482,276.451,78.6,277.078,78.312,277.77z"/>
	<path fill-rule="evenodd" clip-rule="evenodd" fill="#C1BBA9" d="M109.734,221.049c-1.25,4.781-2.501,9.563-3.752,14.346
		c-5.248,1.088-8.271-3.334-11.978-4.658c2.861,3.094,8.592,3.041,11.051,7.67c-0.77,4.83-1.541,9.662-2.311,14.494
		c-1.759,1.615-3.535,0.729-5.234-0.055c-2.951-1.359-5.842-2.85-8.735-4.328c-5.856-2.996-6.116-3.648-4.855-10.025
		c0.369-1.863,0.885-3.646,1.71-5.346c0.663-5.727,2.226-11.313,2.636-17.078l-0.033-0.053c1.644-1.898,1.877-4.826,5.025-6.424
		C99.295,212.199,105.03,215.83,109.734,221.049z"/>
	<path fill-rule="evenodd" clip-rule="evenodd" fill="#595751" d="M138.141,177.174c0.125,1.317-0.473,2.022-1.794,2.109
		c-3.699-3.029-5.132-7.604-7.738-11.381c-1.547-2.242-2.577-4.852-5.183-7.077c-3.417,3.285-6.864,6.438-8.922,10.6
		c1.402,5.848,7.901,8.046,8.84,13.84c-0.096,0.491-0.313,0.922-0.628,1.309c-2.967,0.463-4.072-2.154-5.881-3.586
		c-2.266-1.795-3.676-4.58-6.512-5.786c-4.435,1.71-4.228,8.221-9.456,8.929c-0.493-0.117-0.906-0.365-1.24-0.745
		c2.788-4.279,5.417-8.674,8.416-12.798c2.259-3.108,5.229-5.699,7.47-8.819c5.958-8.292,14.403-13.478,22.645-19.031
		c4.65-3.134,9.213-6.297,14.538-8.177c0.55,0.47,1.404,0.691,1.358,1.65c-1.736,4.326-7.089,3.922-9.93,7.763
		c0.881,5.047,3.31,9.958,5.163,15.056c0.792,2.179,2.486,4.23,1.315,6.805c-0.628,0.322-1.256,0.643-1.884,0.965
		c-4.298-3.488-4.444-9.088-6.856-13.538c-1.042-1.923-1.001-4.429-3.367-5.991c-3.855,1.735-7.179,4.282-10.257,7.849
		c1.965,5.278,5.59,9.547,8.113,14.397C137.271,173.291,139.077,174.806,138.141,177.174z"/>
	<path fill-rule="evenodd" clip-rule="evenodd" fill="#55534D" d="M231.579,181.316c-1.003-1.063-2.004-2.127-3.006-3.189
		c0.462-4.716,4.443-7.528,6.252-11.537c1.604-3.554,4.436-6.497,5.67-10.393c-2.744-3.697-6.261-5.961-10.594-8.237
		c-3.202,4.968-4.162,10.66-6.669,15.626c-1.121,2.224-1.158,5.161-4.048,6.24c-0.678-0.328-1.357-0.657-2.035-0.986
		c-0.668-3.837,1.663-6.895,2.732-10.266c1.445-4.553,3.929-8.758,4.891-13.845c-4.039-3.816-9.85-4.905-13.729-8.85
		c-0.615-1.176-0.141-1.946,0.929-2.494c1.72,0.73,3.44,1.459,5.16,2.189c0.925-0.113,1.557,0.347,2.058,1.058
		c10.843,6.464,21.803,12.802,30.659,21.986c2.937,3.045,5.296,6.649,7.918,9.997c0.418,0.93-0.14,1.348-0.875,1.674
		c-3.59-0.079-4.363-3.549-6.481-5.4c-1.68-1.467-2.826-3.472-5.393-5.248C239.828,166.46,236.163,174.195,231.579,181.316z"/>
	<path fill-rule="evenodd" clip-rule="evenodd" fill="#5E5C55" d="M288.765,261.322c-0.605,0.004-1.212,0.008-1.817,0.01
		c-3.163-3.391-1.503-8.215-3.45-12.193c-4.318,0.607-7.594,3.277-11.333,4.814c-1.96,0.805-3.788,2.639-6.181,1.092
		c-0.029-0.539-0.058-1.078-0.087-1.619c0.395-2.715,2.884-3.107,4.721-4.145c4.717-2.66,9.958-4.41,14.057-8.143
		c0.533-0.184,1.015-0.092,1.443,0.273c0.53,0.555,1.479,1.08,1.523,1.674C288.1,249.158,288.412,255.242,288.765,261.322z"/>
	<path fill-rule="evenodd" clip-rule="evenodd" fill="#595751" d="M86.156,233.225c-0.669,3.516-1.338,7.031-2.077,10.91
		c0.825,0.574,1.714,1.348,2.731,1.871c3.984,2.055,7.98,4.094,12.04,5.992c1.18,0.551,2.589,0.615,3.893,0.902
		c-0.285,1.064-0.57,2.129-0.854,3.195c-3.265,0.982-5.419-1.57-8.047-2.576c-2.718-1.041-5.099-2.877-7.833-3.525
		c-2.272,0.217-1.795,3.051-3.69,3.445c-0.512,0.051-0.95-0.113-1.326-0.457c0.757-5.939,1.471-11.883,2.325-17.809
		c0.107-0.742,0.95-1.379,1.452-2.066C85.281,232.574,85.743,232.615,86.156,233.225z"/>
	<path fill-rule="evenodd" clip-rule="evenodd" fill="#454440" d="M211.972,133.384c-0.327,0.748-0.652,1.495-0.979,2.243
		c-0.243,0.104-0.487,0.208-0.729,0.318c-0.787,0.124-1.571,0.018-2.357-0.003c-3.26-0.147-6.412-1.169-9.713-1.132
		c-2.169,0.024-4.057,0.564-5.678,2.005c-0.7,0.367-1.425,0.433-2.172,0.167c-3.899-3.544-8.691-3.196-11.539,0.847
		c-0.669,0.404-1.367,0.448-2.092,0.177c-1.513-2.279-3.881-3.292-6.298-4.24c-0.329-0.427-0.357-0.861-0.039-1.306
		c3.699-0.384,7.389-0.94,11.098-1.109c4.937-0.224,9.888-0.147,14.832-0.2c0.735-0.44,1.453-0.41,2.152,0.084
		c2.049,0.337,4.096,0.673,6.144,1.009c1.102-0.707,2.16-0.695,3.167,0.187C209.171,132.749,210.572,133.066,211.972,133.384z"/>
	<path fill-rule="evenodd" clip-rule="evenodd" fill="#595751" d="M257.78,220.881c-0.061-0.58-0.121-1.162-0.181-1.742
		c0.214-2.867,2.609-3.9,4.539-5.238c4.533-3.141,9.214-6.078,13.055-10.113c0.779-0.34,1.478-0.215,2.094,0.371
		c2.108,3.506,2.434,7.523,3.271,11.395c-0.351,0.371-0.784,0.533-1.291,0.514c-2.143-0.508-2.22-2.957-4.026-4.213
		c-3.444,0.381-5.629,3.344-8.555,4.947C263.828,218.369,261.819,221.887,257.78,220.881z"/>
	<path fill-rule="evenodd" clip-rule="evenodd" fill="#5E5C55" d="M109.734,221.049c-4.934-3.266-9.866-6.533-14.803-9.793
		c-0.548-0.361-1.119-0.688-1.586-0.973c-2.838,1.111-1.251,5.805-5.113,5.732c0.975-3.291,1.949-6.582,2.923-9.873
		c0.493-0.244,0.937-0.543,1.188-1.059l-0.033-0.01c0.421-0.301,0.868-0.363,1.347-0.152c4.974,5.592,12.084,8.467,17.377,13.656
		C110.601,219.402,110.168,220.225,109.734,221.049z"/>
	<path fill-rule="evenodd" clip-rule="evenodd" fill="#E0DED9" d="M203.636,129.144c-0.712-2.719-1.425-5.438-2.299-8.771
		c1.984-1.016,3.969-2.032,5.522-2.827c3.016,1.305,4.309,2.881,4.016,5.475C210.787,128.681,208.687,130.455,203.636,129.144z"/>
	<path fill-rule="evenodd" clip-rule="evenodd" fill="#E0DED9" d="M145.447,133.478c-1.724-0.628-2.05-1.962-2.121-3.645
		c-0.111-2.664-0.482-5.316-0.802-8.567c2.294-0.5,4.816-1.049,7.802-1.699c0.951,2.141,1.747,3.93,2.542,5.721
		C153.542,132.288,151.382,134.672,145.447,133.478z"/>
	<path fill-rule="evenodd" clip-rule="evenodd" fill="#595751" d="M256.642,169.822c0.374-0.402,0.75-0.806,1.125-1.208
		c1.908,0.11,1.892,1.617,2.131,2.938c0.228,0.281,0.338,0.581,0.333,0.902c-0.005,0.33-0.036,0.495-0.092,0.496
		c-4.257,5.64-9.835,10.093-14.12,15.723c-1.102,1.447-2.41,3.072-4.727,2.191c-0.085-0.473-0.168-0.943-0.252-1.414
		c-0.664-1.721,0.188-3.133,1.271-4.18C247.374,180.381,251.524,174.653,256.642,169.822z"/>
	<path fill-rule="evenodd" clip-rule="evenodd" fill="#E0DED9" d="M126.663,139.624c-0.34-0.862-0.937-1.714-0.974-2.589
		c-0.124-2.911-0.047-5.831-0.047-8.862c0.406-0.488,0.752-1.126,1.287-1.483c0.525-0.351,1.24-0.415,2.059-0.662
		c2.495,2.631,3.855,5.747,5.844,9.631c-1.678-0.718-2.278-0.975-2.878-1.231C128.835,134.778,128.939,138.414,126.663,139.624z"/>
	<path fill-rule="evenodd" clip-rule="evenodd" fill="#4C4B4B" d="M86.156,233.225c-0.462-0.039-0.924-0.078-1.386-0.117
		c0.362-5.844,0.746-11.684,3.495-17.039c0.379,0.844,1.239,1.809,1.062,2.514C88.11,223.43,88.473,228.625,86.156,233.225z"/>
	<path fill-rule="evenodd" clip-rule="evenodd" fill="#55534D" d="M170.378,132.46c0.025,0.47,0.049,0.941,0.074,1.411
		c-3.106,3.913-7.878,2.373-11.802,3.618c-1.068,0.189-2.13,0.203-3.172-0.15c-0.526-0.211-0.859-0.594-0.998-1.145
		c1.306-0.915,2.518-2.401,3.936-2.634C162.357,132.914,166.385,132.79,170.378,132.46z"/>
	<path fill-rule="evenodd" clip-rule="evenodd" fill="#55534D" d="M277.287,204.158c-0.575-0.016-1.149-0.031-1.726-0.047
		c-4.211-3.979-6.304-8.775-5.638-14.635c0.512-0.373,1.021-0.365,1.523,0.018c1.653,3.771,3.342,7.525,4.937,11.32
		C276.828,201.869,276.994,203.039,277.287,204.158z"/>
	<path fill-rule="evenodd" clip-rule="evenodd" fill="#55534D" d="M93.261,205.145c-0.32,0.018-0.637-0.006-0.951-0.07
		c-0.057-5.447,2.168-10.105,5.031-14.543c0.499-0.383,1.005-0.393,1.519-0.029C99.551,196.359,97.443,201.148,93.261,205.145z"/>
	<path fill-rule="evenodd" clip-rule="evenodd" fill="#E0DED9" d="M235.01,129.206c2.401,0.04,1.757,1.901,1.95,3.262
		c0.391,6.194-1.163,7.687-6.301,6.054c-0.381-0.983-0.762-1.967-1.142-2.952c0.312-0.358,0.694-0.607,1.143-0.754
		c3.795-0.435,2.026-3.854,3.082-5.758C234.201,128.81,234.62,128.874,235.01,129.206z"/>
	<path fill-rule="evenodd" clip-rule="evenodd" fill="#A29C8D" d="M198.46,131.235c-0.718-0.027-1.436-0.056-2.152-0.084
		c0.031-1.237,0.063-2.475,0.094-3.711c0.795-3.179-1.979-7.088,1.969-9.622c2.11,3.739,1.145,7.624,0.528,11.488
		C198.795,129.956,198.608,130.592,198.46,131.235z"/>
	<path fill-rule="evenodd" clip-rule="evenodd" fill="#595751" d="M262.26,174.853c3.643,2.19,5.019,6.03,6.908,9.495
		c-0.596,0.648-1.349,0.815-2.19,0.715c-3.467-2.588-6.428-5.483-6.154-10.309C261.33,174.391,261.808,174.424,262.26,174.853z"/>
	<path fill-rule="evenodd" clip-rule="evenodd" fill="#222222" d="M78.312,277.77c-0.1-0.629-0.199-1.26-0.298-1.889
		c0.678-4.145,1.356-8.291,2.035-12.436c0.712-0.705,1.471-0.635,2.257-0.135c0.732,0.947,0.901,2.045,0.861,3.201
		c-0.057,0.838-0.269,1.641-0.603,2.408c-1.967,2.662-0.245,6.457-2.724,8.967C79.331,277.846,78.822,277.809,78.312,277.77z"/>
	<path fill-rule="evenodd" clip-rule="evenodd" fill="#898576" d="M145.447,133.478c2.921-0.052,5.381-1.004,7.192-3.817
		c0.067-1.297,0.148-2.835,0.229-4.373c1.839,2.65,0.348,5.406,0.96,8.403c-2.925,0.801-5.269,1.442-7.946,2.175
		C145.672,134.716,145.559,134.097,145.447,133.478z"/>
	<path fill-rule="evenodd" clip-rule="evenodd" fill="#E0DED9" d="M220.42,123.892c0.64,1.105,1.279,2.21,1.919,3.316
		c0.812,3.671,0.374,6.416-4.409,5.928c-0.832-0.345-1.357-1.017-1.835-1.741c-0.019-0.332-0.025-0.665-0.019-0.999
		c-0.233-0.233-0.344-0.489-0.331-0.768c0.014-0.29,0.05-0.436,0.109-0.434c1.554-1.185,3.015-2.448,3.582-4.435
		C219.676,124.369,220.005,124.082,220.42,123.892z"/>
	<path fill-rule="evenodd" clip-rule="evenodd" fill="#4C4B4B" d="M281.939,221.672c0.535,0.74,1.443,1.436,1.536,2.229
		c0.314,2.715,0.344,5.465,0.481,8.201c-0.444,0.391-0.951,0.506-1.522,0.344c-1.854-1.127-2.27-3.09-2.876-4.947
		c-0.372-2.027-0.586-4.039,0.764-5.842C280.864,221.305,281.403,221.311,281.939,221.672z"/>
	<path fill-rule="evenodd" clip-rule="evenodd" fill="#96907F" d="M203.636,129.144c1.755-0.4,3.51-0.8,5.417-1.235
		c0.664-1.783,1.244-3.335,1.822-4.888c1.444,3.083,1.271,4.498-1.245,6.822c-0.837,0.774-2.102,1.089-1.86,2.587
		c-1.056-0.062-2.111-0.124-3.167-0.187C204.281,131.21,203.959,130.177,203.636,129.144z"/>
	<path fill-rule="evenodd" clip-rule="evenodd" fill="#E0DED9" d="M198.37,117.818c-0.315,1.69-0.608,3.383-0.951,5.067
		c-0.311,1.524-0.676,3.037-1.018,4.555c-2.425-3.647-0.297-7.537-1.236-11.399c1.261-0.102,1.902-0.153,2.836-0.229
		C198.141,116.571,198.255,117.195,198.37,117.818z"/>
	<path fill-rule="evenodd" clip-rule="evenodd" fill="#E5E5E5" d="M235.01,129.206c-0.477,0.07-0.951,0.141-1.428,0.212
		c-1.379,1.846-1.336,4.383-2.962,6.109c-0.367,0.014-0.734,0.029-1.103,0.042c-2.353-3.098-0.337-5.479,1.209-8.077
		C232.566,127.227,234.507,126.281,235.01,129.206z"/>
	<path fill-rule="evenodd" clip-rule="evenodd" fill="#96907F" d="M230.659,138.521c1.298,0,2.597,0,4.46,0
		c0.638-2.096,1.239-4.075,1.841-6.054c0.452,1.679,0.903,3.357,1.272,4.725C234.506,141.746,233.674,141.849,230.659,138.521z"/>
	<path fill-rule="evenodd" clip-rule="evenodd" fill="#96907F" d="M217.156,132.322c1.142,0,2.281,0,3.927,0
		c0.427-1.741,0.841-3.427,1.256-5.114c0.485,1.663,0.971,3.327,1.383,4.736c-1.331,1.972-2.211,3.679-4.508,3.529
		c-0.855,0.016-1.516-0.366-2.048-1.007c-0.009-0.34-0.018-0.681-0.028-1.021c-0.294-0.255-0.39-0.507-0.286-0.754
		C216.955,132.445,217.055,132.322,217.156,132.322z"/>
	<path fill-rule="evenodd" clip-rule="evenodd" fill="#97917F" d="M126.663,139.624c0.463-1.41,0.927-2.82,1.494-4.544
		c1.035-0.146,1.928-2.646,3.798-0.652c-0.078,0.498-0.005,1.33-0.256,1.442c-2.437,1.095-3.262,3.121-3.927,5.824
		C127.402,141.004,127.032,140.313,126.663,139.624z"/>
	<path fill-rule="evenodd" clip-rule="evenodd" fill="#55534D" d="M282.652,232.186c0.436-0.029,0.87-0.057,1.305-0.084
		c2.4,2.713,1.516,6.189,2.161,9.311c-0.461,0.041-0.921,0.084-1.383,0.127C282.079,238.857,280.943,235.838,282.652,232.186z"/>
	<path fill-rule="evenodd" clip-rule="evenodd" fill="#454440" d="M267.176,184.362c0.663-0.005,1.328-0.009,1.992-0.014
		c2.276,1.043,1.939,3.246,2.279,5.146c-0.45,0.031-0.9,0.061-1.352,0.09c-1.021,0.143-1.986-0.014-2.893-0.521
		c-0.42-0.314-0.728-0.713-0.938-1.191C265.923,186.533,265.933,185.288,267.176,184.362z"/>
	<path fill-rule="evenodd" clip-rule="evenodd" fill="#454440" d="M98.714,190.627c-0.458-0.033-0.916-0.064-1.373-0.096
		c0.345-1.9,0.013-4.102,2.285-5.145c0.536,0.07,1.072,0.139,1.607,0.209c0.721,1.232,1.13,2.508,0.592,3.932
		C100.998,190.482,99.94,190.793,98.714,190.627z"/>
	<path fill-rule="evenodd" clip-rule="evenodd" fill="#E5E5E5" d="M220.42,123.892c-0.07,0.456-0.139,0.911-0.208,1.368
		c-1.106,0.86-2.291,1.021-3.566,0.407c-0.182-0.177-0.362-0.356-0.543-0.536c0.479-0.999,0.958-1.997,1.346-2.805
		C219.304,121.713,220.29,122.11,220.42,123.892z"/>
	<path fill-rule="evenodd" clip-rule="evenodd" fill="#454440" d="M281.939,221.672c-0.425,0.037-0.851,0.074-1.276,0.111
		c-2.297-1.598-2.758-3.662-1.562-6.146c0.485-0.027,0.97-0.057,1.456-0.084C281.018,217.594,281.478,219.633,281.939,221.672z"/>
	<path fill-rule="evenodd" clip-rule="evenodd" fill="#454440" d="M80.993,252.982c0.458,0.018,0.916,0.035,1.375,0.053
		c1.438,2.363,1.354,4.725-0.008,7.084c-0.544,0.43-1.113,0.459-1.703,0.094C80.769,257.803,80.881,255.393,80.993,252.982z"/>
	<path fill-rule="evenodd" clip-rule="evenodd" fill="#5E5C55" d="M80.657,260.213c0.438,0.008,0.876,0.018,1.314,0.027
		c0.876,1.191,1.059,2.307-0.353,3.25c-0.523-0.016-1.047-0.029-1.569-0.045C80.251,262.367,80.454,261.291,80.657,260.213z"/>
	<path fill-rule="evenodd" clip-rule="evenodd" fill="#E5E5E5" d="M216.184,129.127c-0.036,0.423-0.071,0.847-0.108,1.269
		c-1.663-1.763-1.83-3.519,0.026-5.265l0.058,0.057C217.156,126.495,217.279,127.808,216.184,129.127z"/>
	<path fill-rule="evenodd" clip-rule="evenodd" fill="#55534D" d="M262.26,174.853c-0.506,0.058-1.011,0.114-1.517,0.172
		c-0.748-0.367-1.152-0.946-1.113-1.8c0.089-0.558,0.18-1.116,0.269-1.673C261.868,171.807,261.797,173.521,262.26,174.853z"/>
	<path fill-rule="evenodd" clip-rule="evenodd" fill="#A29C8D" d="M217.166,134.467c0.682,0.336,1.365,0.672,2.048,1.007
		c-0.008,0.386-0.015,0.771-0.023,1.157c-0.686-0.352-1.371-0.706-2.058-1.058C217.144,135.205,217.154,134.835,217.166,134.467z"/>
	<path fill-rule="evenodd" clip-rule="evenodd" fill="#A29C8D" d="M217.156,132.322c-0.006,0.375-0.013,0.75-0.019,1.124
		c-0.348-0.683-0.694-1.366-1.043-2.051C216.449,131.705,216.803,132.013,217.156,132.322z"/>
	<path fill-rule="evenodd" clip-rule="evenodd" fill="#55534D" d="M153.953,137.702c-0.419-0.38-0.838-0.76-1.258-1.141
		c0.594-0.123,1.189-0.245,1.784-0.368c0.198,0.252,0.403,0.499,0.614,0.739C154.855,137.398,154.474,137.655,153.953,137.702z"/>
	<path fill-rule="evenodd" clip-rule="evenodd" fill="#55534D" d="M92.344,205.084c-0.396,0.354-0.792,0.705-1.188,1.059
		C91.551,205.789,91.948,205.438,92.344,205.084z"/>
	<path fill-rule="evenodd" clip-rule="evenodd" fill="#E5E5E5" d="M125.65,97.07c-0.118-0.376-0.237-0.753-0.355-1.129
		c-0.788-1.695-1.961-3.354-0.503-5.264c1.001-1.61,2.002-3.221,3.004-4.831c1.174-1.352,2.781-1.235,4.329-1.235
		c34.268-0.009,68.535-0.054,102.802,0.022c0.864,0.001,1.732,0.058,2.524,0.478c4.479,5.16,4.788,8.409,1.434,15.021l0.015-0.028
		c-1.282,1.633-2.983,2.155-5.021,2.155c-33.911,0.006-67.821-0.001-101.732-0.003C128.538,102.255,126.158,100.875,125.65,97.07z"
		/>
	<path fill-rule="evenodd" clip-rule="evenodd" fill="#747474" d="M238.885,100.131c0.559-3.312,1.116-6.623,1.593-9.447
		c-1.229-1.957-2.049-3.263-2.886-4.595c-0.278-0.126-0.588-0.39-0.898-0.39c-35.958-0.021-71.917-0.023-107.875-0.018
		c-0.341,0-0.682,0.107-1.022,0.165c0.08-0.646,0.161-1.292,0.262-2.103c36.795,0,73.384,0,110.056,0
		c2.872,3.031,4.363,6.69,3.971,11.023C241.877,97.055,241.256,99.122,238.885,100.131z"/>
	<path fill-rule="evenodd" clip-rule="evenodd" fill="#747474" d="M125.65,97.07c1.09,1.298,2.181,2.596,3.485,4.149
		c1.385,0,2.921,0,4.458,0c32.785,0,65.571,0.022,98.355-0.048c2.318-0.005,4.635-0.696,6.952-1.068
		c-0.36,1.042-0.721,2.082-1.066,3.08c-36.753,0-73.023,0-110.338,0c-0.5-0.655-1.515-1.844-2.367-3.143
		C124.43,98.977,124.048,97.806,125.65,97.07z"/>
	<path fill-rule="evenodd" clip-rule="evenodd" fill="#747474" d="M124.792,90.676c0.167,1.755,0.335,3.509,0.503,5.264
		c-0.47-0.102-0.939-0.204-1.658-0.359C123.937,93.881,122.656,91.967,124.792,90.676z"/>
	<path fill-rule="evenodd" clip-rule="evenodd" fill="#C1BBAA" d="M210.994,135.627c5.153,2.524,10.307,5.05,16.004,7.841
		c-3.014,8.826-6.376,17.119-9.849,25.371c-3.802-1.757-7.602-3.515-11.402-5.272c-0.574-0.656-1.234-1.425-1.104-2.257
		c1.374-8.742,2.304-17.601,6.356-25.681L210.994,135.627z"/>
	<path fill-rule="evenodd" clip-rule="evenodd" fill="#C1BBA9" d="M153.953,137.702c0.38-0.256,0.761-0.513,1.141-0.77
		c0.924,0.063,1.848,0.126,2.771,0.188c0.39,0.271,0.696,0.615,0.912,1.04c0.623,1.765,1.438,3.454,2.089,5.214
		c0.423,1.675,0.56,3.412,1.121,5.059c0.323,3.175,0.986,6.271,2.086,9.274c0.394,1.75,0.261,3.399-0.925,4.845
		c-4.183,1.762-8.365,3.522-12.548,5.283c-2.938-7.581-5.876-15.164-8.815-22.748C146.166,142.429,150.059,140.065,153.953,137.702z
		"/>
	<path fill-rule="evenodd" clip-rule="evenodd" fill="#C1BBA9" d="M192.146,136.548c0.096-0.838,0.189-1.677,0.303-2.676
		c5.487-1.268,10.788,0.341,16.131,0.749c1.197,1.038,1.355,2.376,0.969,3.785c-1.821,6.634-2.914,13.438-4.653,20.09
		c-0.464,1.776-0.476,4.059-3.398,3.407c-3.445-0.877-6.89-1.754-10.499-2.673c0-1.898,0-3.434,0-4.969
		C188.475,148.168,190.635,142.379,192.146,136.548z"/>
	<path fill-rule="evenodd" clip-rule="evenodd" fill="#C1BBAA" d="M219.184,169.826c3.216-7.902,6.432-15.804,9.908-24.348
		c2.521,1.696,4.76,3.127,6.916,4.673c2.082,1.491,4.08,3.1,6.406,4.88c-0.61,4.821-4.345,8.014-6.464,11.974
		c-2.089,3.905-4.89,7.43-7.378,11.121c-0.681-0.449-1.359-0.899-2.039-1.349C224.084,174.46,221.635,172.143,219.184,169.826z"/>
	<path fill-rule="evenodd" clip-rule="evenodd" fill="#C1BBAA" d="M157.854,137.158l0.011-0.038
		c3.191-2.507,7.278-1.254,10.757-2.558c0.61-0.229,1.22-0.46,1.83-0.691c1.67-0.104,3.339-0.21,5.428-0.341
		c0.29,1.529,0.529,2.792,0.769,4.057c1.51,5.832,3.672,11.621,1.146,17.714c-0.064,1.182-0.129,2.364-0.216,3.957
		c-4.13,0.726-8.253,1.45-12.377,2.174c-1.522-1.353-1.165-3.428-1.951-5.063c-0.808-2.727-1.175-5.54-1.633-8.333
		c-0.823-1.85-0.914-3.875-1.386-5.806C159.907,140.322,158.947,138.708,157.854,137.158z"/>
	<path fill-rule="evenodd" clip-rule="evenodd" fill="#C1BBA9" d="M138.141,177.174c-3.481-7.19-8.871-13.339-12.032-21.012
		c4.62-3.369,8.871-6.469,13.538-9.872c3.186,7.908,6.127,15.208,9.068,22.509c-0.971,1.043-1.859,2.186-2.933,3.111
		c-2.105,1.813-4.314,3.508-6.479,5.252C138.916,177.167,138.529,177.171,138.141,177.174z"/>
	<path fill-rule="evenodd" clip-rule="evenodd" fill="#C0BAA9" d="M178.434,137.54c-0.132-1.157-0.264-2.313-0.432-3.784
		c4.123,0,8.171,0,12.36,0c0,0.853,0,1.798,0,2.745c1.956,6.078-0.186,11.874-1.225,17.745c-0.097,1.504-0.193,3.008-0.312,4.838
		c-2.844,0-5.609,0-8.749,0c-0.135-1.225-0.276-2.512-0.418-3.799C178.616,149.414,176.477,143.618,178.434,137.54z"/>
	<path fill-rule="evenodd" clip-rule="evenodd" fill="#5E5C55" d="M201.497,161.903c0.483-0.177,0.967-0.354,1.64-0.601
		c1.843-7.97,3.731-16.043,5.55-24.133c0.18-0.801-0.061-1.696-0.106-2.548c0.808,0.336,1.613,0.672,2.42,1.008
		c-1.229,5.801-2.533,11.589-3.66,17.41c-0.674,3.482-1.071,7.016-1.593,10.528C204.266,163.176,202.016,164.75,201.497,161.903z"/>
	<path fill-rule="evenodd" clip-rule="evenodd" fill="#5E5C55" d="M189.137,154.245c0.408-5.915,0.816-11.831,1.225-17.745
		c0.595,0.015,1.189,0.031,1.784,0.048c-0.383,5.904-0.766,11.809-1.148,17.713C190.378,154.256,189.758,154.25,189.137,154.245z"/>
	<path fill-rule="evenodd" clip-rule="evenodd" fill="#5E5C55" d="M178.434,137.54c0.409,5.915,0.817,11.83,1.225,17.745
		c-0.621,0.005-1.243,0.01-1.864,0.016c-0.382-5.904-0.764-11.809-1.146-17.714C177.243,137.571,177.839,137.556,178.434,137.54z"/>
	<path fill-rule="evenodd" clip-rule="evenodd" fill="#55534D" d="M164.069,156.328c0.378,1.701,0.755,3.402,1.133,5.103
		c-0.684,0.373-1.369,0.748-2.053,1.121c-0.084-1.633-0.167-3.267-0.251-4.898C162.468,156.486,162.998,156.169,164.069,156.328z"/>
	<path fill-rule="evenodd" clip-rule="evenodd" fill="#C2BCAA" d="M256.642,169.822c-1.161,4.082-4.511,6.56-7.07,9.612
		c-2.818,3.359-5.686,6.679-8.531,10.017c-0.994-0.404-2.22-0.568-2.939-1.26c-2.276-2.186-4.363-4.57-6.522-6.875
		c0.279-1.471,0.179-3.17,0.903-4.373c3.951-6.56,8.105-12.996,12.478-19.93C248.988,161.431,252.815,165.626,256.642,169.822z"/>
	<path fill-rule="evenodd" clip-rule="evenodd" fill="#C2BCAA" d="M268.293,188.689c0.601,0.299,1.202,0.596,1.803,0.895
		c1.822,4.842,3.645,9.686,5.466,14.527c-0.015,2.221-1.695,3.117-3.226,4.221c-4.94,3.561-9.828,7.199-14.736,10.807
		c-0.844-0.967-1.938-1.811-2.482-2.924c-1.569-3.213-2.917-6.535-4.352-9.814c-0.547-2.908,1.456-4.551,3.333-5.971
		c3.061-2.316,5.592-5.117,8.145-7.92C264.144,191.059,265.889,189.35,268.293,188.689z"/>
	<path fill-rule="evenodd" clip-rule="evenodd" fill="#C2BCAA" d="M259.63,173.225c0.37,0.6,0.741,1.199,1.113,1.8
		c2.144,3.111,4.287,6.225,6.433,9.337c-0.176,1.347-0.351,2.697-0.525,4.044c-1.323,1.912-3.715,2.762-4.846,4.871
		c-2.529,2.984-5.743,5.227-8.528,7.928c-1.49,1.445-3.073,2.063-5.026,0.996c-1.982-2.889-4.005-5.75-5.922-8.68
		c-0.51-0.777-0.699-1.766-1.035-2.656c0.957-0.672,2.08-1.195,2.845-2.041c4.343-4.808,8.566-9.724,12.927-14.515
		C257.632,173.686,258.76,173.574,259.63,173.225z"/>
	<path fill-rule="evenodd" clip-rule="evenodd" fill="#C1BBA9" d="M265.984,255.045c4.761-2.203,9.521-4.406,14.284-6.604
		c1.495-0.691,2.999-1.365,4.887-2.225c0.646,5.445,1.219,10.279,1.793,15.115c-0.053,1.383-0.104,2.764-0.156,4.146
		c-5.438,4.176-12.124,5.074-18.424,6.975c-0.806,0.244-1.662-0.207-2.146-1.035c-0.393-4.23-0.875-8.457-1.117-12.695
		C265.037,257.518,265.672,256.271,265.984,255.045z"/>
	<path fill-rule="evenodd" clip-rule="evenodd" fill="#C1BBA9" d="M279.101,215.637c0.521,2.049,1.041,4.098,1.562,6.146
		c-0.129,2.096-0.256,4.189-0.385,6.283c-0.405,0.273-0.854,0.424-1.338,0.463c-4.87,0.398-8.12,4.262-12.447,5.807
		c-1.805,0.646-3.444,2.539-5.611,0.855c-1.034-4.77-2.068-9.539-3.102-14.311c5.417-3.609,10.834-7.221,16.255-10.826
		c0.42-0.279,0.875-0.508,1.847-1.068C276.984,211.264,278.043,213.451,279.101,215.637z"/>
	<path fill-rule="evenodd" clip-rule="evenodd" fill="#C1BBAA" d="M280.007,228.035l0.271,0.031
		c2.196,0.564,1.246,2.941,2.374,4.119c0.694,3.117,1.389,6.234,2.083,9.354c0.118,1.863-1.033,2.635-2.557,3.357
		c-4.002,1.902-7.939,3.943-11.877,5.98c-1.504,0.779-2.938,1.695-4.404,2.549c-0.544-0.367-1.493-0.666-1.569-1.111
		c-0.827-4.885-1.518-9.791-2.245-14.693C267.584,233.541,273.282,229.828,280.007,228.035z"/>
	<path fill-rule="evenodd" clip-rule="evenodd" fill="#C1BBAA" d="M270.403,286.408c-0.984-0.072-1.969-0.145-2.954-0.215
		c-0.126-4.141-0.251-8.279-0.376-12.418c6.25-3.311,13.008-5.154,19.818-6.844c0.487,0.033,0.975,0.066,1.689,0.117
		c0,5.555,0,11.027,0,16.867C282.635,285.559,276.548,286.162,270.403,286.408z"/>
	<path fill-rule="evenodd" clip-rule="evenodd" fill="#55534D" d="M286.891,266.932c-1.323,0.648-2.591,1.467-3.979,1.916
		c-5.259,1.707-10.557,3.295-15.84,4.928c-0.284-0.787-0.568-1.572-0.852-2.357c1.816-0.324,3.69-0.465,5.441-1.004
		c5.069-1.561,10.09-3.279,15.129-4.936C286.826,265.963,286.858,266.447,286.891,266.932z"/>
	<path fill-rule="evenodd" clip-rule="evenodd" fill="#5E5C55" d="M280.007,228.035c-5.304,3.061-10.598,6.137-15.924,9.156
		c-0.566,0.32-1.329,0.295-2,0.43c-0.4-0.809-0.801-1.619-1.201-2.43c3.616-1.684,7.252-3.326,10.839-5.07
		c1.816-0.883,3.503-2.031,5.321-2.91C278.15,226.674,279.359,226.545,280.007,228.035z"/>
	<path fill-rule="evenodd" clip-rule="evenodd" fill="#595751" d="M248.25,202.201c1.376-0.492,3.035-0.654,4.073-1.541
		c2.71-2.313,5.119-4.977,7.728-7.416c0.421-0.395,1.247-0.357,1.887-0.52c0.269-0.361,0.555-0.396,0.864-0.053
		c-0.803,3.346-3.746,4.928-5.894,7.17c-2.07,2.162-4.097,4.371-6.143,6.559C249.927,205,249.089,203.6,248.25,202.201z"/>
	<path fill-rule="evenodd" clip-rule="evenodd" fill="#C2BCAA" d="M122.717,184.976c-3.461-4.239-6.923-8.478-10.77-13.188
		c3.67-4.366,7.474-8.89,11.731-13.955c3.048,4.865,5.897,9.273,8.595,13.771c1.488,2.481,2.724,5.114,4.074,7.68
		c-2.662,3.882-5.413,7.677-9.604,10.107C124.928,188.352,123.58,186.885,122.717,184.976z"/>
	<path fill-rule="evenodd" clip-rule="evenodd" fill="#C2BCAA" d="M98.714,190.627c1.034-0.336,2.068-0.672,3.102-1.008
		c0.2,0.111,0.4,0.223,0.604,0.33c1.727,1.807,3.383,3.684,5.237,5.371c2.346,3.457,6.994,4.66,8.633,8.807
		c-0.337,1.42-0.521,2.898-1.041,4.25c-1.324,3.432-2.8,6.805-4.215,10.201c-5.115-1.67-8.958-5.355-13.214-8.375
		c-1.878-1.334-4.5-2.061-4.559-5.059C95.079,200.305,96.896,195.465,98.714,190.627z"/>
	<path fill-rule="evenodd" clip-rule="evenodd" fill="#C1BBAA" d="M101.816,189.619c-0.194-1.34-0.388-2.682-0.583-4.023
		c1.873-2.405,3.738-4.818,5.622-7.215c1.021-1.3,2.074-2.575,3.148-3.906c4.423,4.312,8.45,8.237,12.476,12.163
		c2.096,0.488,2.731,2.262,3.471,3.943c-1.854,4.875-5.045,8.834-8.599,12.545c-3.662-2.074-6.493-5.186-9.739-7.779
		c-1.957-1.906-3.875-3.855-5.838-5.758L101.816,189.619z"/>
	<path fill-rule="evenodd" clip-rule="evenodd" fill="#C0BAA9" d="M81.618,263.49c0.118-1.084,0.235-2.168,0.353-3.25
		c0.132-2.402,0.265-4.803,0.396-7.205c0.451-1.732,0.903-3.467,1.513-5.814c6.138,3.025,12.073,5.949,18.008,8.875
		c-0.398,5.184-0.797,10.365-1.195,15.549c-0.643,0.6-1.45,1.188-2.267,1c-5.743-1.32-11.626-2.301-16.496-6.021
		C81.826,265.578,81.722,264.535,81.618,263.49z"/>
	<path fill-rule="evenodd" clip-rule="evenodd" fill="#C0BAA9" d="M79.841,277.887c0-2.91,0-5.82,0-8.891
		c0.873-0.303,1.472-0.512,2.07-0.721c6.324,1.32,12.744,2.371,18.068,6.48c0,4.281,0,8.561,0,13.018
		c-1.115,0.195-1.743,0.305-2.372,0.414c-1.159,0.145-2.257,0.066-3.125-0.854c-4.669-0.703-9.338-1.408-14.246-2.148
		C80.094,282.57,79.968,280.229,79.841,277.887z"/>
	<path fill-rule="evenodd" clip-rule="evenodd" fill="#55534D" d="M99.979,274.756c-6.023-2.16-12.045-4.32-18.068-6.48
		c0.007-0.551,0.013-1.102,0.02-1.652c4.745,1.469,9.476,2.99,14.247,4.371c1.447,0.42,3.008,0.445,4.517,0.65
		C100.456,272.682,100.217,273.719,99.979,274.756z"/>
	<path fill-rule="evenodd" clip-rule="evenodd" fill="#5E5C55" d="M105.054,238.406c-5.319-3.041-10.638-6.08-15.957-9.121
		c0.069-0.35,0.139-0.697,0.209-1.047c0.974,0.086,2.09-0.105,2.898,0.305c3.217,1.637,6.309,3.516,9.507,5.188
		c1.346,0.705,2.842,1.117,4.27,1.664C105.673,236.398,105.364,237.402,105.054,238.406z"/>
	<path fill-rule="evenodd" clip-rule="evenodd" fill="#595751" d="M108.116,194.709c3.079,2.805,6.157,5.611,9.236,8.416
		c-0.354,0.334-0.708,0.668-1.062,1.002c-3.114-2.766-6.227-5.531-9.341-8.297C106.743,194.838,107.048,194.377,108.116,194.709z"/>
	<path fill-rule="evenodd" clip-rule="evenodd" fill="#55534D" d="M125.95,190.58c-1.157-1.314-2.313-2.629-3.471-3.943
		c0.079-0.553,0.158-1.107,0.237-1.661c1.342,1.471,2.685,2.944,4.026,4.415C126.479,189.787,126.215,190.184,125.95,190.58z"/>
	<path fill-rule="evenodd" clip-rule="evenodd" fill="#55534D" d="M94.482,287.334c1.042,0.285,2.083,0.568,3.125,0.854
		c0.016,0.359,0.032,0.717,0.047,1.076c-1.086-0.205-2.173-0.412-3.26-0.619C94.424,288.207,94.453,287.771,94.482,287.334z"/>
	<path fill-rule="evenodd" clip-rule="evenodd" fill="#A29C8D" d="M208.235,124.436c-1.741,2.236-2.961,2.114-4.722,0
		C205.211,124.436,206.427,124.436,208.235,124.436z"/>
	<path fill-rule="evenodd" clip-rule="evenodd" fill="#B6B09E" d="M150.575,125.102c0,1.333,0,2.666,0,4.466
		c-1.539,0.311-2.793,0.564-4.047,0.817c-1.101-1.729-0.4-3.479-0.419-4.928C147.821,123.873,149.196,124.343,150.575,125.102z"/>
	<path fill-rule="evenodd" clip-rule="evenodd" fill="#96907F" d="M150.575,125.102c-1.18,0-2.36,0-4.047,0c0,1.977,0,3.631,0,5.283
		l-0.023,0.007c-0.376,0.225-0.735,0.201-1.077-0.073c-0.202-2.252-0.404-4.505-0.623-6.947
		C146.948,122.952,149.26,122.115,150.575,125.102z"/>
	<path fill-rule="evenodd" clip-rule="evenodd" fill="#B6B09E" d="M145.429,130.319c0.359,0.024,0.718,0.049,1.077,0.073
		c-0.197,0.253-0.394,0.507-0.592,0.761C145.751,130.875,145.59,130.597,145.429,130.319z"/>
	<path fill-rule="evenodd" clip-rule="evenodd" fill="#A29C8D" d="M230.62,135.527c0.001-1.166-0.061-2.337,0.019-3.499
		c0.122-1.79,1.104-2.71,2.943-2.611c2.259,2.548,1.142,4.758-0.646,7.067C232.101,136.14,231.36,135.834,230.62,135.527z"/>
	<path fill-rule="evenodd" clip-rule="evenodd" fill="#97917F" d="M216.184,129.127c-0.009-1.313-0.017-2.626-0.024-3.939
		c1.351,0.023,2.7,0.048,4.052,0.072c-0.45,1.332-0.898,2.664-1.365,4.051C217.761,129.236,216.972,129.183,216.184,129.127z"/>
	<path fill-rule="evenodd" clip-rule="evenodd" fill="#5E5C55" d="M262.802,192.672c-0.288,0.016-0.576,0.033-0.864,0.053
		c0.149-2.992,2.008-4.117,4.713-4.318c0.548,0.096,1.096,0.188,1.643,0.283C266.694,190.336,265.63,192.721,262.802,192.672z"/>
	<path fill-rule="evenodd" clip-rule="evenodd" fill="#5E5C55" d="M164.069,156.328c-0.39,0.441-0.781,0.883-1.171,1.326
		c-1.965-2.945-1.961-6.289-1.954-9.633c0.294-0.326,0.582-0.305,0.864,0.017C163.688,150.494,163.549,153.501,164.069,156.328z"/>
	<path fill-rule="evenodd" clip-rule="evenodd" fill="#5E5C55" d="M157.854,137.158c2.887,0.34,3.234,2.303,2.976,4.655
		c-0.314,0.48-0.376,1.171-1.098,1.31C159.106,141.135,158.48,139.146,157.854,137.158z"/>
	<path fill-rule="evenodd" clip-rule="evenodd" fill="#55534D" d="M159.732,143.123c0.366-0.437,0.731-0.874,1.098-1.31
		c0.326,2.075,0.651,4.15,0.977,6.225l-0.432-0.045c0,0-0.432,0.028-0.433,0.028C160.539,146.389,160.135,144.755,159.732,143.123z"
		/>
	<path fill-rule="evenodd" clip-rule="evenodd" fill="#5E5C55" d="M108.116,194.709c-0.389,0.373-0.778,0.748-1.167,1.121
		c-2.021-1.836-5.019-2.861-5.175-6.242C104.975,189.949,106.222,192.729,108.116,194.709z"/>
</g>
</svg>
